<svg xmlns="http://www.w3.org/2000/svg" width="232" height="135" fill="none" viewBox="0 0 232 135">
  <path fill="#fff" d="M105.029 15.015c-.12 0-.205-.03-.255-.09a.458.458 0 0 1-.06-.255c0-.22.05-.56.15-1.02.11-.42.165-.765.165-1.035 0-.78-.06-1.375-.18-1.785h-.465c-.41 0-.945-.01-1.605-.03l-1.41-.015h-2.025l.03.585c0 .46.075 1.035.225 1.725.05.28.095.565.135.855.05.28.075.535.075.765v.135c-.1.1-.205.15-.315.15-.26 0-.465-.305-.615-.915-.15-.62-.225-1.365-.225-2.235 0-.35.015-.695.045-1.035-.22-.01-.37-.045-.45-.105-.08-.07-.12-.175-.12-.315 0-.11.03-.185.09-.225.07-.04.19-.07.36-.09l-.015-.405.045-.69c.07-1.13.175-2.05.315-2.76s.44-1.325.9-1.845 1.15-.78 2.07-.78c1.05 0 1.87.565 2.46 1.695.59 1.13.99 2.39 1.2 3.78.21 1.39.315 2.585.315 3.585 0 .36-.01.675-.03.945-.02.26-.06.585-.12.975-.23.29-.46.435-.69.435Zm-.24-4.77c-.19-1.85-.53-3.3-1.02-4.35-.49-1.06-1.225-1.59-2.205-1.59-.73 0-1.27.34-1.62 1.02a5.91 5.91 0 0 0-.615 2.16c-.07.77-.105 1.635-.105 2.595l5.565.165ZM49.947 59.82a3.64 3.64 0 0 0-.45-.03c-.13-.01-.22-.015-.27-.015-.04-.01-.06-.03-.06-.06-.07-.32-.12-.6-.15-.84-.03-.25-.05-.48-.06-.69a8.56 8.56 0 0 0-.075-.885c-.03-.3-.1-.695-.21-1.185-.56.09-.935.135-1.125.135-.2 0-.35-.035-.45-.105-.1-.08-.15-.205-.15-.375 0-.1.055-.15.165-.15l.45-.045c.07-.01.39-.05.96-.12l-.12-1.785c-.03-.72-.075-1.295-.135-1.725l-1.875.165c-.14.09-.25.135-.33.135a.57.57 0 0 1-.225-.345c.24-.26.815-.475 1.725-.645A16.44 16.44 0 0 1 50.547 51c1.34 0 2.49.145 3.45.435.96.28 1.48.715 1.56 1.305-.31 0-.61-.035-.9-.105-.29-.07-.655-.175-1.095-.315-.56-.19-1.075-.335-1.545-.435-.46-.1-.98-.15-1.56-.15-.37 0-.775.03-1.215.09 0 .93.025 2.105.075 3.525l.525-.045c1.6-.13 2.535-.195 2.805-.195.13 0 .22.01.27.03.05.01.09.03.12.06.01.3-.275.515-.855.645-.58.12-1.5.205-2.76.255.05.49.145 1.13.285 1.92.13.74.21 1.34.24 1.8Zm103.375 2.195c-.83 0-1.435-.155-1.815-.465-.37-.31-.555-.87-.555-1.68l.21-3.36v-3.225c0-.25.05-.41.15-.48.1-.08.32-.12.66-.12l1.02.03c1.28.07 2.53.105 3.75.105.26 0 .465.075.615.225.16.15.24.355.24.615 0 .05-.015.09-.045.12s-.065.04-.105.03l-.705-.27-4.695.12c-.06 0-.095-.005-.105-.015.04.08.06.15.06.21v2.655c.46.03.905.045 1.335.045.74 0 1.555-.035 2.445-.105.09-.01.225-.02.405-.03.19-.02.295-.02.315 0 .06.06.105.115.135.165.03.05.05.12.06.21.03.22-.305.365-1.005.435-.69.07-1.615.125-2.775.165-.39 0-.715.01-.975.03-.12.3-.18.78-.18 1.44l.015.885v.975c.16.13.335.215.525.255.19.04.5.06.93.06.45 0 .89-.025 1.32-.075l.78-.09c.84-.1 1.465-.15 1.875-.15.24 0 .405.025.495.075.1.04.15.115.15.225 0 .66-1.34.99-4.02.99h-.51Zm-44.781 1.625-.1 5.68.84.08c0 .187-.057.387-.17.6h-2.3l-.03-.35a5.9 5.9 0 0 1 .91-.24c-.014-.433-.037-1.327-.07-2.68-.027-1.353-.05-2.4-.07-3.14a8.334 8.334 0 0 1-.9-.24l.03-.35h2.5c.113.213.17.413.17.6-.34.027-.61.04-.81.04Z"/>
  <path stroke="#F8E47C" stroke-width="3" d="m18.259 100.62 84.183-82.67 84.184 82.67H18.259Z"/>
  <path fill="#fff" d="M138.117 113c-.104.04-.204.016-.3-.072a.544.544 0 0 1-.144-.372 47.419 47.419 0 0 1-.108-.852l-.072-.744c-.016-.16-.052-.468-.108-.924a19.86 19.86 0 0 0-.156-1.2 4.788 4.788 0 0 0-.156-.6c-.232-.824-.348-1.42-.348-1.788.056-.08.112-.12.168-.12.208 0 .424.416.648 1.248.224.832.412 1.772.564 2.82.16 1.04.24 1.752.24 2.136v.156c0 .08-.02.148-.06.204-.032.056-.088.092-.168.108Zm2.453.048a1.438 1.438 0 0 1-.192.048c-.064 0-.132-.032-.204-.096-.264-.392-.456-1.076-.576-2.052a22.564 22.564 0 0 1-.168-2.52c0-.112.08-.168.24-.168.24 0 .36.132.36.396 0 .072-.004.132-.012.18.072-.168.208-.34.408-.516.2-.176.432-.324.696-.444.264-.12.532-.18.804-.18.856 0 1.48.38 1.872 1.14.392.752.588 1.688.588 2.808 0 .384-.04.692-.12.924-.08.224-.188.336-.324.336-.144 0-.216-.044-.216-.132.056-.424.084-.84.084-1.248 0-1.032-.18-1.812-.54-2.34-.36-.536-.836-.804-1.428-.804a1.791 1.791 0 0 0-1.488.816c-.16.256-.24.548-.24.876 0 .368.02.688.06.96.04.272.104.6.192.984.096.376.164.72.204 1.032Zm7.514.084c-.552 0-1.024-.152-1.416-.456-.392-.304-.692-.72-.9-1.248-.2-.528-.3-1.128-.3-1.8 0-.752.176-1.464.528-2.136.352-.68.812-1.224 1.38-1.632.576-.416 1.172-.624 1.788-.624.52 0 .92.116 1.2.348.28.232.42.504.42.816a.83.83 0 0 1-.168.504.97.97 0 0 1-.456.348.539.539 0 0 1-.036-.228c0-.096.012-.192.036-.288.016-.128.024-.22.024-.276a.517.517 0 0 0-.036-.204c-.112-.28-.416-.42-.912-.42-.136 0-.296.012-.48.036-.424.056-.844.268-1.26.636-.416.36-.756.812-1.02 1.356a3.782 3.782 0 0 0-.396 1.668c0 .496.08.968.24 1.416.168.44.408.796.72 1.068s.684.408 1.116.408c.56 0 1.024-.068 1.392-.204a4.044 4.044 0 0 0 1.104-.624.207.207 0 0 1 .132-.048c.088 0 .148.052.18.156.04.192-.088.4-.384.624-.296.224-.68.416-1.152.576-.472.152-.92.228-1.344.228Zm6.682-.132c-.512 0-.984-.1-1.416-.3a2.516 2.516 0 0 1-1.032-.852 2.172 2.172 0 0 1-.384-1.272c0-.536.1-1.036.3-1.5.2-.472.492-.848.876-1.128a2.249 2.249 0 0 1 1.368-.432c.544 0 .956.176 1.236.528.28.344.412.78.396 1.308 0 .472-.188.832-.564 1.08-.368.248-.84.372-1.416.372a4.79 4.79 0 0 1-.396-.024c-.288-.032-.492-.076-.612-.132-.12-.056-.18-.168-.18-.336 0-.056.016-.096.048-.12.032-.032.096-.048.192-.048.104 0 .288.024.552.072.256.048.484.072.684.072.736 0 1.104-.32 1.104-.96 0-.384-.072-.688-.216-.912-.136-.224-.38-.336-.732-.336-.384 0-.728.104-1.032.312-.304.2-.54.464-.708.792a2.35 2.35 0 0 0-.24 1.044c0 .632.176 1.152.528 1.56.352.4.896.6 1.632.6.088 0 .236-.008.444-.024.088-.008.196-.032.324-.072l.276-.084c.344-.12.596-.18.756-.18.12 0 .212.032.276.096-.2.304-.5.528-.9.672-.392.136-.78.204-1.164.204Zm3.687.048a1.438 1.438 0 0 1-.192.048c-.064 0-.132-.032-.204-.096-.264-.392-.456-1.076-.576-2.052a22.564 22.564 0 0 1-.168-2.52c0-.112.08-.168.24-.168.24 0 .36.132.36.396 0 .072-.004.132-.012.18.072-.168.208-.34.408-.516.2-.176.432-.324.696-.444.264-.12.532-.18.804-.18.856 0 1.48.38 1.872 1.14.392.752.588 1.688.588 2.808 0 .384-.04.692-.12.924-.08.224-.188.336-.324.336-.144 0-.216-.044-.216-.132.056-.424.084-.84.084-1.248 0-1.032-.18-1.812-.54-2.34-.36-.536-.836-.804-1.428-.804a1.791 1.791 0 0 0-1.488.816c-.16.256-.24.548-.24.876 0 .368.02.688.06.96.04.272.104.6.192.984.096.376.164.72.204 1.032Zm6.709-.048c-.08.016-.132.024-.156.024-.248 0-.42-.184-.516-.552-.088-.368-.132-.884-.132-1.548 0-.272.008-.696.024-1.272.016-.352.024-.616.024-.792-.984 0-1.476-.112-1.476-.336 0-.072.008-.128.024-.168.024-.04.072-.06.144-.06l1.308-.084c-.008-.392-.028-.82-.06-1.284-.032-.416-.052-.8-.06-1.152 0-.088.036-.148.108-.18a.463.463 0 0 1 .228-.06c.096 0 .176.052.24.156a.533.533 0 0 1 .096.3l.084 2.196.996.048a.552.552 0 0 1 .384.084c.112.072.172.192.18.36a1.745 1.745 0 0 1-.552.132c-.2.016-.536.024-1.008.024 0 .744.036 1.968.108 3.672v.372c.008.064.012.104.012.12Zm3.156 0c-.328-.64-.588-1.392-.78-2.256-.184-.864-.276-1.612-.276-2.244 0-.248.056-.408.168-.48.064-.04.112-.06.144-.06.056 0 .096.044.12.132.032.088.064.248.096.48l.06.432c.088-.432.256-.772.504-1.02.256-.256.568-.384.936-.384.408 0 .712.08.912.24.2.152.3.408.3.768-.4-.192-.764-.288-1.092-.288-.312 0-.58.084-.804.252-.224.168-.38.416-.468.744a2.08 2.08 0 0 0-.024 1.248c.064.184.16.412.288.684.12.28.212.52.276.72.072.2.112.416.12.648 0 .136-.048.236-.144.3a.655.655 0 0 1-.336.084Zm5.491 0c-.512 0-.984-.1-1.416-.3a2.516 2.516 0 0 1-1.032-.852 2.172 2.172 0 0 1-.384-1.272c0-.536.1-1.036.3-1.5.2-.472.492-.848.876-1.128a2.249 2.249 0 0 1 1.368-.432c.544 0 .956.176 1.236.528.28.344.412.78.396 1.308 0 .472-.188.832-.564 1.08-.368.248-.84.372-1.416.372a4.79 4.79 0 0 1-.396-.024c-.288-.032-.492-.076-.612-.132-.12-.056-.18-.168-.18-.336 0-.056.016-.096.048-.12.032-.032.096-.048.192-.048.104 0 .288.024.552.072.256.048.484.072.684.072.736 0 1.104-.32 1.104-.96 0-.384-.072-.688-.216-.912-.136-.224-.38-.336-.732-.336-.384 0-.728.104-1.032.312-.304.2-.54.464-.708.792a2.35 2.35 0 0 0-.24 1.044c0 .632.176 1.152.528 1.56.352.4.896.6 1.632.6.088 0 .236-.008.444-.024.088-.008.196-.032.324-.072l.276-.084c.344-.12.596-.18.756-.18.12 0 .212.032.276.096-.2.304-.5.528-.9.672-.392.136-.78.204-1.164.204ZM16.19 114.015c-1.91 0-3.39-.105-4.44-.315-.27-5.01-.516-8.04-.736-9.09l-.45.105c-.24.05-.47.105-.69.165-.22.05-.455.125-.705.225l-.015-.51c0-.17.185-.325.555-.465a6.01 6.01 0 0 1 1.335-.345c.53-.09 1-.135 1.41-.135.45 0 .965.08 1.545.24.59.16 1.095.4 1.515.72.42.31.63.68.63 1.11 0 .49-.19.925-.57 1.305-.37.37-.855.635-1.455.795.88.15 1.7.42 2.46.81.76.38 1.37.855 1.83 1.425.46.56.69 1.165.69 1.815 0 .75-.29 1.295-.87 1.635-.58.34-1.26.51-2.04.51Zm-.39-.855c.74 0 1.31-.08 1.71-.24.4-.17.6-.53.6-1.08 0-.58-.176-1.065-.526-1.455-.34-.4-.745-.71-1.215-.93a16.49 16.49 0 0 0-1.725-.72c-.55-.19-.96-.355-1.23-.495-.26-.15-.39-.315-.39-.495 0-.13.065-.23.195-.3.13-.07.36-.17.69-.3.45-.15.8-.31 1.05-.48.26-.18.39-.43.39-.75 0-.47-.285-.83-.855-1.08-.57-.26-1.21-.39-1.92-.39-.2 0-.44.02-.72.06.26 1.68.44 3.095.54 4.245.1 1.14.17 2.465.21 3.975.14.14.495.245 1.065.315s1.28.11 2.13.12Zm84.967 3.14c0-.16.013-.28.04-.36.04-.093.127-.14.26-.14.12 0 .253.027.4.08.16.053.313.113.46.18.373.16.707.28 1 .36a4.6 4.6 0 0 0 1.14.12c1.653 0 2.893-.393 3.72-1.18.84-.787 1.26-1.813 1.26-3.08 0-1.133-.32-2.127-.96-2.98a6.713 6.713 0 0 0-2.44-2.04 8.22 8.22 0 0 0-2.98-.88l1.14 8.46c0 .227-.033.413-.1.56-.053.147-.187.22-.4.22-.053.027-.153-.333-.3-1.08-.147-.747-.347-1.847-.6-3.3a183.37 183.37 0 0 0-.68-3.76c-.16-.827-.287-1.3-.38-1.42-1.107 0-2.013.06-2.72.18-.706.107-1.246.233-1.62.38-.373.147-.526.22-.46.22a.256.256 0 0 1-.14-.12 1.124 1.124 0 0 1-.06-.28 6.78 6.78 0 0 0-.06-.26c0-.32.287-.573.86-.76a8.809 8.809 0 0 1 1.8-.38c.64-.067 1.067-.1 1.28-.1 1.427 0 2.913.293 4.46.88 1.547.573 2.847 1.42 3.9 2.54s1.58 2.447 1.58 3.98c0 1.147-.287 2.127-.86 2.94a5.422 5.422 0 0 1-2.26 1.82c-.92.413-1.907.62-2.96.62-.853 0-1.62-.133-2.3-.4-.68-.267-1.02-.607-1.02-1.02Zm94.841-7.304c-.69 0-1.28-.19-1.77-.57-.49-.38-.865-.9-1.125-1.56-.25-.66-.375-1.41-.375-2.25 0-.94.22-1.83.66-2.67.44-.85 1.015-1.53 1.725-2.04.72-.52 1.465-.78 2.235-.78.65 0 1.15.145 1.5.435.35.29.525.63.525 1.02 0 .23-.07.44-.21.63-.13.19-.32.335-.57.435a.673.673 0 0 1-.045-.285c0-.12.015-.24.045-.36.02-.16.03-.275.03-.345 0-.1-.015-.185-.045-.255-.14-.35-.52-.525-1.14-.525-.17 0-.37.015-.6.045-.53.07-1.055.335-1.575.795a5.22 5.22 0 0 0-1.275 1.695 4.727 4.727 0 0 0-.495 2.085c0 .62.1 1.21.3 1.77.21.55.51.995.9 1.335.39.34.855.51 1.395.51.7 0 1.28-.085 1.74-.255.47-.17.93-.43 1.38-.78.05-.04.105-.06.165-.06.11 0 .185.065.225.195.05.24-.11.5-.48.78s-.85.52-1.44.72c-.59.19-1.15.285-1.68.285Z"/>
  <path stroke="#fff" stroke-dasharray="1 1" d="m98 99.5 4.443-81.84M185 100 58 60m85.5-1.5L20 99.629"/>
  <path fill="gold" d="M134.369 108.338a.5.5 0 0 0-.029-.706l-3.309-3.05a.5.5 0 1 0-.677.736l2.941 2.71-2.711 2.942a.5.5 0 1 0 .736.677l3.049-3.309Zm-35.343-34.68c.245.735 2.763 9.674 8.304 18.3 5.533 8.613 14.173 17.052 26.692 16.541l-.041-.999c-11.981.489-20.343-7.572-25.81-16.083-5.459-8.499-7.941-17.309-8.197-18.075l-.948.316Z"/>
  <circle cx="99.5" cy="73.5" r="1.5" fill="#fff"/>
  <path fill="#fff" d="M108 8a9.3 9.3 0 0 1 .319-2.38c.083-.3.202-.593.357-.88.154-.287.276-.51.366-.67.09-.16.225-.333.405-.52.18-.187.287-.3.319-.34.032-.04.112-.11.241-.21h.164c.09 0 .135.03.135.09 0 .02-.055.09-.164.21a4.63 4.63 0 0 0-.396.53c-.154.233-.311.52-.472.86-.161.34-.296.8-.405 1.38-.11.58-.164 1.223-.164 1.93 0 .707.054 1.347.164 1.92.109.573.241 1.037.395 1.39.154.353.312.64.473.86.161.22.296.397.405.53.109.133.164.203.164.21 0 .06-.048.09-.145.09h-.154l-.27-.24c-.605-.567-1.045-1.273-1.322-2.12A8.465 8.465 0 0 1 108 8Zm3.347-.39c.045-.28.219-.603.521-.97.302-.367.675-.553 1.119-.56.225 0 .431.06.617.18.187.12.325.27.415.45.27-.42.595-.63.974-.63.238 0 .444.073.618.22a.764.764 0 0 1 .27.59c0 .193-.045.35-.135.47-.09.12-.177.193-.261.22a.736.736 0 0 1-.222.04.416.416 0 0 1-.299-.11.382.382 0 0 1-.115-.29c0-.307.16-.517.482-.63-.071-.087-.2-.13-.386-.13a.603.603 0 0 0-.183.02c-.245.107-.425.327-.54.66-.386 1.473-.579 2.333-.579 2.58 0 .187.051.32.154.4a.54.54 0 0 0 .338.12c.238 0 .472-.11.704-.33.231-.22.389-.49.473-.81.019-.067.038-.103.057-.11a.905.905 0 0 1 .155-.02h.038c.097 0 .145.027.145.08 0 .007-.006.043-.019.11a2.23 2.23 0 0 1-.598 1.01c-.296.293-.64.44-1.032.44-.451 0-.791-.21-1.023-.63-.264.413-.566.62-.907.62h-.057c-.316 0-.541-.087-.676-.26a.938.938 0 0 1-.212-.55.74.74 0 0 1 .183-.52.571.571 0 0 1 .434-.2c.277 0 .415.14.415.42 0 .133-.038.25-.116.35a.661.661 0 0 1-.221.2.557.557 0 0 1-.126.05l-.029.01c0 .007.02.02.058.04.039.02.09.043.154.07a.371.371 0 0 0 .184.03c.231 0 .431-.15.598-.45.058-.107.132-.333.222-.68a63.822 63.822 0 0 0 .424-1.74c.032-.18.048-.31.048-.39 0-.187-.048-.32-.144-.4a.501.501 0 0 0-.328-.12c-.258 0-.499.107-.724.32a1.719 1.719 0 0 0-.472.82c-.013.06-.029.093-.049.1a.868.868 0 0 1-.154.02h-.135c-.039-.04-.058-.077-.058-.11Zm6.469.304-.089.035a1.887 1.887 0 0 1-.273.07c-.118.024-.25.04-.395.05h-.13v-.325h.13a2.15 2.15 0 0 0 .593-.106c.182-.061.309-.118.382-.17.073-.052.136-.104.191-.155.009-.015.036-.022.082-.022a.19.19 0 0 1 .116.043v2.114l.007 2.12a.27.27 0 0 0 .081.064.8.8 0 0 0 .164.029c.086.01.227.014.423.014h.177V12h-.075c-.095-.014-.457-.021-1.084-.021-.618 0-.975.007-1.071.021h-.082v-.325h.437c.072 0 .129-.003.17-.007a.63.63 0 0 0 .109-.021.385.385 0 0 1 .055-.015c.004 0 .018-.011.041-.035.023-.024.036-.033.041-.028V7.914Zm3.193 2.236V9.9a.64.64 0 0 1 .154-.43.519.519 0 0 1 .415-.18c.18 0 .341.084.482.25.142.167.216.46.222.88 0 .234-.029.46-.087.68-.058.22-.125.41-.202.57-.078.16-.161.297-.251.41-.09.114-.167.204-.232.27-.064.067-.106.097-.125.09-.026 0-.068-.03-.125-.09-.058-.06-.087-.103-.087-.13 0-.026.035-.08.106-.16s.151-.18.241-.3.174-.286.251-.5c.077-.213.128-.456.154-.73v-.12l-.01.01a.29.29 0 0 1-.048.02.264.264 0 0 0-.058.03.151.151 0 0 1-.086.02.67.67 0 0 0-.116.01.565.565 0 0 1-.425-.17l-.173-.18Zm3.739-2.52c0-.094.048-.254.144-.48a2.79 2.79 0 0 1 .463-.71c.212-.247.45-.367.714-.36.264 0 .476.076.637.23.16.153.244.366.25.64a1.393 1.393 0 0 1-.028.21c0 .02-.052.173-.155.46-.103.286-.209.61-.318.97-.109.36-.161.646-.154.86 0 .286.045.486.135.6.09.113.225.173.405.18a.82.82 0 0 0 .414-.11c.129-.073.229-.15.3-.23.07-.08.157-.19.26-.33a20.108 20.108 0 0 0 .183-.79c.058-.267.119-.514.183-.74.245-1 .38-1.524.406-1.57a.426.426 0 0 1 .414-.27.29.29 0 0 1 .203.07.555.555 0 0 1 .106.12c.019.033.026.063.019.09 0 .086-.157.786-.472 2.1-.315 1.313-.495 2.033-.54 2.16a2.59 2.59 0 0 1-.936 1.32c-.444.326-.888.493-1.331.5-.29 0-.544-.074-.762-.22-.219-.147-.328-.367-.328-.66a.9.9 0 0 1 .067-.37.47.47 0 0 1 .184-.22 1.32 1.32 0 0 1 .192-.1.454.454 0 0 1 .164-.03c.283 0 .425.14.425.42 0 .133-.039.25-.116.35a.652.652 0 0 1-.347.25l-.029.01c.013.033.074.073.183.12.11.046.219.07.328.07h.077c.11 0 .193-.007.251-.02.212-.06.408-.187.589-.38.18-.194.318-.4.414-.62.097-.22.171-.407.222-.56.052-.153.077-.254.077-.3l-.058.04a2.248 2.248 0 0 1-.183.11 2.063 2.063 0 0 1-.251.12c-.128.033-.254.05-.376.05-.296 0-.556-.073-.781-.22-.225-.147-.373-.383-.444-.71a3.196 3.196 0 0 1-.009-.31c0-.38.112-.877.337-1.49.225-.614.338-1.004.338-1.17v-.14c0-.02-.013-.044-.039-.07a.14.14 0 0 0-.106-.04h-.039a.556.556 0 0 0-.405.19 1.586 1.586 0 0 0-.289.41 2.716 2.716 0 0 0-.164.42 1.018 1.018 0 0 1-.077.22c-.013.013-.064.02-.155.02h-.135c-.038-.04-.057-.07-.057-.09Zm5.976.284-.088.035a1.923 1.923 0 0 1-.273.07 3.03 3.03 0 0 1-.396.05h-.129v-.325h.129c.214-.01.412-.045.594-.106s.309-.118.382-.17c.072-.052.136-.104.191-.155.009-.015.036-.022.081-.022.041 0 .08.015.116.043v2.114l.007 2.12a.272.272 0 0 0 .082.064c.023.01.077.02.164.029.086.01.227.014.423.014h.177V12h-.075c-.096-.014-.457-.021-1.084-.021-.619 0-.976.007-1.071.021h-.082v-.325h.436c.073 0 .13-.003.171-.007a.648.648 0 0 0 .109-.021.385.385 0 0 1 .055-.015c.004 0 .018-.011.041-.035.022-.024.036-.033.04-.028V7.914Zm3.02-4.904.038-.01h.212l.27.24c.605.567 1.045 1.273 1.322 2.12.276.847.415 1.727.415 2.64 0 .453-.032.89-.097 1.31a8.72 8.72 0 0 1-.222 1.07 4.516 4.516 0 0 1-.357.88 17.34 17.34 0 0 1-.366.67c-.09.153-.222.323-.396.51a29.9 29.9 0 0 1-.308.33 2.933 2.933 0 0 1-.222.19l-.039.04h-.222c-.019 0-.035-.01-.048-.03a.25.25 0 0 1-.029-.09 3.62 3.62 0 0 0 .106-.13c.997-1.073 1.496-2.657 1.496-4.75s-.499-3.677-1.496-4.75a3.588 3.588 0 0 0-.106-.13c0-.053.016-.09.049-.11ZM21 108.5c0-.414.032-.807.093-1.179a8.02 8.02 0 0 1 .214-.963c.081-.27.196-.534.345-.792.148-.258.266-.459.353-.603.087-.144.217-.3.39-.468.174-.168.277-.27.308-.306.03-.036.108-.099.232-.189h.158c.087 0 .13.027.13.081 0 .018-.052.081-.158.189a4.117 4.117 0 0 0-.381.477c-.149.21-.3.468-.456.774-.155.306-.285.72-.39 1.242a8.8 8.8 0 0 0-.159 1.737c0 .636.053 1.212.159 1.728.105.516.232.933.381 1.251.149.318.3.576.456.774.155.198.285.357.39.477.106.12.159.183.159.189 0 .054-.047.081-.14.081h-.148l-.261-.216a4.43 4.43 0 0 1-1.275-1.908 7.143 7.143 0 0 1-.4-2.376Zm3.228-.351c.043-.252.21-.543.502-.873.292-.33.651-.498 1.08-.504.216 0 .415.054.595.162.18.108.313.243.4.405.26-.378.573-.567.939-.567a.93.93 0 0 1 .595.198.667.667 0 0 1 .26.531.655.655 0 0 1-.13.423.551.551 0 0 1-.25.198.761.761 0 0 1-.215.036.418.418 0 0 1-.288-.099.332.332 0 0 1-.112-.261c0-.276.155-.465.465-.567-.068-.078-.192-.117-.372-.117-.08 0-.14.006-.176.018-.236.096-.41.294-.521.594-.372 1.326-.558 2.1-.558 2.322 0 .168.05.288.148.36.1.072.208.108.326.108.23 0 .456-.099.679-.297.223-.198.375-.441.456-.729.018-.06.037-.093.056-.099a.912.912 0 0 1 .148-.018h.038c.093 0 .14.024.14.072 0 .006-.007.039-.02.099a1.98 1.98 0 0 1-.576.909 1.42 1.42 0 0 1-.995.396c-.434 0-.763-.189-.986-.567-.255.372-.546.558-.875.558h-.056c-.303 0-.52-.078-.65-.234a.808.808 0 0 1-.205-.495.64.64 0 0 1 .177-.468.567.567 0 0 1 .418-.18c.267 0 .4.126.4.378a.48.48 0 0 1-.112.315.622.622 0 0 1-.334.225l-.028.009c0 .006.018.018.055.036.038.018.087.039.15.063a.37.37 0 0 0 .176.027c.223 0 .415-.135.577-.405.056-.096.127-.3.214-.612a54.332 54.332 0 0 0 .409-1.566c.03-.162.046-.279.046-.351 0-.168-.046-.288-.14-.36a.503.503 0 0 0-.315-.108c-.248 0-.48.096-.698.288a1.527 1.527 0 0 0-.456.738c-.012.054-.028.084-.046.09a.912.912 0 0 1-.149.018h-.13c-.037-.036-.056-.069-.056-.099Zm5.554 1.221a.366.366 0 0 1-.283-.114.4.4 0 0 1-.105-.28c0-.301.116-.562.348-.783.232-.22.522-.331.868-.331.4 0 .732.119 1 .357.267.237.403.545.407.922 0 .183-.043.357-.131.522-.088.166-.193.31-.316.433-.122.123-.298.28-.526.471a18.01 18.01 0 0 0-.657.585l-.388.356.5.007c.688 0 1.054-.011 1.098-.032.03-.009.083-.197.157-.566v-.02h.263v.02c-.004.012-.033.205-.085.579-.053.373-.086.568-.099.585v.019h-2.44v-.197a.16.16 0 0 1 .04-.096 4.64 4.64 0 0 1 .197-.222l.33-.357c.039-.042.113-.121.223-.235l.223-.235.191-.21c.088-.098.149-.17.184-.217.035-.046.086-.11.151-.191.066-.08.112-.148.139-.203.026-.055.059-.117.098-.185a.824.824 0 0 0 .086-.203 5.92 5.92 0 0 0 .046-.191c.013-.06.02-.13.02-.21a1.11 1.11 0 0 0-.224-.694c-.15-.195-.362-.293-.638-.293a.672.672 0 0 0-.381.109.778.778 0 0 0-.23.21.45.45 0 0 0-.066.12c0 .005.01.007.032.007.08 0 .16.03.244.089.083.059.125.157.125.293a.368.368 0 0 1-.105.267.414.414 0 0 1-.296.114Zm3.762 1.065v-.225c0-.15.05-.279.15-.387a.517.517 0 0 1 .4-.162c.173 0 .328.075.464.225.137.15.208.414.214.792 0 .21-.028.414-.084.612-.055.198-.12.369-.195.513a1.945 1.945 0 0 1-.242.369 3.536 3.536 0 0 1-.223.243c-.062.06-.102.087-.12.081-.026 0-.066-.027-.122-.081-.056-.054-.083-.093-.083-.117 0-.024.034-.072.102-.144.068-.072.146-.162.232-.27.087-.108.168-.258.242-.45a2.51 2.51 0 0 0 .15-.657v-.108l-.01.009a.368.368 0 0 1-.047.018.239.239 0 0 0-.056.027.156.156 0 0 1-.083.018.7.7 0 0 0-.112.009.564.564 0 0 1-.41-.153l-.167-.162Zm3.606-2.268c0-.084.046-.228.14-.432.092-.204.241-.417.446-.639.205-.222.434-.33.688-.324.254 0 .46.069.614.207.155.138.236.33.242.576a1.169 1.169 0 0 1-.028.189c0 .018-.05.156-.149.414a18.62 18.62 0 0 0-.307.873c-.105.324-.155.582-.149.774 0 .258.044.438.13.54.087.102.218.156.391.162a.839.839 0 0 0 .4-.099 1.12 1.12 0 0 0 .289-.207c.068-.072.151-.171.25-.297a16.25 16.25 0 0 0 .177-.711c.056-.24.115-.462.177-.666.236-.9.366-1.371.39-1.413a.414.414 0 0 1 .4-.243c.081 0 .147.021.196.063a.48.48 0 0 1 .102.108c.02.03.025.057.02.081 0 .078-.153.708-.457 1.89-.304 1.182-.477 1.83-.52 1.944a2.338 2.338 0 0 1-.903 1.188c-.428.294-.856.444-1.283.45-.28 0-.524-.066-.735-.198-.211-.132-.316-.33-.316-.594 0-.132.021-.243.065-.333a.436.436 0 0 1 .176-.198c.075-.042.137-.072.186-.09a.46.46 0 0 1 .159-.027c.272 0 .409.126.409.378a.48.48 0 0 1-.112.315.621.621 0 0 1-.335.225l-.028.009c.013.03.072.066.177.108a.85.85 0 0 0 .316.063h.075c.105 0 .186-.006.242-.018.204-.054.393-.168.567-.342a1.99 1.99 0 0 0 .4-.558c.093-.198.164-.366.214-.504.05-.138.074-.228.074-.27l-.055.036a2.409 2.409 0 0 1-.42.207 1.54 1.54 0 0 1-.362.045 1.42 1.42 0 0 1-.753-.198c-.217-.132-.36-.345-.428-.639a2.507 2.507 0 0 1-.01-.279c0-.342.11-.789.326-1.341.217-.552.326-.903.326-1.053v-.126c0-.018-.013-.039-.038-.063a.14.14 0 0 0-.102-.036h-.037a.55.55 0 0 0-.39.171 1.419 1.419 0 0 0-.28.369c-.068.132-.12.258-.158.378a.86.86 0 0 1-.074.198c-.013.012-.062.018-.15.018h-.13c-.036-.036-.055-.063-.055-.081Zm5.079 1.203a.366.366 0 0 1-.283-.114.4.4 0 0 1-.105-.28c0-.301.116-.562.348-.783.233-.22.522-.331.868-.331.4 0 .732.119 1 .357a1.2 1.2 0 0 1 .276 1.444 1.77 1.77 0 0 1-.316.433c-.122.123-.298.28-.526.471a18.01 18.01 0 0 0-.657.585l-.388.356.5.007c.688 0 1.054-.011 1.098-.032.03-.009.083-.197.158-.566v-.02h.263v.02c-.005.012-.033.205-.086.579-.052.373-.085.568-.098.585v.019h-2.44v-.197a.16.16 0 0 1 .04-.096 4.58 4.58 0 0 1 .197-.222c.127-.136.236-.255.328-.357l.224-.235.223-.235.191-.21c.088-.098.15-.17.184-.217.035-.046.086-.11.152-.191a1.14 1.14 0 0 0 .138-.203c.026-.055.059-.117.098-.185a.82.82 0 0 0 .086-.203c.017-.068.033-.132.046-.191.013-.06.02-.13.02-.21a1.11 1.11 0 0 0-.224-.694c-.149-.195-.362-.293-.638-.293a.672.672 0 0 0-.381.109.777.777 0 0 0-.23.21.446.446 0 0 0-.066.12c0 .005.01.007.033.007.079 0 .16.03.243.089.083.059.125.157.125.293a.367.367 0 0 1-.105.267.413.413 0 0 1-.296.114Zm3.595-5.361.037-.009h.205l.26.216a4.43 4.43 0 0 1 1.274 1.908c.267.762.4 1.554.4 2.376 0 .408-.03.801-.093 1.179a7.539 7.539 0 0 1-.214.963c-.08.264-.195.528-.344.792-.148.264-.266.465-.353.603a2.755 2.755 0 0 1-.382.459l-.297.297c-.031.03-.102.087-.214.171l-.037.036h-.214c-.019 0-.034-.009-.047-.027a.207.207 0 0 1-.028-.081l.103-.117c.96-.966 1.441-2.391 1.441-4.275 0-1.884-.48-3.309-1.441-4.275a4.745 4.745 0 0 0-.103-.117c0-.048.016-.081.047-.099ZM202 104c0-.46.035-.897.104-1.31.069-.413.148-.77.238-1.07.089-.3.217-.593.382-.88.165-.287.296-.51.393-.67.096-.16.241-.333.434-.52s.306-.3.341-.34c.034-.04.12-.11.258-.21h.176c.096 0 .145.03.145.09 0 .02-.059.09-.176.21a4.54 4.54 0 0 0-.424.53c-.165.233-.334.52-.506.86-.173.34-.317.8-.434 1.38a9.706 9.706 0 0 0-.176 1.93c0 .707.058 1.347.176 1.92.117.573.258 1.037.423 1.39.166.353.335.64.507.86.172.22.317.397.434.53.117.133.176.203.176.21 0 .06-.052.09-.156.09h-.165l-.289-.24a4.917 4.917 0 0 1-1.416-2.12A7.946 7.946 0 0 1 202 104Zm3.586-.39c.049-.28.235-.603.558-.97a1.57 1.57 0 0 1 1.199-.56c.241 0 .462.06.662.18.199.12.348.27.444.45.289-.42.637-.63 1.044-.63.255 0 .475.073.661.22a.742.742 0 0 1 .29.59.73.73 0 0 1-.145.47c-.096.12-.189.193-.279.22a.838.838 0 0 1-.238.04.466.466 0 0 1-.32-.11.367.367 0 0 1-.124-.29c0-.307.172-.517.517-.63-.076-.087-.214-.13-.414-.13a.708.708 0 0 0-.196.02c-.262.107-.455.327-.579.66-.413 1.473-.62 2.333-.62 2.58 0 .187.055.32.165.4.111.08.231.12.362.12.255 0 .507-.11.755-.33.248-.22.416-.49.506-.81.021-.067.041-.103.062-.11.021-.007.076-.013.165-.02h.042c.103 0 .155.027.155.08 0 .007-.007.043-.021.11-.11.38-.324.717-.641 1.01-.317.293-.685.44-1.106.44-.482 0-.847-.21-1.095-.63-.283.413-.606.62-.972.62h-.062c-.337 0-.578-.087-.723-.26a.897.897 0 0 1-.227-.55.71.71 0 0 1 .196-.52.631.631 0 0 1 .465-.2c.296 0 .444.14.444.42 0 .133-.041.25-.124.35a.677.677 0 0 1-.372.25l-.031.01c0 .007.021.02.062.04.042.02.097.043.166.07a.408.408 0 0 0 .196.03c.248 0 .462-.15.641-.45.062-.107.141-.333.238-.68a61.975 61.975 0 0 0 .454-1.74c.035-.18.052-.31.052-.39 0-.187-.052-.32-.155-.4a.56.56 0 0 0-.351-.12c-.276 0-.534.107-.776.32a1.702 1.702 0 0 0-.506.82c-.014.06-.031.093-.052.1a.988.988 0 0 1-.165.02h-.145c-.041-.04-.062-.077-.062-.11Zm6.303 1.117a.394.394 0 0 1-.307-.12.475.475 0 0 1-.117-.311c0-.26.117-.491.351-.693.233-.203.516-.304.847-.304.171 0 .278.002.322.007.36.056.635.181.825.374.19.194.288.403.293.63 0 .245-.083.483-.249.714a1.388 1.388 0 0 1-.687.502l-.022.014c0 .005.022.012.066.021.044.009.115.031.212.064.097.033.19.082.278.148.399.25.599.58.599.99 0 .372-.151.698-.453.976-.302.278-.685.417-1.147.417-.39 0-.726-.102-1.009-.304-.282-.203-.423-.46-.423-.771 0-.132.043-.238.131-.318a.494.494 0 0 1 .329-.127c.136 0 .248.042.336.127a.424.424 0 0 1 .132.318.455.455 0 0 1-.074.255.256.256 0 0 1-.08.084 1.038 1.038 0 0 1-.088.057.212.212 0 0 1-.073.028.163.163 0 0 0-.058.022l-.029.007c.248.212.55.318.906.318.268 0 .47-.125.606-.375.083-.155.124-.394.124-.714v-.141c0-.448-.156-.747-.467-.898-.073-.029-.222-.045-.446-.05l-.307-.007-.022-.014c-.01-.014-.014-.052-.014-.113 0-.085.019-.127.058-.127.136 0 .278-.012.424-.036.165-.023.316-.122.453-.297.136-.174.204-.438.204-.792v-.056c0-.269-.085-.455-.255-.559a.645.645 0 0 0-.344-.099c-.156 0-.299.026-.431.078a.776.776 0 0 0-.277.163l-.081.085h.022a.904.904 0 0 0 .059.014.169.169 0 0 1 .073.035.398.398 0 0 0 .087.05.13.13 0 0 1 .073.077.441.441 0 0 0 .059.106c.024.033.031.081.022.142a.412.412 0 0 1-.103.276c-.068.08-.177.122-.328.127Zm4.049 1.423v-.25c0-.167.055-.31.165-.43a.577.577 0 0 1 .445-.18c.193 0 .365.083.516.25.152.167.231.46.238.88 0 .233-.031.46-.093.68-.062.22-.134.41-.217.57a2.14 2.14 0 0 1-.269.41 3.945 3.945 0 0 1-.248.27c-.068.067-.113.097-.134.09-.028 0-.072-.03-.134-.09-.062-.06-.093-.103-.093-.13 0-.027.038-.08.113-.16.076-.08.162-.18.259-.3.096-.12.186-.287.268-.5.083-.213.138-.457.166-.73v-.12l-.011.01c-.013.007-.031.013-.051.02a.272.272 0 0 0-.062.03.178.178 0 0 1-.093.02.732.732 0 0 0-.124.01.628.628 0 0 1-.455-.17l-.186-.18Zm4.006-2.52c0-.094.052-.254.155-.48.104-.227.269-.464.496-.71.228-.247.483-.367.765-.36.283 0 .51.076.682.23.173.153.262.366.269.64a1.346 1.346 0 0 1-.031.21c0 .02-.055.173-.165.46-.111.286-.224.61-.341.97-.118.36-.173.646-.166.86 0 .286.048.486.145.6.096.113.241.173.434.18a.933.933 0 0 0 .444-.11c.138-.074.245-.15.321-.23.076-.08.169-.19.279-.33a3.2 3.2 0 0 1 .051-.2c.035-.127.083-.324.145-.59.062-.267.128-.514.197-.74.261-1 .406-1.524.434-1.57a.459.459 0 0 1 .444-.27c.09 0 .162.023.217.07a.549.549 0 0 1 .114.12c.02.033.027.063.02.09 0 .086-.168.786-.506 2.1-.338 1.313-.531 2.033-.579 2.16a2.602 2.602 0 0 1-1.002 1.32c-.476.326-.951.493-1.426.5a1.51 1.51 0 0 1-.817-.22c-.234-.147-.351-.367-.351-.66a.85.85 0 0 1 .072-.37.483.483 0 0 1 .196-.22c.083-.047.152-.08.207-.1a.512.512 0 0 1 .176-.03c.303 0 .455.14.455.42 0 .133-.042.25-.124.35a.7.7 0 0 1-.373.25l-.031.01c.014.033.08.073.197.12.117.046.234.07.351.07h.083c.117 0 .207-.007.269-.02.227-.06.437-.187.63-.38.193-.194.341-.4.444-.62.104-.22.183-.407.238-.56a1.23 1.23 0 0 0 .083-.3l-.062.04a3.25 3.25 0 0 1-.465.23 1.73 1.73 0 0 1-.403.05c-.317 0-.596-.074-.837-.22-.242-.147-.4-.384-.476-.71a2.792 2.792 0 0 1-.01-.31c0-.38.12-.877.362-1.49.241-.614.361-1.004.361-1.17v-.14c0-.02-.014-.044-.041-.07a.157.157 0 0 0-.114-.04h-.041a.61.61 0 0 0-.434.19 1.567 1.567 0 0 0-.31.41 2.502 2.502 0 0 0-.176.42.941.941 0 0 1-.083.22c-.013.013-.069.02-.165.02h-.145c-.041-.04-.062-.07-.062-.09Zm5.775 1.096a.394.394 0 0 1-.307-.12.473.473 0 0 1-.117-.311c0-.259.117-.49.351-.693a1.25 1.25 0 0 1 .847-.304c.171 0 .278.003.322.007.36.057.635.182.825.375.19.193.288.403.293.629 0 .245-.083.483-.249.714a1.382 1.382 0 0 1-.687.502l-.022.014c0 .005.022.012.066.022.044.009.115.03.212.063.098.033.19.083.278.149.399.249.599.579.599.989 0 .373-.151.698-.453.976-.302.278-.684.417-1.147.417-.39 0-.726-.101-1.009-.304-.282-.202-.423-.459-.423-.77 0-.132.043-.238.131-.319a.499.499 0 0 1 .665 0 .425.425 0 0 1 .132.319.448.448 0 0 1-.022.141.698.698 0 0 1-.051.113.284.284 0 0 1-.081.085 1.367 1.367 0 0 1-.088.057.234.234 0 0 1-.073.028.186.186 0 0 0-.058.021l-.029.007c.248.212.55.318.906.318.268 0 .47-.125.606-.374.083-.156.124-.394.124-.715v-.141c0-.448-.155-.747-.467-.898-.073-.028-.222-.045-.446-.049l-.307-.007-.022-.015c-.009-.014-.014-.051-.014-.113 0-.084.019-.127.058-.127.137 0 .278-.012.424-.035.166-.024.317-.123.453-.297.136-.175.205-.439.205-.792v-.057c0-.268-.086-.454-.256-.558a.645.645 0 0 0-.344-.099c-.155 0-.299.026-.431.078a.791.791 0 0 0-.358.247h.022c.015.005.034.01.059.014a.184.184 0 0 1 .073.036.397.397 0 0 0 .087.049c.034.014.059.04.073.078a.478.478 0 0 0 .059.106c.024.033.032.08.022.141a.414.414 0 0 1-.102.276c-.069.08-.178.123-.329.127Zm3.863-5.716.041-.01h.228l.289.24a4.915 4.915 0 0 1 1.416 2.12c.296.847.444 1.727.444 2.64 0 .453-.034.89-.103 1.31-.069.42-.148.777-.238 1.07a4.411 4.411 0 0 1-.382.88c-.165.293-.296.517-.393.67a3.07 3.07 0 0 1-.424.51l-.33.33a3.333 3.333 0 0 1-.238.19l-.041.04h-.238c-.021 0-.038-.01-.052-.03a.229.229 0 0 1-.031-.09l.114-.13c1.068-1.073 1.602-2.657 1.602-4.75s-.534-3.677-1.602-4.75a4.81 4.81 0 0 0-.114-.13c0-.053.017-.09.052-.11Z"/>
  <mask id="a" fill="#fff">
    <path d="M95.75 26.281a3.279 3.279 0 0 0 5.69 2.576l-.574-.519a2.506 2.506 0 0 1-4.347-1.969l-.768-.088Z"/>
  </mask>
  <path stroke="pink" stroke-width="2" d="M95.75 26.281a3.279 3.279 0 0 0 5.69 2.576l-.574-.519a2.506 2.506 0 0 1-4.347-1.969l-.768-.088Z" mask="url(#a)"/>
  <mask id="b" fill="#fff">
    <path d="M93.542 27.739a4.773 4.773 0 0 0 8.278 3.749l-.427-.388a4.2 4.2 0 0 1-4.84 1.006 4.196 4.196 0 0 1-2.438-4.302l-.573-.065Z"/>
  </mask>
  <path stroke="pink" d="M93.542 27.739a4.773 4.773 0 0 0 8.278 3.749l-.427-.388a4.2 4.2 0 0 1-4.84 1.006 4.196 4.196 0 0 1-2.438-4.302l-.573-.065Z" mask="url(#b)"/>
  <mask id="c" fill="#fff">
    <path d="M48.186 99.517a4.773 4.773 0 0 0-1.105-9.02l-.109.566a4.195 4.195 0 0 1 .972 7.93l.242.524Z"/>
  </mask>
  <path stroke="#EC00F1" d="M48.186 99.517a4.773 4.773 0 0 0-1.105-9.02l-.109.566a4.195 4.195 0 0 1 .972 7.93l.242.524Z" mask="url(#c)"/>
  <mask id="d" fill="#fff">
    <path d="M102.519 28.175a3.28 3.28 0 0 0 5.783-2.357l-.771.059a2.51 2.51 0 0 1-1.553 2.511 2.507 2.507 0 0 1-2.867-.71l-.592.497Z"/>
  </mask>
  <path stroke="pink" stroke-width="2" d="M102.519 28.175a3.28 3.28 0 0 0 5.783-2.357l-.771.059a2.51 2.51 0 0 1-1.553 2.511 2.507 2.507 0 0 1-2.867-.71l-.592.497Z" mask="url(#d)"/>
  <mask id="e" fill="#fff">
    <path d="M102.057 30.78a4.776 4.776 0 0 0 5.459 1.354 4.774 4.774 0 0 0 2.957-4.783l-.575.044a4.195 4.195 0 0 1-7.399 3.015l-.442.37Z"/>
  </mask>
  <path stroke="pink" d="M102.057 30.78a4.776 4.776 0 0 0 5.459 1.354 4.774 4.774 0 0 0 2.957-4.783l-.575.044a4.195 4.195 0 0 1-7.399 3.015l-.442.37Z" mask="url(#e)"/>
  <mask id="f" fill="#fff">
    <path d="M153.761 90.422a4.773 4.773 0 0 0 .422 9.079l.151-.557a4.198 4.198 0 0 1-3.095-3.855 4.195 4.195 0 0 1 2.724-4.126l-.202-.54Z"/>
  </mask>
  <path stroke="#56FFB8" d="M153.761 90.422a4.773 4.773 0 0 0 .422 9.079l.151-.557a4.198 4.198 0 0 1-3.095-3.855 4.195 4.195 0 0 1 2.724-4.126l-.202-.54Z" mask="url(#f)"/>
  <mask id="g" fill="#fff">
    <path d="M169.004 85.212a4.772 4.772 0 0 0-2.118 8.838l.3-.493a4.195 4.195 0 0 1 1.862-7.77l-.044-.575Z"/>
  </mask>
  <path stroke="#56FFB8" d="M169.004 85.212a4.772 4.772 0 0 0-2.118 8.838l.3-.493a4.195 4.195 0 0 1 1.862-7.77l-.044-.575Z" mask="url(#g)"/>
  <mask id="h" fill="#fff">
    <path d="M151.269 89.161a5.225 5.225 0 0 0-1.14 9.884l.261-.575a4.592 4.592 0 0 1 1.002-8.69l-.123-.619Z"/>
  </mask>
  <path stroke="#56FFB8" d="M151.269 89.161a5.225 5.225 0 0 0-1.14 9.884l.261-.575a4.592 4.592 0 0 1 1.002-8.69l-.123-.619Z" mask="url(#h)"/>
  <mask id="i" fill="#fff">
    <path d="M166.961 83.308a5.227 5.227 0 0 0-5.531 6.414 5.226 5.226 0 0 0 1.688 2.763l.41-.48a4.596 4.596 0 0 1 .607-7.421 4.593 4.593 0 0 1 2.772-.647l.054-.63Z"/>
  </mask>
  <path stroke="#56FFB8" d="M166.961 83.308a5.227 5.227 0 0 0-5.531 6.414 5.226 5.226 0 0 0 1.688 2.763l.41-.48a4.596 4.596 0 0 1 .607-7.421 4.593 4.593 0 0 1 2.772-.647l.054-.63Z" mask="url(#i)"/>
  <mask id="j" fill="#fff">
    <path d="M157.207 92.137a3.87 3.87 0 0 0-.887 7.318l.381-.83a2.955 2.955 0 0 1-1.699-3.043 2.957 2.957 0 0 1 2.377-2.548l-.172-.897Z"/>
  </mask>
  <path stroke="#56FFB8" stroke-width="2" d="M157.207 92.137a3.87 3.87 0 0 0-.887 7.318l.381-.83a2.955 2.955 0 0 1-1.699-3.043 2.957 2.957 0 0 1 2.377-2.548l-.172-.897Z" mask="url(#j)"/>
  <mask id="k" fill="#fff">
    <path d="M171.838 87.817a3.87 3.87 0 0 0-4.126 4.729 3.872 3.872 0 0 0 1.239 2.054l.597-.69a2.962 2.962 0 0 1-.787-3.396 2.963 2.963 0 0 1 2.993-1.788l.084-.909Z"/>
  </mask>
  <path stroke="#56FFB8" stroke-width="2" d="M171.838 87.817a3.87 3.87 0 0 0-4.126 4.729 3.872 3.872 0 0 0 1.239 2.054l.597-.69a2.962 2.962 0 0 1-.787-3.396 2.963 2.963 0 0 1 2.993-1.788l.084-.909Z" mask="url(#k)"/>
  <mask id="l" fill="#fff">
    <path d="M40.321 92.794a4.773 4.773 0 0 0-4.771-7.735l.138.56a4.196 4.196 0 0 1 4.194 6.8l.439.375Z"/>
  </mask>
  <path stroke="#EC00F1" d="M40.321 92.794a4.773 4.773 0 0 0-4.771-7.735l.138.56a4.196 4.196 0 0 1 4.194 6.8l.439.375Z" mask="url(#l)"/>
  <path fill="#fff" d="M204.008 93.3a.3.3 0 0 0 .292-.308l-.068-2.699a.3.3 0 0 0-.6.015l.061 2.4-2.4.06a.3.3 0 0 0 .015.6l2.7-.068Zm-81.016-77.6a.3.3 0 0 0-.292.308l.068 2.699a.3.3 0 0 0 .6-.015l-.06-2.4 2.399-.06a.3.3 0 0 0-.015-.6l-2.7.068Zm81.215 77.083-81-77-.414.434 81 77 .414-.434ZM88.3 6a.3.3 0 0 0-.3-.3h-2.7a.3.3 0 1 0 0 .6h2.4v2.4a.3.3 0 1 0 .6 0V6ZM.7 93a.3.3 0 0 0 .3.3h2.7a.3.3 0 1 0 0-.6H1.3v-2.4a.3.3 0 1 0-.6 0V93ZM87.788 5.788l-87 87 .424.424 87-87-.424-.424Zm-72 115a.3.3 0 0 0 0 .424l1.91 1.909a.3.3 0 0 0 .423-.424L16.424 121l1.697-1.697a.3.3 0 1 0-.424-.424l-1.91 1.909Zm177.424.424a.3.3 0 0 0 0-.424l-1.909-1.909a.3.3 0 0 0-.424.424l1.697 1.697-1.697 1.697a.3.3 0 0 0 .424.424l1.909-1.909ZM16 121.3h177v-.6H16v.6Zm151.48-73.18.77-.06c.06 0 .1.023.12.07.007.027-.103.493-.33 1.4l-.34 1.37.1-.06c.294-.18.574-.267.84-.26.427.02.754.203.98.55.107.16.19.35.25.57.067.34.06.687-.02 1.04-.1.52-.316.987-.65 1.4-.14.18-.286.33-.44.45-.293.247-.616.41-.97.49-.06.013-.153.02-.28.02a1.62 1.62 0 0 1-.29-.02 1.204 1.204 0 0 1-.79-.64 2.194 2.194 0 0 1-.19-.63c-.02-.18-.016-.397.01-.65.014-.1.194-.843.54-2.23.34-1.36.497-2.067.47-2.12-.046-.047-.19-.073-.43-.08-.16 0-.253-.023-.28-.07l-.01-.03.05-.2c.027-.127.054-.203.08-.23.02-.02.04-.03.06-.03l.75-.05Zm1.19 2.96c-.06-.027-.156-.033-.29-.02-.193.053-.39.183-.59.39a2.288 2.288 0 0 0-.3.38c-.013.013-.076.23-.19.65l-.19.77c-.133.627-.096 1.04.11 1.24.06.067.134.11.22.13.214.06.437-.017.67-.23.214-.18.387-.493.52-.94.047-.153.1-.35.16-.59.14-.567.21-.957.21-1.17 0-.14-.016-.25-.05-.33a.448.448 0 0 0-.28-.28ZM43.408 41.949c.16-.02.316-.013.47.02.4.08.646.29.74.63.04.127.04.26 0 .4a.645.645 0 0 1-.33.45c-.247.127-.454.117-.62-.03a.378.378 0 0 1-.12-.24c-.034-.18.033-.357.2-.53.033-.04.07-.07.11-.09l.06-.03-.04-.03c-.154-.093-.36-.113-.62-.06-.26.08-.49.233-.69.46-.194.233-.36.623-.5 1.17l-.04.14c-.107.44-.16.767-.16.98 0 .14.006.233.02.28a.62.62 0 0 0 .48.5c.2.053.466.03.8-.07a2.36 2.36 0 0 0 .91-.58c.12-.12.203-.173.25-.16l.14.14c.093.107.13.183.11.23-.034.06-.147.18-.34.36-.387.3-.84.487-1.36.56a2.28 2.28 0 0 1-.56.01c-.587-.073-.997-.363-1.23-.87a1.726 1.726 0 0 1-.1-.28c-.134-.507-.07-1.05.19-1.63a3.16 3.16 0 0 1 .64-.92 2.78 2.78 0 0 1 .79-.57c.266-.133.533-.213.8-.24Zm61.738 82.641.2-.01h.01c.147.007.277.04.39.1a.954.954 0 0 1 .3.22l.08.08.06-.05c.16-.153.334-.193.52-.12a.3.3 0 0 1 .19.17c.027.073.02.203-.02.39-.033.147-.136.56-.31 1.24-.24.973-.363 1.48-.37 1.52-.026.187-.03.317-.01.39.014.033.034.06.06.08.02.02.05.03.09.03a.251.251 0 0 0 .11-.02c.127-.093.257-.397.39-.91.034-.127.06-.197.08-.21.014-.013.094-.02.24-.02.147 0 .23.007.25.02.014.013.02.04.02.08s-.016.12-.05.24c-.246.84-.596 1.273-1.05 1.3a.93.93 0 0 1-.82-.35.936.936 0 0 1-.09-.13c-.013-.04-.023-.06-.03-.06l-.07.06a1.844 1.844 0 0 1-.69.41c-.433.147-.823.08-1.17-.2a.88.88 0 0 1-.11-.11c-.1-.1-.183-.22-.25-.36-.2-.407-.24-.883-.12-1.43.154-.727.5-1.327 1.04-1.8.36-.313.737-.497 1.13-.55Zm.21.47c-.273-.047-.536.083-.79.39a2.16 2.16 0 0 0-.18.28c-.1.193-.22.573-.36 1.14-.086.32-.15.6-.19.84-.026.227-.026.4 0 .52.067.233.197.367.39.4.114.02.25-.003.41-.07.24-.133.467-.357.68-.67l.05-.07.25-.99.25-1-.02-.08c-.06-.38-.21-.607-.45-.68a.082.082 0 0 0-.04-.01Z"/>
</svg>
