<svg xmlns="http://www.w3.org/2000/svg" width="175" height="54" fill="none" viewBox="0 0 175 54">
  <path stroke="gold" stroke-linecap="round" d="m1 51.032 70.186-46.15"/>
  <path fill="#fff" d="M33.001 38.386a9.425 9.425 0 0 1-.758-.783 25.181 25.181 0 0 1-1.09-1.428.214.214 0 0 1-.034-.154.194.194 0 0 1 .082-.13l.053-.034c.104.116.254.313.449.593.02.031.093.134.22.308.122.17.25.323.384.459.425-.34.728-.665.91-.975.185-.312.197-.59.036-.836-.203-.309-.505-.47-.906-.486-.4-.015-.876.158-1.426.52-.23.15-.397.322-.5.513-.02.03-.023.067-.009.114.012.043.035.1.07.171a.981.981 0 0 1 .076.178c.01.042.001.074-.03.094-.035.023-.075.014-.12-.03a4.13 4.13 0 0 1-.254-.36c-.072-.11-.055-.244.053-.404.107-.16.277-.316.511-.47.683-.449 1.26-.675 1.732-.678.473-.004.855.217 1.148.661.156.238.191.5.105.785-.086.286-.24.557-.461.815a3.58 3.58 0 0 1-.71.626c.038.042.074.08.107.113.034.034.061.064.083.088.23.23.391.416.486.56.056.086.09.162.1.228.013.064-.02.11-.1.141L33 38.386Zm34.327-21.073a.351.351 0 0 1-.147.222c-.109.072-.272.1-.488.086a12.278 12.278 0 0 1-1.047-.14 37.259 37.259 0 0 1-.367.334l-.242.217a1.886 1.886 0 0 1-1.092.416 1.991 1.991 0 0 1-.974-.206 1.835 1.835 0 0 1-.735-.647 1.99 1.99 0 0 1-.323-.835c-.038-.288-.01-.55.087-.786a1.19 1.19 0 0 1 .456-.568 2.763 2.763 0 0 1 1.32-.45c.481-.042.927.017 1.34.176.409.155.71.38.906.677.11.168.146.368.108.599a2.29 2.29 0 0 1-.257.73c.243.03.494.047.753.05.19-.002.336.005.44.02a.53.53 0 0 1 .262.105Zm-2.719.464a3.057 3.057 0 0 0 .498-.403 6.047 6.047 0 0 1-.68-.206c-.164-.071-.273-.148-.327-.23a.217.217 0 0 1-.016-.215c.066-.043.165-.047.295-.01.134.035.316.1.546.194.207.093.355.15.446.168.188-.207.315-.408.382-.604.071-.197.06-.368-.035-.512-.157-.238-.396-.424-.72-.558a2.264 2.264 0 0 0-1.091-.145 2.462 2.462 0 0 0-1.174.42c-.28.184-.431.434-.453.75-.024.312.07.63.283.953.136.24.32.418.552.534.234.109.483.152.747.129a1.62 1.62 0 0 0 .747-.265ZM17.21 49.278c-.047.03-.088.04-.123.03a.214.214 0 0 1-.089-.084 2.497 2.497 0 0 1-.203-.436 1.992 1.992 0 0 0-.201-.446c-.2-.304-.376-.521-.528-.65l-.181.119c-.16.105-.371.238-.634.4l-.553.355-.79.52.162.22c.118.18.294.385.53.615.091.096.182.196.272.299.09.096.166.19.225.279l.035.052a.208.208 0 0 1-.085.14c-.101.066-.26 0-.474-.2a4.497 4.497 0 0 1-.661-.813 5.532 5.532 0 0 1-.248-.415c-.088.052-.156.077-.202.074-.05-.007-.092-.037-.128-.092-.028-.043-.035-.08-.022-.11a.477.477 0 0 1 .117-.128l-.11-.154-.16-.28a10.14 10.14 0 0 1-.584-1.158 1.8 1.8 0 0 1-.122-.95c.046-.32.248-.599.607-.835.41-.269.874-.259 1.394.03.52.29.999.679 1.437 1.167.438.488.786.927 1.042 1.317.092.14.17.266.23.376.06.106.127.243.204.411-.015.172-.068.288-.158.347Zm-1.317-1.799c-.549-.673-1.053-1.15-1.513-1.435-.463-.287-.886-.305-1.268-.054-.284.187-.408.458-.37.813.04.348.144.682.314 1 .17.318.378.664.625 1.039l2.212-1.363Zm33.794-19.858c-.745.49-1.349.828-1.812 1.016-1.39-1.885-2.262-3.003-2.617-3.356l-.149.156c-.08.08-.156.161-.227.241a2.21 2.21 0 0 0-.217.269l-.136-.195c-.044-.067-.012-.174.097-.324.105-.153.25-.312.432-.477.183-.17.355-.309.515-.414.175-.115.397-.216.664-.302.271-.09.53-.125.775-.108.244.013.42.103.53.271.126.191.164.41.113.655-.05.24-.17.467-.364.683.382-.167.77-.272 1.167-.315a2.53 2.53 0 0 1 1.08.087c.322.1.567.277.734.53.192.293.218.58.08.861a1.86 1.86 0 0 1-.665.722Zm-.371-.233c.288-.19.49-.368.605-.532.112-.17.098-.36-.043-.575a.979.979 0 0 0-.578-.433 1.66 1.66 0 0 0-.712-.051 7.71 7.71 0 0 0-.857.161 4.595 4.595 0 0 1-.607.123c-.14.008-.233-.023-.279-.093-.033-.051-.033-.107 0-.167.032-.06.096-.159.191-.294a2.03 2.03 0 0 0 .287-.457.402.402 0 0 0-.04-.392c-.12-.183-.324-.25-.61-.202a2.134 2.134 0 0 0-.85.34 2.55 2.55 0 0 0-.265.208c.532.589.965 1.094 1.3 1.517.33.419.698.918 1.1 1.496.09.019.256-.031.496-.15s.528-.285.862-.5Zm-19.361 6.52c-.031.02-.06.023-.085.008a.316.316 0 0 1-.076-.088c-.099-.15-.15-.354-.155-.61-.004-.26.012-.567.049-.918.011-.091.018-.163.019-.216l-.29-.132a6.606 6.606 0 0 1-.538-.263.846.846 0 0 1-.283-.257c-.024-.036-.035-.065-.033-.086.005-.023.024-.046.058-.067.027-.019.1-.001.22.052a10.896 10.896 0 0 1 .705.344.899.899 0 0 0 .184.07c.052-.205.1-.368.144-.49a8.45 8.45 0 0 1 .22-.52 3.51 3.51 0 0 1 .125-.238.468.468 0 0 1 .147-.169c.06-.04.116-.034.166.017-.11.24-.212.506-.306.8a3.63 3.63 0 0 0-.171.776c.072.056.173.11.302.16.13.051.29.108.485.173.19.066.33.117.419.155.087.035.142.07.166.106.02.03.009.06-.033.087a.425.425 0 0 1-.092.043 1.656 1.656 0 0 1-.367-.076 8.216 8.216 0 0 1-.462-.175c-.265-.1-.435-.16-.508-.18a7.6 7.6 0 0 0-.046.838l-.005.194c0 .06.011.162.035.307.016.105.027.184.03.237.003.054-.005.093-.024.118Zm31-20c-.031.02-.06.023-.085.008a.316.316 0 0 1-.076-.088c-.099-.15-.15-.354-.155-.61-.004-.26.012-.566.048-.918.012-.091.019-.163.02-.216l-.29-.132a6.606 6.606 0 0 1-.538-.263.846.846 0 0 1-.283-.257c-.024-.036-.035-.065-.033-.086.005-.023.024-.046.058-.068.027-.018.1 0 .22.053a10.896 10.896 0 0 1 .705.344.899.899 0 0 0 .184.07c.052-.205.1-.368.144-.49a8.45 8.45 0 0 1 .22-.52 3.51 3.51 0 0 1 .125-.238.468.468 0 0 1 .147-.168c.06-.04.116-.035.166.016-.11.24-.212.506-.306.8a3.63 3.63 0 0 0-.171.776c.072.056.173.11.302.16.13.051.29.109.485.173.19.066.33.117.419.155.086.035.142.07.165.106.02.03.01.06-.032.087a.425.425 0 0 1-.092.043 1.656 1.656 0 0 1-.367-.076 8.216 8.216 0 0 1-.462-.175c-.265-.1-.435-.16-.508-.18a7.6 7.6 0 0 0-.047.838l-.004.194c0 .06.011.162.035.307.017.104.027.184.03.237.003.054-.005.093-.024.118Zm-49 32c-.031.02-.06.023-.085.008a.316.316 0 0 1-.076-.088c-.099-.15-.15-.354-.155-.61-.004-.26.012-.567.049-.918.011-.091.018-.163.019-.216l-.29-.132a6.606 6.606 0 0 1-.538-.263.846.846 0 0 1-.283-.257c-.024-.036-.035-.065-.033-.086.005-.023.024-.045.058-.067.027-.019.1-.001.22.052a10.896 10.896 0 0 1 .705.344.899.899 0 0 0 .184.07c.052-.205.1-.368.144-.49a8.45 8.45 0 0 1 .22-.52 3.51 3.51 0 0 1 .125-.238.468.468 0 0 1 .147-.169c.06-.04.116-.034.166.017-.11.24-.212.506-.306.8a3.63 3.63 0 0 0-.171.776c.072.056.173.11.302.16.13.051.29.108.485.173.19.066.33.117.419.155.087.035.142.07.166.106.02.03.009.06-.033.087a.425.425 0 0 1-.092.043 1.656 1.656 0 0 1-.367-.076 8.216 8.216 0 0 1-.462-.175c-.265-.1-.435-.16-.508-.18a7.6 7.6 0 0 0-.046.838l-.005.194c0 .06.011.162.035.307.017.105.027.184.03.237.003.054-.005.093-.024.118Zm33-22c-.031.02-.06.023-.085.008a.316.316 0 0 1-.076-.088c-.099-.15-.15-.354-.155-.61-.004-.26.012-.567.048-.918.012-.091.019-.163.02-.216l-.29-.132a6.606 6.606 0 0 1-.538-.263.846.846 0 0 1-.283-.257c-.024-.036-.035-.065-.033-.086.005-.023.024-.046.058-.067.027-.019.1-.001.22.052a10.896 10.896 0 0 1 .705.344.899.899 0 0 0 .184.07c.052-.205.1-.368.144-.49a8.45 8.45 0 0 1 .22-.52 3.51 3.51 0 0 1 .125-.238.468.468 0 0 1 .147-.169c.06-.04.116-.034.166.017-.11.24-.212.506-.306.8a3.63 3.63 0 0 0-.171.776c.072.056.173.11.302.16.13.051.29.108.485.173.19.066.33.117.419.155.086.035.142.07.165.106.02.03.01.06-.032.087a.425.425 0 0 1-.092.043 1.656 1.656 0 0 1-.367-.076 8.216 8.216 0 0 1-.462-.175c-.265-.1-.435-.16-.508-.18a7.6 7.6 0 0 0-.047.838l-.004.194c0 .06.011.163.035.307.017.104.027.184.03.237.003.054-.005.093-.024.118ZM95.14 7.72a9.43 9.43 0 0 1-.204-1.071 24.71 24.71 0 0 1-.126-1.792c0-.056.019-.105.056-.147a.194.194 0 0 1 .14-.063h.063c.024.154.04.401.05.742 0 .037.004.163.013.378.01.21.033.408.07.595.542-.051.973-.156 1.295-.315.327-.159.49-.385.49-.679 0-.369-.163-.67-.49-.903-.326-.233-.819-.35-1.477-.35-.275 0-.508.051-.7.154-.032.014-.056.044-.07.091a.971.971 0 0 0-.035.182.981.981 0 0 1-.035.189c-.014.042-.04.063-.077.063-.042 0-.07-.03-.084-.091a4.141 4.141 0 0 1-.014-.441c0-.13.089-.233.266-.308.178-.075.406-.112.686-.112.817 0 1.424.128 1.82.385.397.257.595.651.595 1.183a.894.894 0 0 1-.343.714 2.236 2.236 0 0 1-.833.427 3.58 3.58 0 0 1-.938.133l.028.154c.01.047.017.086.021.119.066.317.098.562.098.735a.593.593 0 0 1-.042.245c-.023.06-.077.082-.16.063l-.064-.28Zm5.582.273a.823.823 0 0 1-.574-.224 1.44 1.44 0 0 1-.364-.581 2.332 2.332 0 0 1-.119-.742c0-.448.093-.826.28-1.134.191-.308.481-.462.868-.462.233 0 .436.042.609.126.177.08.408.215.693.406l.182.126a6.725 6.725 0 0 0-.105-.532 10.6 10.6 0 0 1-.091-.413c-.079-.364-.138-.635-.175-.812a2.74 2.74 0 0 1-.049-.483c0-.247.07-.371.21-.371.051.112.112.352.182.721.07.364.159.863.266 1.498.112.672.21 1.22.294 1.645.084.425.154.69.21.798 0 .107-.079.161-.238.161-.121 0-.205-.07-.252-.21-.042-.14-.068-.385-.077-.735h-.056a2.66 2.66 0 0 1-.763.875c-.313.229-.623.343-.931.343Zm.091-.343c.191 0 .397-.08.616-.238a2.34 2.34 0 0 0 .567-.588c.154-.233.231-.443.231-.63v-.21c-.481-.504-.924-.756-1.33-.756-.285 0-.504.105-.658.315-.154.205-.231.476-.231.812l.007.147c.028.355.107.635.238.84a.626.626 0 0 0 .56.308Zm3.112.357c-.108 0-.194-.156-.259-.469a6.696 6.696 0 0 1-.126-.819c-.019-.229-.045-.59-.077-1.085a5.156 5.156 0 0 1-.007-.308c0-.159.011-.268.035-.329.028-.06.072-.091.133-.091.051 0 .091.012.119.035.032.019.06.051.084.098l-.007.28c0 .299.014.581.042.847.032.266.081.623.147 1.071.037.196.063.357.077.483a.335.335 0 0 1-.035.196c-.033.06-.075.091-.126.091Zm-.175-3.85a.256.256 0 0 1-.231-.119.568.568 0 0 1-.07-.294c0-.051.002-.089.007-.112-.005-.075.037-.112.126-.112.065 0 .13.016.196.049.07.028.091.049.063.063a.88.88 0 0 1 .07.287.24.24 0 0 1-.042.147.424.424 0 0 1-.119.091Zm2.168 3.85c-.136 0-.313-.2-.532-.602-.215-.406-.465-.92-.749-1.54l-.203-.434c0-.047.028-.091.084-.133.056-.047.14-.068.252-.063.028.051.116.24.266.567.177.383.326.698.448.945.126.243.277.504.455.784a8.2 8.2 0 0 1 .266-.812c.102-.257.254-.618.455-1.085l.105-.245c.028-.056.081-.084.161-.084.056 0 .105.014.147.042a.135.135 0 0 1 .063.119c0 .047-.024.096-.07.147-.033.033-.08.128-.14.287a11.33 11.33 0 0 0-.189.518c-.178.504-.332.898-.462 1.183-.131.28-.25.415-.357.406Zm1.965 0c-.108 0-.194-.156-.259-.469a6.696 6.696 0 0 1-.126-.819c-.019-.229-.045-.59-.077-1.085a5.156 5.156 0 0 1-.007-.308c0-.159.011-.268.035-.329.028-.06.072-.091.133-.091.051 0 .091.012.119.035.032.019.06.051.084.098l-.007.28c0 .299.014.581.042.847.032.266.081.623.147 1.071.037.196.063.357.077.483a.335.335 0 0 1-.035.196c-.033.06-.075.091-.126.091Zm-.175-3.85a.256.256 0 0 1-.231-.119.568.568 0 0 1-.07-.294c0-.051.002-.089.007-.112-.005-.075.037-.112.126-.112.065 0 .13.016.196.049.07.028.091.049.063.063a.88.88 0 0 1 .07.287.24.24 0 0 1-.042.147.424.424 0 0 1-.119.091Zm2.161 3.836a.822.822 0 0 1-.574-.224 1.435 1.435 0 0 1-.364-.581 2.312 2.312 0 0 1-.119-.742c0-.448.093-.826.28-1.134.191-.308.48-.462.868-.462.233 0 .436.042.609.126.177.08.408.215.693.406l.182.126a7.777 7.777 0 0 0-.105-.532 82.413 82.413 0 0 1-.266-1.225 2.74 2.74 0 0 1-.049-.483c0-.247.07-.371.21-.371.051.112.112.352.182.721.07.364.158.863.266 1.498.112.672.21 1.22.294 1.645.084.425.154.69.21.798 0 .107-.08.161-.238.161-.122 0-.206-.07-.252-.21-.042-.14-.068-.385-.077-.735h-.056a2.67 2.67 0 0 1-.763.875c-.313.229-.623.343-.931.343Zm.091-.343c.191 0 .396-.08.616-.238a2.34 2.34 0 0 0 .567-.588c.154-.233.231-.443.231-.63v-.21c-.481-.504-.924-.756-1.33-.756-.285 0-.504.105-.658.315-.154.205-.231.476-.231.812l.007.147c.028.355.107.635.238.84.13.205.317.308.56.308Zm4.294.35a1.94 1.94 0 0 1-.826-.175 1.472 1.472 0 0 1-.602-.497 1.27 1.27 0 0 1-.224-.742c0-.313.059-.604.175-.875.117-.275.287-.495.511-.658.229-.168.495-.252.798-.252.318 0 .558.103.721.308.164.2.241.455.231.763a.707.707 0 0 1-.329.63c-.214.145-.49.217-.826.217a2.97 2.97 0 0 1-.231-.014 1.254 1.254 0 0 1-.357-.077c-.07-.033-.105-.098-.105-.196 0-.033.01-.056.028-.07.019-.019.056-.028.112-.028.061 0 .168.014.322.042.15.028.283.042.399.042.43 0 .644-.187.644-.56 0-.224-.042-.401-.126-.532-.079-.13-.221-.196-.427-.196-.224 0-.424.06-.602.182-.177.117-.315.27-.413.462-.093.191-.14.394-.14.609 0 .369.103.672.308.91.206.233.523.35.952.35.052 0 .138-.005.259-.014a.923.923 0 0 0 .189-.042l.161-.049c.201-.07.348-.105.441-.105.07 0 .124.019.161.056a1.01 1.01 0 0 1-.525.392c-.228.08-.455.119-.679.119Zm1.521-.826a.308.308 0 0 1 .189-.077c.056 0 .11.016.161.049a.986.986 0 0 1 .168.126c.056.047.1.082.133.105.107.084.254.15.441.196.187.047.385.07.595.07.238 0 .45-.044.637-.133.191-.093.287-.217.287-.371 0-.14-.051-.25-.154-.329a.953.953 0 0 0-.371-.182 5.256 5.256 0 0 0-.574-.105 4.821 4.821 0 0 1-.77-.14.946.946 0 0 1-.448-.273c-.112-.13-.168-.313-.168-.546 0-.252.119-.439.357-.56.238-.126.511-.189.819-.189.28 0 .518.06.714.182a.568.568 0 0 1 .308.504.492.492 0 0 1-.056.301c-.047.07-.103.105-.168.105a.135.135 0 0 1-.098-.042.171.171 0 0 1-.035-.112.5.5 0 0 1 .077-.245c-.023-.112-.1-.196-.231-.252a1.117 1.117 0 0 0-.455-.084c-.261 0-.469.049-.623.147-.154.093-.231.205-.231.336 0 .14.056.247.168.322.112.075.247.128.406.161.163.028.394.056.693.084.247.033.448.072.602.119a.779.779 0 0 1 .399.273c.107.13.161.32.161.567 0 .257-.119.46-.357.609a1.614 1.614 0 0 1-.854.217c-.425 0-.805-.072-1.141-.217-.331-.145-.525-.35-.581-.616Zm8.566.833c-.056 0-.095-.014-.119-.042a.22.22 0 0 1-.028-.119c0-.103.024-.261.07-.476.052-.196.077-.357.077-.483 0-.364-.028-.642-.084-.833h-.217c-.191 0-.441-.005-.749-.014l-.658-.007h-.945l.014.273c0 .215.035.483.105.805.024.13.045.264.063.399.024.13.035.25.035.357v.063a.205.205 0 0 1-.147.07c-.121 0-.217-.142-.287-.427a4.492 4.492 0 0 1-.105-1.043c0-.163.007-.324.021-.483-.102-.005-.172-.021-.21-.049-.037-.033-.056-.082-.056-.147 0-.051.014-.086.042-.105a.482.482 0 0 1 .168-.042l-.007-.189.021-.322c.033-.527.082-.957.147-1.288.066-.331.206-.618.42-.861.215-.243.537-.364.966-.364.49 0 .873.264 1.148.791.276.527.462 1.115.56 1.764.098.649.147 1.206.147 1.673 0 .168-.004.315-.014.441a6.058 6.058 0 0 1-.056.455c-.107.135-.214.203-.322.203Zm-.112-2.226c-.088-.863-.247-1.54-.476-2.03-.228-.495-.571-.742-1.029-.742-.34 0-.592.159-.756.476a2.778 2.778 0 0 0-.287 1.008c-.032.36-.049.763-.049 1.211l2.597.077Zm3.999 2.226c-.891 0-1.582-.049-2.072-.147-.126-2.338-.24-3.752-.343-4.242l-.21.049a5.506 5.506 0 0 0-.322.077 2.21 2.21 0 0 0-.329.105l-.007-.238c0-.08.086-.152.259-.217.173-.07.38-.124.623-.161.247-.042.467-.063.658-.063.21 0 .45.037.721.112.275.075.511.187.707.336.196.145.294.317.294.518a.84.84 0 0 1-.266.609 1.476 1.476 0 0 1-.679.371c.411.07.793.196 1.148.378.355.177.639.399.854.665.215.261.322.544.322.847 0 .35-.135.604-.406.763a1.85 1.85 0 0 1-.952.238Zm-.182-.399c.345 0 .611-.037.798-.112.187-.08.28-.247.28-.504a.98.98 0 0 0-.245-.679 1.667 1.667 0 0 0-.567-.434 7.727 7.727 0 0 0-.805-.336 4.57 4.57 0 0 1-.574-.231c-.121-.07-.182-.147-.182-.231 0-.06.03-.107.091-.14.061-.033.168-.08.322-.14.21-.07.373-.145.49-.224a.403.403 0 0 0 .182-.35c0-.22-.133-.387-.399-.504a2.136 2.136 0 0 0-.896-.182c-.093 0-.205.01-.336.028.121.784.205 1.444.252 1.981.047.532.079 1.15.098 1.855.065.065.231.114.497.147.266.033.597.051.994.056Zm4.248.399c-.107 0-.194-.156-.259-.469a7.11 7.11 0 0 1-.126-.819 78.33 78.33 0 0 1-.077-1.085 5.156 5.156 0 0 1-.007-.308c0-.159.012-.268.035-.329.028-.06.072-.091.133-.091.051 0 .091.012.119.035a.218.218 0 0 1 .084.098l-.007.28c0 .299.014.581.042.847.033.266.082.623.147 1.071.037.196.063.357.077.483a.327.327 0 0 1-.035.196c-.033.06-.075.091-.126.091Zm-.175-3.85a.256.256 0 0 1-.231-.119.568.568 0 0 1-.07-.294c0-.051.002-.089.007-.112-.005-.075.037-.112.126-.112a.43.43 0 0 1 .196.049c.07.028.091.049.063.063.047.121.07.217.07.287a.24.24 0 0 1-.042.147.424.424 0 0 1-.119.091Zm1.629 3.871a.88.88 0 0 1-.112.028c-.038 0-.077-.019-.119-.056-.154-.229-.266-.628-.336-1.197-.066-.57-.098-1.06-.098-1.47 0-.065.046-.098.14-.098.14 0 .21.077.21.231a.744.744 0 0 1-.007.105.88.88 0 0 1 .238-.301 1.62 1.62 0 0 1 .406-.259c.154-.07.31-.105.469-.105.499 0 .863.222 1.092.665.228.439.343.985.343 1.638 0 .224-.024.404-.07.539-.047.13-.11.196-.189.196-.084 0-.126-.026-.126-.077a5.67 5.67 0 0 0 .049-.728c0-.602-.105-1.057-.315-1.365-.21-.313-.488-.469-.833-.469a1.033 1.033 0 0 0-.868.476.938.938 0 0 0-.14.511c0 .215.011.401.035.56.023.159.06.35.112.574.056.22.095.42.119.602ZM137.662 8a.621.621 0 0 1-.091.014c-.145 0-.245-.107-.301-.322-.051-.215-.077-.516-.077-.903 0-.159.005-.406.014-.742.009-.205.014-.36.014-.462-.574 0-.861-.065-.861-.196a.28.28 0 0 1 .014-.098c.014-.023.042-.035.084-.035l.763-.049a15.56 15.56 0 0 0-.035-.749c-.019-.243-.03-.467-.035-.672 0-.051.021-.086.063-.105a.269.269 0 0 1 .133-.035c.056 0 .103.03.14.091a.314.314 0 0 1 .056.175l.049 1.281.581.028a.322.322 0 0 1 .224.049c.065.042.1.112.105.21a1.016 1.016 0 0 1-.322.077c-.117.01-.313.014-.588.014 0 .434.021 1.148.063 2.142v.217a.66.66 0 0 1 .007.07Zm2.876 0a1.94 1.94 0 0 1-.826-.175 1.472 1.472 0 0 1-.602-.497 1.27 1.27 0 0 1-.224-.742c0-.313.059-.604.175-.875.117-.275.287-.495.511-.658.229-.168.495-.252.798-.252.318 0 .558.103.721.308.164.2.241.455.231.763a.707.707 0 0 1-.329.63c-.214.145-.49.217-.826.217a2.97 2.97 0 0 1-.231-.014 1.254 1.254 0 0 1-.357-.077c-.07-.033-.105-.098-.105-.196 0-.033.01-.056.028-.07.019-.019.056-.028.112-.028.061 0 .168.014.322.042.15.028.283.042.399.042.43 0 .644-.187.644-.56 0-.224-.042-.401-.126-.532-.079-.13-.221-.196-.427-.196-.224 0-.424.06-.602.182-.177.117-.315.27-.413.462-.093.191-.14.394-.14.609 0 .369.103.672.308.91.206.233.523.35.952.35.052 0 .138-.005.259-.014a.923.923 0 0 0 .189-.042l.161-.049c.201-.07.348-.105.441-.105.07 0 .124.019.161.056a1.01 1.01 0 0 1-.525.392c-.228.08-.455.119-.679.119Zm2.102 0a5.514 5.514 0 0 1-.455-1.316 6.437 6.437 0 0 1-.161-1.309c0-.145.033-.238.098-.28.037-.023.065-.035.084-.035.033 0 .056.026.07.077.019.051.037.145.056.28l.035.252c.051-.252.149-.45.294-.595a.742.742 0 0 1 .546-.224c.238 0 .415.047.532.14.117.089.175.238.175.448a1.492 1.492 0 0 0-.637-.168.76.76 0 0 0-.469.147.766.766 0 0 0-.273.434 1.214 1.214 0 0 0-.014.728c.037.107.093.24.168.399.07.163.124.303.161.42.042.117.065.243.07.378 0 .08-.028.138-.084.175a.381.381 0 0 1-.196.049Zm2.216.028a.838.838 0 0 1-.112.028c-.037 0-.077-.019-.119-.056-.154-.229-.266-.628-.336-1.197-.065-.57-.098-1.06-.098-1.47 0-.065.047-.098.14-.098.14 0 .21.077.21.231a.619.619 0 0 1-.007.105.88.88 0 0 1 .238-.301c.117-.103.252-.189.406-.259.154-.07.31-.105.469-.105.499 0 .863.222 1.092.665.229.439.343.985.343 1.638 0 .224-.023.404-.07.539-.047.13-.11.196-.189.196-.084 0-.126-.026-.126-.077a5.5 5.5 0 0 0 .049-.728c0-.602-.105-1.057-.315-1.365-.21-.313-.488-.469-.833-.469a1.036 1.036 0 0 0-.868.476.947.947 0 0 0-.14.511c0 .215.012.401.035.56.023.159.061.35.112.574.056.22.096.42.119.602ZM149.442 8c-.485 0-.907-.084-1.267-.252-.354-.173-.532-.474-.532-.903a.82.82 0 0 1 .14-.448.998.998 0 0 1 .413-.35 1.45 1.45 0 0 1 .665-.14c.201 0 .371.01.511.028.14.019.301.07.483.154.182.084.371.217.567.399a2.785 2.785 0 0 0-.336-.847 1.847 1.847 0 0 0-.504-.56c-.182-.135-.361-.203-.539-.203a.588.588 0 0 0-.238.049c-.07.028-.156.07-.259.126-.116.075-.203.112-.259.112a.104.104 0 0 1-.063-.021.102.102 0 0 1-.021-.063c0-.187.082-.331.245-.434.168-.103.371-.15.609-.14.327.019.626.159.896.42.271.257.483.576.637.959.159.383.238.758.238 1.127 0 .06-.004.147-.014.259l-.224-.014c-.177-.36-.406-.614-.686-.763a1.69 1.69 0 0 0-.833-.231c-.359 0-.616.054-.77.161a.536.536 0 0 0-.231.469c0 .215.108.387.322.518.215.13.49.196.826.196.187 0 .336-.01.448-.028.112-.023.229-.054.35-.091a2.03 2.03 0 0 1 .259-.07c.075-.014.171-.021.287-.021.131 0 .213.01.245.028.038.019.056.06.056.126 0 .047-.095.105-.287.175-.191.07-.406.133-.644.189a2.598 2.598 0 0 1-.49.084Zm2.367-.049a15.511 15.511 0 0 1-.238-1.806c-.052-.7-.077-1.377-.077-2.03 0-.327.007-.616.021-.868 0-.06.046-.091.14-.091.074 0 .121.019.14.056a.343.343 0 0 1 .035.175c0 .756.014 1.402.042 1.939.028.532.065 1.106.112 1.722l.056.805c.004.075-.035.112-.119.112a.596.596 0 0 1-.112-.014Zm1.175 0a15.73 15.73 0 0 1-.238-1.806 27.97 27.97 0 0 1-.077-2.03c0-.327.007-.616.021-.868 0-.06.047-.091.14-.091.075 0 .122.019.14.056a.333.333 0 0 1 .035.175c0 .756.014 1.402.042 1.939.028.532.066 1.106.112 1.722l.056.805c.005.075-.035.112-.119.112a.606.606 0 0 1-.112-.014Zm2.709 3.36a1.78 1.78 0 0 1-.854-.203 2.055 2.055 0 0 1-.595-.469c-.149-.177-.233-.322-.252-.434-.019-.103.005-.182.07-.238a.348.348 0 0 1 .259-.07c.145.345.317.611.518.798.201.187.488.285.861.294.261.005.469-.163.623-.504.159-.336.271-.749.336-1.239.065-.485.098-.964.098-1.435a6.82 6.82 0 0 0-.021-.595c-.355.434-.807.651-1.358.651-.476 0-.842-.226-1.099-.679a4.265 4.265 0 0 1-.49-1.533 1.584 1.584 0 0 1-.014-.238c0-.294.096-.441.287-.441.019 0 .044.117.077.35.051.369.114.7.189.994.075.294.198.562.371.805a.832.832 0 0 0 .7.357c.229 0 .462-.075.7-.224.243-.154.418-.324.525-.511 0-.355-.047-.672-.14-.952a29.61 29.61 0 0 1-.14-.455 3.23 3.23 0 0 1-.014-.196c0-.093.014-.161.042-.203a.167.167 0 0 1 .14-.063c.065 0 .14.133.224.399.084.266.159.614.224 1.043a13.375 13.375 0 0 1 .147 1.883c0 .896-.112 1.638-.336 2.226-.219.588-.579.882-1.078.882Zm-64.808 4.057c0 .06-.05.103-.147.126a2.301 2.301 0 0 1-.455.042c-.047.243-.103.46-.168.651-.06.187-.152.39-.273.609l.672 1.029c-.028.047-.084.07-.168.07l-.112-.007c-.215-.266-.408-.52-.581-.763-.196.317-.371.546-.525.686a.819.819 0 0 1-.56.203.7.7 0 0 1-.483-.182.637.637 0 0 1-.196-.49c0-.21.044-.413.133-.609a7.1 7.1 0 0 1 .392-.735c.117-.2.203-.357.259-.469a1.89 1.89 0 0 0 .14-.343c.004-.336.016-.677.035-1.022.014-.28.02-.511.02-.693 0-.22.094-.329.28-.329a.43.43 0 0 1 .379.217.94.94 0 0 1 .14.532c0 .21-.044.439-.133.686a5.525 5.525 0 0 1-.4.854c.029.135.085.29.169.462a12 12 0 0 0 .35.609c.252-.509.366-.929.343-1.26 0-.051.08-.077.238-.077l.343.007c.121 0 .203.012.245.035.042.019.063.072.063.161Zm-2.268 2.296c.154 0 .296-.06.427-.182.135-.126.278-.331.427-.616a20.225 20.225 0 0 1-.602-.959c-.229.392-.385.681-.47.868a1.37 1.37 0 0 0-.125.567c0 .107.03.189.09.245a.382.382 0 0 0 .253.077Zm8.73.987a.352.352 0 0 1-.246.105c-.13 0-.282-.065-.455-.196a12.32 12.32 0 0 1-.798-.693 36.352 36.352 0 0 1-.49.077l-.322.049a1.886 1.886 0 0 1-1.141-.252 1.991 1.991 0 0 1-.7-.707 1.835 1.835 0 0 1-.259-.945c0-.322.063-.614.19-.875.125-.261.293-.464.503-.609a1.19 1.19 0 0 1 .693-.224c.476 0 .926.117 1.351.35a2.95 2.95 0 0 1 1.022.882c.257.355.385.71.385 1.064 0 .2-.08.387-.238.56-.154.173-.36.329-.616.469.187.159.387.31.602.455.159.103.278.189.357.259a.53.53 0 0 1 .161.231Zm-2.528-1.106a3.045 3.045 0 0 0 .637-.063c-.2-.22-.352-.401-.455-.546-.098-.15-.147-.273-.147-.371 0-.08.035-.142.105-.189.08 0 .163.051.252.154.093.103.21.257.35.462.121.191.215.32.28.385.27-.07.488-.168.651-.294.168-.126.252-.275.252-.448 0-.285-.098-.572-.294-.861a2.266 2.266 0 0 0-.833-.721 2.462 2.462 0 0 0-1.21-.294c-.337 0-.6.126-.792.378-.191.247-.287.565-.287.952a1.28 1.28 0 0 0 .168.749c.135.22.32.392.553.518.238.126.495.189.77.189Zm5.674.448a.823.823 0 0 1-.574-.224 1.438 1.438 0 0 1-.364-.581 2.332 2.332 0 0 1-.119-.742c0-.448.093-.826.28-1.134.191-.308.481-.462.868-.462.233 0 .436.042.609.126.177.08.408.215.693.406l.182.126a6.728 6.728 0 0 0-.105-.532 10.6 10.6 0 0 1-.091-.413c-.079-.364-.138-.635-.175-.812a2.74 2.74 0 0 1-.049-.483c0-.247.07-.371.21-.371.051.112.112.352.182.721.07.364.159.863.266 1.498.112.672.21 1.22.294 1.645.084.425.154.69.21.798 0 .107-.079.161-.238.161-.121 0-.205-.07-.252-.21-.042-.14-.068-.385-.077-.735h-.056a2.66 2.66 0 0 1-.763.875c-.313.229-.623.343-.931.343Zm.091-.343c.191 0 .397-.08.616-.238a2.34 2.34 0 0 0 .567-.588c.154-.233.231-.443.231-.63v-.21c-.481-.504-.924-.756-1.33-.756-.285 0-.504.105-.658.315-.154.205-.23.476-.23.812l.006.147c.028.355.107.635.238.84a.626.626 0 0 0 .56.308Zm3.112.357c-.108 0-.194-.156-.259-.469a6.695 6.695 0 0 1-.126-.819c-.019-.229-.045-.59-.077-1.085a5.155 5.155 0 0 1-.007-.308c0-.159.011-.268.035-.329.028-.06.072-.091.133-.091.051 0 .091.012.119.035.032.019.06.051.084.098l-.007.28c0 .299.014.581.042.847.032.266.081.623.147 1.071.037.196.063.357.077.483a.335.335 0 0 1-.035.196c-.033.06-.075.091-.126.091Zm-.175-3.85a.256.256 0 0 1-.231-.119.568.568 0 0 1-.07-.294c0-.051.002-.089.007-.112-.005-.075.037-.112.126-.112.065 0 .13.016.196.049.07.028.091.049.063.063a.88.88 0 0 1 .07.287.24.24 0 0 1-.042.147.423.423 0 0 1-.119.091Zm2.168 3.85c-.136 0-.313-.2-.532-.602a30.4 30.4 0 0 1-.749-1.54l-.203-.434c0-.047.028-.091.084-.133.056-.047.14-.068.252-.063.028.051.116.24.266.567.177.383.326.698.448.945.126.243.277.504.455.784.079-.29.168-.56.266-.812.102-.257.254-.618.455-1.085l.105-.245c.028-.056.081-.084.161-.084.056 0 .105.014.147.042a.135.135 0 0 1 .063.119c0 .047-.024.096-.07.147-.033.033-.08.128-.14.287a11.33 11.33 0 0 0-.189.518c-.178.504-.332.898-.462 1.183-.131.28-.25.415-.357.406Zm1.965 0c-.108 0-.194-.156-.259-.469a6.695 6.695 0 0 1-.126-.819c-.019-.229-.045-.59-.077-1.085a5.155 5.155 0 0 1-.007-.308c0-.159.011-.268.035-.329.028-.06.072-.091.133-.091.051 0 .091.012.119.035.032.019.06.051.084.098l-.007.28c0 .299.014.581.042.847.032.266.081.623.147 1.071.037.196.063.357.077.483a.335.335 0 0 1-.035.196c-.033.06-.075.091-.126.091Zm-.175-3.85a.256.256 0 0 1-.231-.119.568.568 0 0 1-.07-.294c0-.051.002-.089.007-.112-.005-.075.037-.112.126-.112.065 0 .13.016.196.049.07.028.091.049.063.063a.88.88 0 0 1 .07.287.24.24 0 0 1-.042.147.423.423 0 0 1-.119.091Zm2.161 3.836a.822.822 0 0 1-.574-.224 1.435 1.435 0 0 1-.364-.581 2.312 2.312 0 0 1-.119-.742c0-.448.093-.826.28-1.134.191-.308.48-.462.868-.462.233 0 .436.042.609.126.177.08.408.215.693.406l.182.126a7.78 7.78 0 0 0-.105-.532 82.605 82.605 0 0 1-.266-1.225 2.74 2.74 0 0 1-.049-.483c0-.247.07-.371.21-.371.051.112.112.352.182.721.07.364.158.863.266 1.498.112.672.21 1.22.294 1.645.084.425.154.69.21.798 0 .107-.08.161-.238.161-.122 0-.206-.07-.252-.21-.042-.14-.068-.385-.077-.735h-.056a2.67 2.67 0 0 1-.763.875c-.313.229-.623.343-.931.343Zm.091-.343c.191 0 .396-.08.616-.238a2.34 2.34 0 0 0 .567-.588c.154-.233.231-.443.231-.63v-.21c-.481-.504-.924-.756-1.33-.756-.285 0-.504.105-.658.315-.154.205-.231.476-.231.812l.007.147c.028.355.107.635.238.84.13.205.317.308.56.308Zm4.294.35a1.94 1.94 0 0 1-.826-.175 1.472 1.472 0 0 1-.602-.497 1.27 1.27 0 0 1-.224-.742c0-.313.059-.604.175-.875.117-.275.287-.495.511-.658.229-.168.495-.252.798-.252.318 0 .558.103.721.308.164.2.241.455.231.763a.707.707 0 0 1-.329.63c-.214.145-.49.217-.826.217a2.97 2.97 0 0 1-.231-.014 1.254 1.254 0 0 1-.357-.077c-.07-.033-.105-.098-.105-.196 0-.033.01-.056.028-.07.019-.019.056-.028.112-.028.061 0 .168.014.322.042.15.028.283.042.399.042.43 0 .644-.187.644-.56 0-.224-.042-.401-.126-.532-.079-.13-.221-.196-.427-.196-.224 0-.424.06-.602.182-.177.117-.315.27-.413.462-.093.191-.14.394-.14.609 0 .369.103.672.308.91.206.233.523.35.952.35.052 0 .138-.005.259-.014a.927.927 0 0 0 .189-.042l.161-.049c.201-.07.348-.105.441-.105.07 0 .124.019.161.056a1.01 1.01 0 0 1-.525.392 2.06 2.06 0 0 1-.679.119Zm1.521-.826a.308.308 0 0 1 .189-.077c.056 0 .11.016.161.049a.99.99 0 0 1 .168.126c.056.047.1.082.133.105.107.084.254.15.441.196.187.047.385.07.595.07.238 0 .45-.044.637-.133.191-.093.287-.217.287-.371 0-.14-.051-.25-.154-.329a.952.952 0 0 0-.371-.182 5.27 5.27 0 0 0-.574-.105 4.818 4.818 0 0 1-.77-.14.946.946 0 0 1-.448-.273c-.112-.13-.168-.313-.168-.546 0-.252.119-.439.357-.56.238-.126.511-.189.819-.189.28 0 .518.06.714.182a.568.568 0 0 1 .308.504.493.493 0 0 1-.056.301c-.047.07-.103.105-.168.105a.135.135 0 0 1-.098-.042.171.171 0 0 1-.035-.112.5.5 0 0 1 .077-.245c-.023-.112-.1-.196-.231-.252a1.117 1.117 0 0 0-.455-.084c-.261 0-.469.049-.623.147-.154.093-.231.205-.231.336 0 .14.056.247.168.322.112.075.247.128.406.161.163.028.394.056.693.084.247.033.448.072.602.119a.78.78 0 0 1 .399.273c.107.13.161.32.161.567 0 .257-.119.46-.357.609a1.614 1.614 0 0 1-.854.217c-.425 0-.805-.072-1.141-.217-.331-.145-.525-.35-.581-.616Zm8.566.833c-.056 0-.095-.014-.119-.042a.22.22 0 0 1-.028-.119c0-.103.024-.261.07-.476.052-.196.077-.357.077-.483 0-.364-.028-.642-.084-.833h-.217c-.191 0-.441-.005-.749-.014l-.658-.007h-.945l.014.273c0 .215.035.483.105.805.024.13.045.264.063.399.024.13.035.25.035.357v.063a.205.205 0 0 1-.147.07c-.121 0-.217-.142-.287-.427a4.491 4.491 0 0 1-.105-1.043c0-.163.007-.324.021-.483-.102-.005-.172-.021-.21-.049-.037-.033-.056-.082-.056-.147 0-.051.014-.086.042-.105a.48.48 0 0 1 .168-.042l-.007-.189.021-.322c.033-.527.082-.957.147-1.288.066-.331.206-.618.42-.861.215-.243.537-.364.966-.364.49 0 .873.264 1.148.791.276.527.462 1.115.56 1.764.098.649.147 1.206.147 1.673 0 .168-.004.315-.014.441a6.06 6.06 0 0 1-.056.455c-.107.135-.214.203-.322.203ZM124 15.781c-.088-.863-.247-1.54-.476-2.03-.228-.495-.571-.742-1.029-.742-.34 0-.592.159-.756.476a2.778 2.778 0 0 0-.287 1.008c-.032.36-.049.763-.049 1.211l2.597.077Zm3.999 2.226c-.891 0-1.582-.049-2.072-.147-.126-2.338-.24-3.752-.343-4.242l-.21.049a5.482 5.482 0 0 0-.322.077 2.203 2.203 0 0 0-.329.105l-.007-.238c0-.08.086-.152.259-.217.173-.07.38-.124.623-.161.247-.042.467-.063.658-.063.21 0 .45.037.721.112.275.075.511.187.707.336.196.145.294.317.294.518a.84.84 0 0 1-.266.609 1.476 1.476 0 0 1-.679.371c.411.07.793.196 1.148.378.355.177.639.399.854.665.215.261.322.544.322.847 0 .35-.135.604-.406.763a1.849 1.849 0 0 1-.952.238Zm-.182-.399c.345 0 .611-.037.798-.112.187-.08.28-.247.28-.504a.98.98 0 0 0-.245-.679 1.667 1.667 0 0 0-.567-.434 7.74 7.74 0 0 0-.805-.336 4.58 4.58 0 0 1-.574-.231c-.121-.07-.182-.147-.182-.231 0-.06.03-.107.091-.14.061-.033.168-.08.322-.14.21-.07.373-.145.49-.224a.403.403 0 0 0 .182-.35c0-.22-.133-.387-.399-.504a2.137 2.137 0 0 0-.896-.182c-.093 0-.205.01-.336.028.121.784.205 1.444.252 1.981.047.532.079 1.15.098 1.855.065.065.231.114.497.147.266.033.597.051.994.056Zm5.431.392a1.94 1.94 0 0 1-.826-.175 1.465 1.465 0 0 1-.602-.497 1.27 1.27 0 0 1-.224-.742c0-.313.058-.604.175-.875.117-.275.287-.495.511-.658.229-.168.495-.252.798-.252.317 0 .558.103.721.308.163.2.24.455.231.763a.71.71 0 0 1-.329.63c-.215.145-.49.217-.826.217a2.97 2.97 0 0 1-.231-.014 1.254 1.254 0 0 1-.357-.077c-.07-.033-.105-.098-.105-.196 0-.033.009-.056.028-.07.019-.019.056-.028.112-.028.061 0 .168.014.322.042.149.028.282.042.399.042.429 0 .644-.187.644-.56 0-.224-.042-.401-.126-.532-.079-.13-.222-.196-.427-.196-.224 0-.425.06-.602.182-.177.117-.315.27-.413.462-.093.191-.14.394-.14.609 0 .369.103.672.308.91.205.233.523.35.952.35.051 0 .138-.005.259-.014a.956.956 0 0 0 .189-.042 7.79 7.79 0 0 1 .161-.049c.201-.07.348-.105.441-.105.07 0 .124.019.161.056a1.018 1.018 0 0 1-.525.392c-.229.08-.455.119-.679.119Zm2.809-1.372c.21.173.429.376.658.609.233.233.427.457.581.672-.005.084-.033.142-.084.175a.21.21 0 0 1-.175.035 5.765 5.765 0 0 1-.42-.378 21.298 21.298 0 0 1-.462-.497l-.336-.357a4.592 4.592 0 0 0-.448.581c-.098.145-.18.259-.245.343-.061.08-.112.126-.154.14a.313.313 0 0 1-.154-.035.135.135 0 0 1-.063-.119c0-.033.007-.065.021-.098a1.5 1.5 0 0 1 .238-.399c.121-.15.305-.355.553-.616l-.539-.539c-.21-.21-.348-.352-.413-.427a1.21 1.21 0 0 1-.168-.245.243.243 0 0 1 .231-.217c.144.145.324.329.539.553.275.285.478.485.609.602.121-.135.175-.196.161-.182.256-.294.483-.532.679-.714.2-.187.364-.28.49-.28.093 0 .149.054.168.161 0 .028-.066.105-.196.231a20.21 20.21 0 0 1-.42.392c-.346.317-.563.52-.651.609ZM138.998 18a.607.607 0 0 1-.091.014c-.144 0-.245-.107-.301-.322-.051-.215-.077-.516-.077-.903 0-.159.005-.406.014-.742.01-.205.014-.36.014-.462-.574 0-.861-.065-.861-.196a.28.28 0 0 1 .014-.098c.014-.023.042-.035.084-.035l.763-.049a14.367 14.367 0 0 0-.035-.749 13.69 13.69 0 0 1-.035-.672c0-.051.021-.086.063-.105a.272.272 0 0 1 .133-.035c.056 0 .103.03.14.091a.306.306 0 0 1 .056.175l.049 1.281.581.028a.32.32 0 0 1 .224.049c.066.042.101.112.105.21a1.015 1.015 0 0 1-.322.077c-.116.01-.312.014-.588.014 0 .434.021 1.148.063 2.142v.217a.66.66 0 0 1 .007.07Zm2.877 0a1.94 1.94 0 0 1-.826-.175 1.465 1.465 0 0 1-.602-.497 1.27 1.27 0 0 1-.224-.742c0-.313.058-.604.175-.875.117-.275.287-.495.511-.658.229-.168.495-.252.798-.252.317 0 .558.103.721.308.163.2.24.455.231.763a.71.71 0 0 1-.329.63c-.215.145-.49.217-.826.217a2.97 2.97 0 0 1-.231-.014 1.254 1.254 0 0 1-.357-.077c-.07-.033-.105-.098-.105-.196 0-.033.009-.056.028-.07.019-.019.056-.028.112-.028.061 0 .168.014.322.042.149.028.282.042.399.042.429 0 .644-.187.644-.56 0-.224-.042-.401-.126-.532-.079-.13-.222-.196-.427-.196-.224 0-.425.06-.602.182-.177.117-.315.27-.413.462-.093.191-.14.394-.14.609 0 .369.103.672.308.91.205.233.523.35.952.35.051 0 .138-.005.259-.014a.956.956 0 0 0 .189-.042 7.79 7.79 0 0 1 .161-.049c.201-.07.348-.105.441-.105.07 0 .124.019.161.056a1.018 1.018 0 0 1-.525.392c-.229.08-.455.119-.679.119Zm2.102 0a5.47 5.47 0 0 1-.455-1.316 6.367 6.367 0 0 1-.161-1.309c0-.145.032-.238.098-.28.037-.023.065-.035.084-.035.032 0 .056.026.07.077.018.051.037.145.056.28l.035.252c.051-.252.149-.45.294-.595a.742.742 0 0 1 .546-.224c.238 0 .415.047.532.14.116.089.175.238.175.448a1.495 1.495 0 0 0-.637-.168.758.758 0 0 0-.469.147.766.766 0 0 0-.273.434 1.214 1.214 0 0 0-.014.728c.037.107.093.24.168.399.07.163.123.303.161.42.042.117.065.243.07.378 0 .08-.028.138-.084.175a.383.383 0 0 1-.196.049Zm2.216.028a.875.875 0 0 1-.112.028c-.038 0-.077-.019-.119-.056-.154-.229-.266-.628-.336-1.197-.066-.57-.098-1.06-.098-1.47 0-.065.046-.098.14-.098.14 0 .21.077.21.231a.744.744 0 0 1-.007.105.88.88 0 0 1 .238-.301 1.61 1.61 0 0 1 .406-.259c.154-.07.31-.105.469-.105.499 0 .863.222 1.092.665.228.439.343.985.343 1.638 0 .224-.024.404-.07.539-.047.13-.11.196-.189.196-.084 0-.126-.026-.126-.077a5.67 5.67 0 0 0 .049-.728c0-.602-.105-1.057-.315-1.365-.21-.313-.488-.469-.833-.469a1.033 1.033 0 0 0-.868.476.938.938 0 0 0-.14.511c0 .215.011.401.035.56.023.159.06.35.112.574.056.22.095.42.119.602Zm4.586-.028c-.486 0-.908-.084-1.267-.252-.355-.173-.532-.474-.532-.903a.81.81 0 0 1 .14-.448.991.991 0 0 1 .413-.35c.182-.093.403-.14.665-.14.2 0 .371.01.511.028.14.019.301.07.483.154.182.084.371.217.567.399a2.838 2.838 0 0 0-.336-.847 1.873 1.873 0 0 0-.504-.56c-.182-.135-.362-.203-.539-.203a.584.584 0 0 0-.238.049c-.07.028-.157.07-.259.126-.117.075-.203.112-.259.112a.1.1 0 0 1-.063-.021.103.103 0 0 1-.021-.063c0-.187.081-.331.245-.434.168-.103.371-.15.609-.14.326.019.625.159.896.42.27.257.483.576.637.959.158.383.238.758.238 1.127 0 .06-.005.147-.014.259l-.224-.014c-.178-.36-.406-.614-.686-.763a1.693 1.693 0 0 0-.833-.231c-.36 0-.616.054-.77.161a.536.536 0 0 0-.231.469c0 .215.107.387.322.518.214.13.49.196.826.196.186 0 .336-.01.448-.028a3.95 3.95 0 0 0 .35-.091c.098-.033.184-.056.259-.07.074-.014.17-.021.287-.021.13 0 .212.01.245.028.037.019.056.06.056.126 0 .047-.096.105-.287.175-.192.07-.406.133-.644.189a2.61 2.61 0 0 1-.49.084Zm2.366-.049a15.513 15.513 0 0 1-.238-1.806 27.97 27.97 0 0 1-.077-2.03c0-.327.007-.616.021-.868 0-.06.047-.091.14-.091.075 0 .121.019.14.056a.343.343 0 0 1 .035.175c0 .756.014 1.402.042 1.939.028.532.065 1.106.112 1.722l.056.805c.005.075-.035.112-.119.112a.608.608 0 0 1-.112-.014Zm1.176 0a15.513 15.513 0 0 1-.238-1.806c-.052-.7-.077-1.377-.077-2.03 0-.327.007-.616.021-.868 0-.06.046-.091.14-.091.074 0 .121.019.14.056a.343.343 0 0 1 .035.175c0 .756.014 1.402.042 1.939.028.532.065 1.106.112 1.722l.056.805c.004.075-.035.112-.119.112a.599.599 0 0 1-.112-.014Zm2.709 3.36c-.318 0-.602-.068-.854-.203a2.042 2.042 0 0 1-.595-.469c-.15-.177-.234-.322-.252-.434-.019-.103.004-.182.07-.238a.348.348 0 0 1 .259-.07c.144.345.317.611.518.798.2.187.487.285.861.294.261.005.469-.163.623-.504.158-.336.27-.749.336-1.239.065-.485.098-.964.098-1.435a6.82 6.82 0 0 0-.021-.595 1.679 1.679 0 0 1-1.358.651c-.476 0-.843-.226-1.099-.679a4.246 4.246 0 0 1-.49-1.533 1.46 1.46 0 0 1-.014-.238c0-.294.095-.441.287-.441.018 0 .044.117.077.35.051.369.114.7.189.994.074.294.198.562.371.805a.83.83 0 0 0 .7.357c.228 0 .462-.075.7-.224.242-.154.417-.324.525-.511 0-.355-.047-.672-.14-.952a20.211 20.211 0 0 1-.14-.455 2.54 2.54 0 0 1-.014-.196c0-.093.014-.161.042-.203a.166.166 0 0 1 .14-.063c.065 0 .14.133.224.399.084.266.158.614.224 1.043a13.672 13.672 0 0 1 .147 1.883c0 .896-.112 1.638-.336 2.226-.22.588-.579.882-1.078.882Zm4.19-3.304c-.107 0-.193-.156-.259-.469a7.108 7.108 0 0 1-.126-.819 98.53 98.53 0 0 1-.077-1.085 6.173 6.173 0 0 1-.007-.308c0-.159.012-.268.035-.329.028-.06.073-.091.133-.091a.18.18 0 0 1 .119.035.218.218 0 0 1 .084.098l-.007.28c0 .299.014.581.042.847.033.266.082.623.147 1.071.038.196.063.357.077.483a.32.32 0 0 1-.035.196c-.032.06-.074.091-.126.091Zm-.175-3.85a.258.258 0 0 1-.231-.119.578.578 0 0 1-.07-.294c0-.051.003-.089.007-.112-.004-.075.038-.112.126-.112.066 0 .131.016.196.049.07.028.091.049.063.063.047.121.07.217.07.287a.24.24 0 0 1-.042.147.41.41 0 0 1-.119.091Zm1.629 3.871a.833.833 0 0 1-.112.028c-.037 0-.077-.019-.119-.056-.154-.229-.266-.628-.336-1.197-.065-.57-.098-1.06-.098-1.47 0-.065.047-.098.14-.098.14 0 .21.077.21.231a.619.619 0 0 1-.007.105.88.88 0 0 1 .238-.301c.117-.103.252-.189.406-.259.154-.07.31-.105.469-.105.499 0 .863.222 1.092.665.229.439.343.985.343 1.638 0 .224-.023.404-.07.539-.047.13-.11.196-.189.196-.084 0-.126-.026-.126-.077a5.5 5.5 0 0 0 .049-.728c0-.602-.105-1.057-.315-1.365-.21-.313-.488-.469-.833-.469a1.036 1.036 0 0 0-.868.476.947.947 0 0 0-.14.511c0 .215.012.401.035.56.023.159.061.35.112.574.056.22.096.42.119.602ZM81.089 28a5.496 5.496 0 0 1-.455-1.316 6.408 6.408 0 0 1-.16-1.309c0-.145.032-.238.097-.28.038-.023.066-.035.084-.035.033 0 .056.026.07.077.019.051.038.145.056.28l.035.252c.052-.252.15-.45.294-.595a.743.743 0 0 1 .546-.224c.238 0 .416.047.532.14.117.089.175.238.175.448a1.492 1.492 0 0 0-.637-.168.76.76 0 0 0-.469.147.77.77 0 0 0-.273.434 1.214 1.214 0 0 0-.014.728c.038.107.094.24.168.399.07.163.124.303.161.42.042.117.066.243.07.378 0 .08-.028.138-.084.175a.382.382 0 0 1-.196.049Zm3.35 0c-.485 0-.907-.084-1.267-.252-.354-.173-.532-.474-.532-.903a.82.82 0 0 1 .14-.448.993.993 0 0 1 .413-.35 1.45 1.45 0 0 1 .665-.14c.201 0 .371.01.511.028.14.019.301.07.483.154.182.084.371.217.567.399a2.822 2.822 0 0 0-.336-.847 1.858 1.858 0 0 0-.504-.56c-.182-.135-.361-.203-.539-.203a.586.586 0 0 0-.238.049c-.07.028-.156.07-.259.126-.116.075-.203.112-.259.112a.102.102 0 0 1-.063-.021.103.103 0 0 1-.02-.063c0-.187.081-.331.244-.434.168-.103.371-.15.61-.14.326.019.625.159.895.42.271.257.483.576.637.959.159.383.238.758.238 1.127 0 .06-.004.147-.014.259l-.224-.014c-.177-.36-.406-.614-.686-.763a1.691 1.691 0 0 0-.833-.231c-.359 0-.616.054-.77.161a.536.536 0 0 0-.23.469c0 .215.107.387.321.518.215.13.49.196.826.196.187 0 .336-.01.448-.028.112-.023.229-.054.35-.091.098-.033.185-.056.26-.07.074-.014.17-.021.286-.021.131 0 .213.01.245.028.038.019.056.06.056.126 0 .047-.095.105-.287.175-.191.07-.406.133-.644.189a2.603 2.603 0 0 1-.49.084Zm3.109 0a.618.618 0 0 1-.091.014c-.145 0-.245-.107-.301-.322-.052-.215-.077-.516-.077-.903 0-.159.004-.406.014-.742.009-.205.014-.36.014-.462-.574 0-.861-.065-.861-.196 0-.042.004-.075.014-.098.014-.023.042-.035.084-.035l.763-.049a15.432 15.432 0 0 0-.035-.749c-.019-.243-.03-.467-.035-.672 0-.051.02-.086.063-.105a.27.27 0 0 1 .133-.035c.056 0 .102.03.14.091a.31.31 0 0 1 .056.175l.049 1.281.58.028a.322.322 0 0 1 .225.049c.065.042.1.112.105.21a1.017 1.017 0 0 1-.322.077 8.46 8.46 0 0 1-.588.014c0 .434.02 1.148.063 2.142v.217l.007.07Zm1.693.007c-.107 0-.194-.156-.259-.469a6.979 6.979 0 0 1-.126-.819 78.33 78.33 0 0 1-.077-1.085 5.423 5.423 0 0 1-.007-.308c0-.159.012-.268.035-.329.028-.06.072-.091.133-.091.052 0 .091.012.12.035.032.019.06.051.083.098l-.007.28c0 .299.014.581.042.847.033.266.082.623.147 1.071.037.196.063.357.077.483a.327.327 0 0 1-.035.196c-.032.06-.075.091-.126.091Zm-.175-3.85a.257.257 0 0 1-.23-.119.57.57 0 0 1-.07-.294c0-.051.001-.089.006-.112-.005-.075.037-.112.126-.112a.43.43 0 0 1 .196.049c.07.028.091.049.063.063.047.121.07.217.07.287a.24.24 0 0 1-.042.147.419.419 0 0 1-.119.091Zm2.413 3.85a1.54 1.54 0 0 1-.749-.182 1.38 1.38 0 0 1-.518-.518 1.576 1.576 0 0 1-.182-.763c0-.467.17-.814.511-1.043.345-.229.768-.343 1.267-.343.229 0 .441.056.637.168.2.112.362.273.483.483.121.21.182.453.182.728 0 .299-.077.56-.231.784-.154.22-.357.39-.609.511a1.83 1.83 0 0 1-.791.175Zm-.077-.399c.434 0 .763-.098.987-.294.224-.196.336-.483.336-.861a.933.933 0 0 0-.266-.665c-.173-.187-.415-.28-.728-.28-.21 0-.422.04-.637.119-.215.08-.392.198-.532.357a.838.838 0 0 0-.21.574c0 .187.047.362.14.525.093.159.22.287.378.385.163.093.34.14.532.14Zm2.93.42a.83.83 0 0 1-.112.028c-.038 0-.077-.019-.12-.056-.153-.229-.265-.628-.335-1.197a13.17 13.17 0 0 1-.098-1.47c0-.065.046-.098.14-.098.14 0 .21.077.21.231a.652.652 0 0 1-.007.105.885.885 0 0 1 .238-.301 1.61 1.61 0 0 1 .406-.259c.154-.07.31-.105.469-.105.5 0 .863.222 1.092.665.228.439.343.985.343 1.638 0 .224-.024.404-.07.539-.047.13-.11.196-.19.196-.083 0-.125-.026-.125-.077a5.55 5.55 0 0 0 .049-.728c0-.602-.105-1.057-.315-1.365-.21-.313-.488-.469-.833-.469a1.035 1.035 0 0 0-.868.476.944.944 0 0 0-.14.511c0 .215.011.401.035.56.023.159.06.35.112.574.056.22.095.42.119.602Zm9.08-.021c-.07 0-.112-.019-.126-.056a.637.637 0 0 1-.021-.189.752.752 0 0 0 .007-.112.55.55 0 0 1 .007-.105c.028-.224.042-.436.042-.637 0-.443-.075-.789-.224-1.036-.149-.252-.385-.378-.707-.378a1.18 1.18 0 0 0-.532.133 1.386 1.386 0 0 0-.427.329c-.107.13-.161.25-.161.357.023.135.065.301.126.497.005.023.023.096.056.217.037.121.056.231.056.329l.007.133c0 .075-.037.112-.112.112-.093 0-.17-.06-.231-.182a3.925 3.925 0 0 1-.189-.567 6.24 6.24 0 0 0-.203-.623 1.286 1.286 0 0 0-.266-.42.566.566 0 0 0-.427-.175.688.688 0 0 0-.56.245.933.933 0 0 0-.196.602c0 .159.014.369.042.63.023.196.035.364.035.504a.5.5 0 0 1-.028.189c-.019.042-.063.063-.133.063-.094 0-.159-.03-.196-.091a.607.607 0 0 1-.056-.294c0-.257-.014-.567-.042-.931a19.072 19.072 0 0 1-.028-.357 4.93 4.93 0 0 1-.007-.588l.007-.231a.134.134 0 0 1 .098-.042c.051 0 .093.033.126.098a.55.55 0 0 1 .056.28 1.07 1.07 0 0 1 .308-.329.717.717 0 0 1 .427-.147c.257 0 .469.054.637.161.173.103.329.27.469.504.131-.238.327-.441.588-.609.266-.168.539-.252.819-.252.289 0 .53.11.721.329a2 2 0 0 1 .427.791c.093.308.14.593.14.854 0 .233-.021.457-.063.672-.037.215-.126.322-.266.322Zm2.711-1.841a.32.32 0 0 1-.203-.077.228.228 0 0 1-.077-.161c0-.056.019-.107.056-.154a.173.173 0 0 1 .14-.07.24.24 0 0 1 .175.077c.052.051.077.11.077.175 0 .014-.004.04-.014.077a.29.29 0 0 1-.063.112c-.023.019-.053.026-.091.021Zm-.042 1.379a.252.252 0 0 1-.175-.063.227.227 0 0 1-.063-.168c0-.07.021-.126.063-.168a.252.252 0 0 1 .175-.063c.08 0 .14.021.182.063a.227.227 0 0 1 .063.168c0 .154-.081.231-.245.231Zm2.982.483a.833.833 0 0 1-.112.028c-.037 0-.077-.019-.119-.056-.154-.229-.266-.628-.336-1.197-.065-.57-.098-1.06-.098-1.47 0-.065.047-.098.14-.098.14 0 .21.077.21.231a.619.619 0 0 1-.007.105.88.88 0 0 1 .238-.301c.117-.103.252-.189.406-.259.154-.07.31-.105.469-.105.499 0 .863.222 1.092.665.229.439.343.985.343 1.638 0 .224-.023.404-.07.539-.047.13-.11.196-.189.196-.084 0-.126-.026-.126-.077a5.5 5.5 0 0 0 .049-.728c0-.602-.105-1.057-.315-1.365-.21-.313-.488-.469-.833-.469a1.036 1.036 0 0 0-.868.476.947.947 0 0 0-.14.511c0 .215.012.401.035.56.023.159.061.35.112.574.056.22.096.42.119.602Zm5.664-.028a.607.607 0 0 1-.091.014c-.144 0-.245-.107-.301-.322-.051-.215-.077-.516-.077-.903 0-.159.005-.406.014-.742.01-.205.014-.36.014-.462-.574 0-.861-.065-.861-.196a.28.28 0 0 1 .014-.098c.014-.023.042-.035.084-.035l.763-.049a14.367 14.367 0 0 0-.035-.749 13.69 13.69 0 0 1-.035-.672c0-.051.021-.086.063-.105a.272.272 0 0 1 .133-.035c.056 0 .103.03.14.091a.306.306 0 0 1 .056.175l.049 1.281.581.028a.32.32 0 0 1 .224.049c.066.042.101.112.105.21a1.015 1.015 0 0 1-.322.077c-.116.01-.312.014-.588.014 0 .434.021 1.148.063 2.142v.217a.66.66 0 0 1 .007.07Zm1.995-.014c-.023.005-.049-.084-.077-.266a34.36 34.36 0 0 1-.098-.938 41.714 41.714 0 0 0-.224-2.002 11.869 11.869 0 0 0-.301-1.575c-.009-.037.005-.07.042-.098a.251.251 0 0 1 .154-.042.33.33 0 0 1 .077.007c.117.317.198.597.245.84.051.243.098.541.14.896l.035.273c.28-.168.537-.252.77-.252.425 0 .726.194.903.581.182.383.273.929.273 1.638 0 .27-.016.5-.049.686-.033.182-.072.273-.119.273-.061 0-.128-.044-.203-.133v-.231l.007-.763c0-.145-.005-.324-.014-.539-.014-.364-.089-.64-.224-.826-.131-.187-.357-.28-.679-.28a.913.913 0 0 0-.602.238c0 .177.007.36.021.546.019.187.04.369.063.546a11.208 11.208 0 0 1 .098 1.281.239.239 0 0 1-.098.112.285.285 0 0 1-.14.028Zm4.204.014a1.94 1.94 0 0 1-.826-.175 1.465 1.465 0 0 1-.602-.497 1.27 1.27 0 0 1-.224-.742c0-.313.058-.604.175-.875.117-.275.287-.495.511-.658.229-.168.495-.252.798-.252.317 0 .558.103.721.308.163.2.24.455.231.763a.71.71 0 0 1-.329.63c-.215.145-.49.217-.826.217a2.97 2.97 0 0 1-.231-.014 1.254 1.254 0 0 1-.357-.077c-.07-.033-.105-.098-.105-.196 0-.033.009-.056.028-.07.019-.019.056-.028.112-.028.061 0 .168.014.322.042.149.028.282.042.399.042.429 0 .644-.187.644-.56 0-.224-.042-.401-.126-.532-.079-.13-.222-.196-.427-.196-.224 0-.425.06-.602.182-.177.117-.315.27-.413.462-.093.191-.14.394-.14.609 0 .369.103.672.308.91.205.233.523.35.952.35.051 0 .138-.005.259-.014a.956.956 0 0 0 .189-.042 7.79 7.79 0 0 1 .161-.049c.201-.07.348-.105.441-.105.07 0 .124.019.161.056a1.018 1.018 0 0 1-.525.392c-.229.08-.455.119-.679.119Zm2.151.028a.833.833 0 0 1-.112.028c-.037 0-.077-.019-.119-.056-.154-.229-.266-.628-.336-1.197-.065-.57-.098-1.06-.098-1.47 0-.065.047-.098.14-.098.14 0 .21.077.21.231a.619.619 0 0 1-.007.105.88.88 0 0 1 .238-.301c.117-.103.252-.189.406-.259.154-.07.31-.105.469-.105.499 0 .863.222 1.092.665.229.439.343.985.343 1.638 0 .224-.023.404-.07.539-.047.13-.11.196-.189.196-.084 0-.126-.026-.126-.077a5.5 5.5 0 0 0 .049-.728c0-.602-.105-1.057-.315-1.365-.21-.313-.488-.469-.833-.469a1.036 1.036 0 0 0-.868.476.947.947 0 0 0-.14.511c0 .215.012.401.035.56.023.159.061.35.112.574.056.22.096.42.119.602Zm5.531-.308a9.411 9.411 0 0 1-.203-1.071c-.047-.364-.089-.961-.126-1.792 0-.056.019-.105.056-.147a.195.195 0 0 1 .14-.063h.063c.023.154.04.401.049.742 0 .037.005.163.014.378.009.21.033.408.07.595.541-.051.973-.156 1.295-.315.327-.159.49-.385.49-.679 0-.369-.163-.67-.49-.903-.327-.233-.819-.35-1.477-.35a1.46 1.46 0 0 0-.7.154c-.033.014-.056.044-.07.091a.94.94 0 0 0-.035.182.958.958 0 0 1-.035.189c-.014.042-.04.063-.077.063-.042 0-.07-.03-.084-.091a4.228 4.228 0 0 1-.014-.441c0-.13.089-.233.266-.308.177-.075.406-.112.686-.112.817 0 1.423.128 1.82.385s.595.651.595 1.183a.893.893 0 0 1-.343.714 2.236 2.236 0 0 1-.833.427 3.578 3.578 0 0 1-.938.133c.009.056.019.107.028.154l.021.119c.065.317.098.562.098.735a.593.593 0 0 1-.042.245c-.023.06-.077.082-.161.063l-.063-.28Zm7.172-2.352c0 .06-.049.103-.147.126a2.299 2.299 0 0 1-.455.042 4.97 4.97 0 0 1-.168.651 3.58 3.58 0 0 1-.273.609l.672 1.029c-.028.047-.084.07-.168.07l-.112-.007a15.87 15.87 0 0 1-.581-.763c-.196.317-.371.546-.525.686a.82.82 0 0 1-.56.203.698.698 0 0 1-.483-.182.635.635 0 0 1-.196-.49c0-.21.044-.413.133-.609a7.1 7.1 0 0 1 .392-.735c.117-.2.203-.357.259-.469.061-.117.107-.231.14-.343.005-.336.016-.677.035-1.022.014-.28.021-.511.021-.693 0-.22.093-.329.28-.329a.43.43 0 0 1 .378.217c.093.14.14.317.14.532 0 .21-.044.439-.133.686a5.525 5.525 0 0 1-.399.854c.028.135.084.29.168.462.089.168.205.371.35.609.252-.509.366-.929.343-1.26 0-.051.079-.077.238-.077l.343.007c.121 0 .203.012.245.035.042.019.063.072.063.161Zm-2.268 2.296c.154 0 .296-.06.427-.182.135-.126.278-.331.427-.616a20.144 20.144 0 0 1-.602-.959 10.44 10.44 0 0 0-.469.868 1.37 1.37 0 0 0-.126.567c0 .107.03.189.091.245a.38.38 0 0 0 .252.077Zm8.729.987a.352.352 0 0 1-.245.105c-.131 0-.282-.065-.455-.196-.173-.13-.439-.362-.798-.693a41.807 41.807 0 0 1-.49.077l-.322.049a1.885 1.885 0 0 1-1.141-.252 1.994 1.994 0 0 1-.7-.707 1.832 1.832 0 0 1-.259-.945c0-.322.063-.614.189-.875s.294-.464.504-.609c.215-.15.446-.224.693-.224.476 0 .926.117 1.351.35a2.95 2.95 0 0 1 1.022.882c.257.355.385.71.385 1.064 0 .2-.079.387-.238.56a2.268 2.268 0 0 1-.616.469c.187.159.387.31.602.455.159.103.278.189.357.259.079.07.133.147.161.231Zm-2.527-1.106a3.043 3.043 0 0 0 .637-.063 6.024 6.024 0 0 1-.455-.546c-.098-.15-.147-.273-.147-.371 0-.08.035-.142.105-.189.079 0 .163.051.252.154.093.103.21.257.35.462.121.191.215.32.28.385.271-.07.488-.168.651-.294.168-.126.252-.275.252-.448 0-.285-.098-.572-.294-.861a2.268 2.268 0 0 0-.833-.721 2.462 2.462 0 0 0-1.211-.294c-.336 0-.6.126-.791.378-.191.247-.287.565-.287.952-.019.275.037.525.168.749.135.22.32.392.553.518.238.126.495.189.77.189Zm6.276.455c-.485 0-.908-.084-1.267-.252-.355-.173-.532-.474-.532-.903a.82.82 0 0 1 .14-.448.991.991 0 0 1 .413-.35 1.45 1.45 0 0 1 .665-.14c.201 0 .371.01.511.028.14.019.301.07.483.154.182.084.371.217.567.399a2.838 2.838 0 0 0-.336-.847 1.847 1.847 0 0 0-.504-.56c-.182-.135-.362-.203-.539-.203a.588.588 0 0 0-.238.049c-.07.028-.156.07-.259.126-.117.075-.203.112-.259.112a.104.104 0 0 1-.063-.021.103.103 0 0 1-.021-.063c0-.187.082-.331.245-.434.168-.103.371-.15.609-.14.327.019.625.159.896.42.271.257.483.576.637.959.159.383.238.758.238 1.127 0 .06-.005.147-.014.259l-.224-.014c-.177-.36-.406-.614-.686-.763a1.69 1.69 0 0 0-.833-.231c-.359 0-.616.054-.77.161a.536.536 0 0 0-.231.469c0 .215.107.387.322.518.215.13.49.196.826.196.187 0 .336-.01.448-.028.112-.023.229-.054.35-.091.098-.033.184-.056.259-.07.075-.014.17-.021.287-.021.131 0 .212.01.245.028.037.019.056.06.056.126 0 .047-.096.105-.287.175-.191.07-.406.133-.644.189a2.598 2.598 0 0 1-.49.084Zm2.597 0a5.513 5.513 0 0 1-.455-1.316 6.437 6.437 0 0 1-.161-1.309c0-.145.033-.238.098-.28.038-.023.066-.035.084-.035.033 0 .056.026.07.077.019.051.038.145.056.28l.035.252c.052-.252.15-.45.294-.595a.745.745 0 0 1 .546-.224c.238 0 .416.047.532.14.117.089.175.238.175.448a1.488 1.488 0 0 0-.637-.168.76.76 0 0 0-.469.147.777.777 0 0 0-.273.434 1.214 1.214 0 0 0-.014.728c.038.107.094.24.168.399.07.163.124.303.161.42.042.117.066.243.07.378 0 .08-.028.138-.084.175a.38.38 0 0 1-.196.049Zm3.203 0a1.94 1.94 0 0 1-.826-.175 1.472 1.472 0 0 1-.602-.497 1.27 1.27 0 0 1-.224-.742c0-.313.059-.604.175-.875.117-.275.287-.495.511-.658.229-.168.495-.252.798-.252.318 0 .558.103.721.308.164.2.241.455.231.763a.707.707 0 0 1-.329.63c-.214.145-.49.217-.826.217a2.97 2.97 0 0 1-.231-.014 1.254 1.254 0 0 1-.357-.077c-.07-.033-.105-.098-.105-.196 0-.033.01-.056.028-.07.019-.019.056-.028.112-.028.061 0 .168.014.322.042.15.028.283.042.399.042.43 0 .644-.187.644-.56 0-.224-.042-.401-.126-.532-.079-.13-.221-.196-.427-.196-.224 0-.424.06-.602.182-.177.117-.315.27-.413.462-.093.191-.14.394-.14.609 0 .369.103.672.308.91.206.233.523.35.952.35.052 0 .138-.005.259-.014a.927.927 0 0 0 .189-.042l.161-.049c.201-.07.348-.105.441-.105.07 0 .124.019.161.056a1.01 1.01 0 0 1-.525.392 2.06 2.06 0 0 1-.679.119Zm4.958.007c-.546 0-.971-.124-1.274-.371-.299-.252-.448-.64-.448-1.162a1.612 1.612 0 0 1 .735-1.337c.229-.15.474-.224.735-.224.266 0 .492.058.679.175.187.112.28.275.28.49 0 .15-.028.257-.084.322a.226.226 0 0 1-.175.091.805.805 0 0 0-.182-.546c-.121-.14-.294-.21-.518-.21a.947.947 0 0 0-.581.182 1.146 1.146 0 0 0-.378.469 1.481 1.481 0 0 0-.126.602c0 .443.149.744.448.903.303.159.702.238 1.197.238.168 0 .387-.01.658-.028.009 0 .03.01.063.028.033.019.058.03.077.035v.042c0 .135-.119.22-.357.252a5.506 5.506 0 0 1-.749.049Zm3.187-.007c-.485 0-.907-.084-1.267-.252-.354-.173-.532-.474-.532-.903a.82.82 0 0 1 .14-.448.998.998 0 0 1 .413-.35 1.45 1.45 0 0 1 .665-.14c.201 0 .371.01.511.028.14.019.301.07.483.154.182.084.371.217.567.399a2.786 2.786 0 0 0-.336-.847 1.847 1.847 0 0 0-.504-.56c-.182-.135-.361-.203-.539-.203a.588.588 0 0 0-.238.049c-.07.028-.156.07-.259.126-.116.075-.203.112-.259.112a.104.104 0 0 1-.063-.021.103.103 0 0 1-.021-.063c0-.187.082-.331.245-.434.168-.103.371-.15.609-.14.327.019.626.159.896.42.271.257.483.576.637.959.159.383.238.758.238 1.127 0 .06-.004.147-.014.259l-.224-.014c-.177-.36-.406-.614-.686-.763a1.69 1.69 0 0 0-.833-.231c-.359 0-.616.054-.77.161a.536.536 0 0 0-.231.469c0 .215.108.387.322.518.215.13.49.196.826.196.187 0 .336-.01.448-.028.112-.023.229-.054.35-.091.098-.033.185-.056.259-.07.075-.014.171-.021.287-.021.131 0 .213.01.245.028.038.019.056.06.056.126 0 .047-.095.105-.287.175-.191.07-.406.133-.644.189a2.598 2.598 0 0 1-.49.084Zm2.367-.049a15.513 15.513 0 0 1-.238-1.806c-.052-.7-.077-1.377-.077-2.03 0-.327.007-.616.021-.868 0-.06.046-.091.14-.091.074 0 .121.019.14.056a.343.343 0 0 1 .035.175c0 .756.014 1.402.042 1.939.028.532.065 1.106.112 1.722l.056.805c.004.075-.035.112-.119.112a.599.599 0 0 1-.112-.014Zm1.176 0a15.513 15.513 0 0 1-.238-1.806c-.052-.7-.077-1.377-.077-2.03 0-.327.007-.616.021-.868 0-.06.046-.091.14-.091.074 0 .121.019.14.056a.343.343 0 0 1 .035.175c0 .756.014 1.402.042 1.939.028.532.065 1.106.112 1.722l.056.805c.004.075-.035.112-.119.112a.599.599 0 0 1-.112-.014Zm2.442.049a1.94 1.94 0 0 1-.826-.175 1.472 1.472 0 0 1-.602-.497 1.27 1.27 0 0 1-.224-.742c0-.313.059-.604.175-.875.117-.275.287-.495.511-.658.229-.168.495-.252.798-.252.318 0 .558.103.721.308.164.2.241.455.231.763a.707.707 0 0 1-.329.63c-.214.145-.49.217-.826.217a2.97 2.97 0 0 1-.231-.014 1.254 1.254 0 0 1-.357-.077c-.07-.033-.105-.098-.105-.196 0-.033.01-.056.028-.07.019-.019.056-.028.112-.028.061 0 .168.014.322.042.15.028.283.042.399.042.43 0 .644-.187.644-.56 0-.224-.042-.401-.126-.532-.079-.13-.221-.196-.427-.196-.224 0-.424.06-.602.182-.177.117-.315.27-.413.462-.093.191-.14.394-.14.609 0 .369.103.672.308.91.206.233.523.35.952.35.052 0 .138-.005.259-.014a.927.927 0 0 0 .189-.042l.161-.049c.201-.07.348-.105.441-.105.07 0 .124.019.161.056a1.01 1.01 0 0 1-.525.392 2.06 2.06 0 0 1-.679.119Zm2.683-.007a.824.824 0 0 1-.574-.224 1.435 1.435 0 0 1-.364-.581 2.34 2.34 0 0 1-.119-.742c0-.448.093-.826.28-1.134.191-.308.481-.462.868-.462.233 0 .436.042.609.126.177.08.408.215.693.406l.182.126a6.728 6.728 0 0 0-.105-.532 10.6 10.6 0 0 1-.091-.413c-.079-.364-.138-.635-.175-.812a2.74 2.74 0 0 1-.049-.483c0-.247.07-.371.21-.371.051.112.112.352.182.721.07.364.159.863.266 1.498.112.672.21 1.22.294 1.645.084.425.154.69.21.798 0 .107-.079.161-.238.161-.121 0-.205-.07-.252-.21-.042-.14-.068-.385-.077-.735h-.056a2.66 2.66 0 0 1-.763.875c-.313.229-.623.343-.931.343Zm.091-.343c.191 0 .397-.08.616-.238a2.34 2.34 0 0 0 .567-.588c.154-.233.231-.443.231-.63v-.21c-.481-.504-.924-.756-1.33-.756-.285 0-.504.105-.658.315-.154.205-.231.476-.231.812l.007.147c.028.355.107.635.238.84a.626.626 0 0 0 .56.308ZM86.808 38c-.117.023-.199-.033-.245-.168-.047-.14-.073-.345-.077-.616a21.92 21.92 0 0 0-.042-.994 5.22 5.22 0 0 0-.084-.728 25.304 25.304 0 0 1-1.918.812l.014 1.491c0 .07-.042.114-.126.133-.112.023-.187-.04-.224-.189a4.808 4.808 0 0 1-.07-.721 5.931 5.931 0 0 0-.042-.623.7.7 0 0 1-.336.091.609.609 0 0 1-.028-.231l.133-.049a.309.309 0 0 0 .119-.063.161.161 0 0 0 .042-.119c0-.233-.024-.593-.07-1.078a9.686 9.686 0 0 1-.077-1.085l.007-.322c.014-.033.03-.054.049-.063a.25.25 0 0 1 .09-.014c.08 0 .12.026.12.077l.287 2.464c.13-.033.347-.117.65-.252.304-.135.77-.355 1.4-.658l.029-1.554c0-.182.067-.273.203-.273.056 0 .093.021.112.063.023.042.03.112.02.21l-.006 1.211c0 .41.023.945.07 1.603.014.13.025.257.035.378.014.117.025.229.035.336.028.29.046.474.056.553a.862.862 0 0 0 .063.203c-.023.093-.087.152-.19.175Zm2.618 0c-.485 0-.907-.084-1.267-.252-.355-.173-.532-.474-.532-.903a.82.82 0 0 1 .14-.448.993.993 0 0 1 .413-.35 1.45 1.45 0 0 1 .665-.14c.2 0 .371.01.511.028.14.019.301.07.483.154.182.084.371.217.567.399a2.822 2.822 0 0 0-.336-.847 1.858 1.858 0 0 0-.504-.56c-.182-.135-.362-.203-.539-.203a.586.586 0 0 0-.238.049c-.07.028-.156.07-.259.126-.117.075-.203.112-.259.112a.102.102 0 0 1-.063-.021.103.103 0 0 1-.02-.063c0-.187.08-.331.244-.434.168-.103.371-.15.61-.14.326.019.624.159.895.42.27.257.483.576.637.959.159.383.238.758.238 1.127 0 .06-.004.147-.014.259l-.224-.014c-.177-.36-.406-.614-.686-.763a1.691 1.691 0 0 0-.833-.231c-.36 0-.616.054-.77.161a.536.536 0 0 0-.23.469c0 .215.106.387.321.518.215.13.49.196.826.196.187 0 .336-.01.448-.028.112-.023.229-.054.35-.091.098-.033.184-.056.26-.07.074-.014.17-.021.286-.021.13 0 .212.01.245.028.038.019.056.06.056.126 0 .047-.096.105-.287.175-.191.07-.406.133-.644.189a2.603 2.603 0 0 1-.49.084Zm2.597 0a5.5 5.5 0 0 1-.455-1.316 6.415 6.415 0 0 1-.16-1.309c0-.145.032-.238.097-.28.038-.023.066-.035.084-.035.033 0 .056.026.07.077.02.051.038.145.056.28l.035.252c.052-.252.15-.45.294-.595a.743.743 0 0 1 .546-.224c.238 0 .416.047.532.14.117.089.175.238.175.448a1.491 1.491 0 0 0-.637-.168.76.76 0 0 0-.469.147.77.77 0 0 0-.273.434 1.214 1.214 0 0 0-.014.728c.038.107.094.24.168.399.07.163.124.303.161.42.042.117.066.243.07.378 0 .08-.028.138-.084.175a.382.382 0 0 1-.196.049Zm6.094.007c-.07 0-.112-.019-.126-.056a.637.637 0 0 1-.02-.189.794.794 0 0 0 .006-.112c0-.047.003-.082.007-.105.028-.224.042-.436.042-.637 0-.443-.074-.789-.224-1.036-.149-.252-.385-.378-.707-.378a1.18 1.18 0 0 0-.532.133 1.39 1.39 0 0 0-.427.329c-.107.13-.16.25-.16.357.023.135.065.301.125.497l.056.217c.038.121.056.231.056.329l.007.133c0 .075-.037.112-.112.112-.093 0-.17-.06-.23-.182a3.925 3.925 0 0 1-.19-.567 6.138 6.138 0 0 0-.203-.623 1.291 1.291 0 0 0-.266-.42.566.566 0 0 0-.427-.175.688.688 0 0 0-.56.245.933.933 0 0 0-.196.602c0 .159.014.369.042.63.024.196.035.364.035.504a.481.481 0 0 1-.028.189c-.018.042-.063.063-.133.063-.093 0-.158-.03-.196-.091a.608.608 0 0 1-.056-.294c0-.257-.014-.567-.042-.931a20.054 20.054 0 0 1-.028-.357 4.952 4.952 0 0 1-.007-.588l.007-.231a.134.134 0 0 1 .098-.042c.052 0 .094.033.126.098.038.06.056.154.056.28.07-.121.173-.231.308-.329a.717.717 0 0 1 .427-.147c.257 0 .47.054.637.161.173.103.33.27.47.504a1.7 1.7 0 0 1 .587-.609c.266-.168.54-.252.82-.252.289 0 .53.11.72.329.196.22.339.483.427.791.094.308.14.593.14.854 0 .233-.02.457-.063.672-.037.215-.126.322-.266.322Zm2.341 0a1.54 1.54 0 0 1-.749-.182 1.38 1.38 0 0 1-.518-.518 1.576 1.576 0 0 1-.182-.763c0-.467.17-.814.511-1.043.345-.229.768-.343 1.267-.343.229 0 .441.056.637.168.201.112.362.273.483.483.121.21.182.453.182.728 0 .299-.077.56-.231.784-.154.22-.357.39-.609.511a1.83 1.83 0 0 1-.791.175Zm-.077-.399c.434 0 .763-.098.987-.294.224-.196.336-.483.336-.861a.934.934 0 0 0-.266-.665c-.173-.187-.415-.28-.728-.28-.21 0-.422.04-.637.119-.215.08-.392.198-.532.357a.838.838 0 0 0-.21.574c0 .187.047.362.14.525.093.159.22.287.378.385.163.093.341.14.532.14Zm2.93.42a.875.875 0 0 1-.112.028c-.038 0-.077-.019-.119-.056-.154-.229-.266-.628-.336-1.197-.066-.57-.098-1.06-.098-1.47 0-.065.046-.098.14-.098.14 0 .21.077.21.231a.744.744 0 0 1-.007.105.88.88 0 0 1 .238-.301 1.61 1.61 0 0 1 .406-.259c.154-.07.31-.105.469-.105.499 0 .863.222 1.092.665.228.439.343.985.343 1.638 0 .224-.024.404-.07.539-.047.13-.11.196-.189.196-.084 0-.126-.026-.126-.077a5.67 5.67 0 0 0 .049-.728c0-.602-.105-1.057-.315-1.365-.21-.313-.488-.469-.833-.469a1.033 1.033 0 0 0-.868.476.938.938 0 0 0-.14.511c0 .215.011.401.035.56.023.159.06.35.112.574.056.22.095.42.119.602Zm3.256-.021c-.107 0-.194-.156-.259-.469a7.108 7.108 0 0 1-.126-.819 78.33 78.33 0 0 1-.077-1.085 5.155 5.155 0 0 1-.007-.308c0-.159.012-.268.035-.329.028-.06.072-.091.133-.091.051 0 .091.012.119.035a.218.218 0 0 1 .084.098l-.007.28c0 .299.014.581.042.847.033.266.082.623.147 1.071.037.196.063.357.077.483a.327.327 0 0 1-.035.196c-.033.06-.075.091-.126.091Zm-.175-3.85a.256.256 0 0 1-.231-.119.568.568 0 0 1-.07-.294c0-.051.002-.089.007-.112-.005-.075.037-.112.126-.112a.43.43 0 0 1 .196.049c.07.028.091.049.063.063.047.121.07.217.07.287a.24.24 0 0 1-.042.147.423.423 0 0 1-.119.091Zm2.686 3.85c-.546 0-.971-.124-1.274-.371-.299-.252-.448-.64-.448-1.162a1.612 1.612 0 0 1 .735-1.337c.228-.15.473-.224.735-.224.266 0 .492.058.679.175a.54.54 0 0 1 .28.49c0 .15-.028.257-.084.322-.052.06-.11.091-.175.091a.805.805 0 0 0-.182-.546c-.122-.14-.294-.21-.518-.21a.947.947 0 0 0-.581.182 1.13 1.13 0 0 0-.378.469 1.481 1.481 0 0 0-.126.602c0 .443.149.744.448.903.303.159.702.238 1.197.238.168 0 .387-.01.658-.028.009 0 .03.01.063.028.032.019.058.03.077.035v.042c0 .135-.119.22-.357.252a5.506 5.506 0 0 1-.749.049Zm4.734.07a1.31 1.31 0 0 1-.826-.266 1.666 1.666 0 0 1-.525-.728 2.941 2.941 0 0 1-.175-1.05c0-.439.103-.854.308-1.246.205-.397.474-.714.805-.952.336-.243.684-.364 1.043-.364.303 0 .537.068.7.203.163.135.245.294.245.476a.487.487 0 0 1-.098.294.566.566 0 0 1-.266.203.314.314 0 0 1-.021-.133.69.69 0 0 1 .021-.168c.009-.075.014-.128.014-.161a.302.302 0 0 0-.021-.119c-.065-.163-.243-.245-.532-.245-.079 0-.173.007-.28.021-.247.033-.492.156-.735.371-.243.21-.441.474-.595.791a2.206 2.206 0 0 0-.231.973c0 .29.047.565.14.826.098.257.238.464.42.623a.958.958 0 0 0 .651.238c.327 0 .597-.04.812-.119.219-.08.434-.2.644-.364a.12.12 0 0 1 .077-.028c.051 0 .086.03.105.091.023.112-.051.233-.224.364-.173.13-.397.243-.672.336a2.558 2.558 0 0 1-.784.133Zm3.695-.07c-.276 0-.525-.06-.749-.182a1.375 1.375 0 0 1-.518-.518 1.569 1.569 0 0 1-.182-.763c0-.467.17-.814.511-1.043.345-.229.767-.343 1.267-.343.228 0 .441.056.637.168.2.112.361.273.483.483.121.21.182.453.182.728 0 .299-.077.56-.231.784-.154.22-.357.39-.609.511a1.833 1.833 0 0 1-.791.175Zm-.077-.399c.434 0 .763-.098.987-.294.224-.196.336-.483.336-.861a.934.934 0 0 0-.266-.665c-.173-.187-.416-.28-.728-.28-.21 0-.423.04-.637.119a1.29 1.29 0 0 0-.532.357.838.838 0 0 0-.21.574c0 .187.046.362.14.525a1.1 1.1 0 0 0 .378.385c.163.093.34.14.532.14Zm2.93.42a.875.875 0 0 1-.112.028c-.038 0-.077-.019-.119-.056-.154-.229-.266-.628-.336-1.197-.066-.57-.098-1.06-.098-1.47 0-.065.046-.098.14-.098.14 0 .21.077.21.231a.744.744 0 0 1-.007.105.88.88 0 0 1 .238-.301 1.61 1.61 0 0 1 .406-.259c.154-.07.31-.105.469-.105.499 0 .863.222 1.092.665.228.439.343.985.343 1.638 0 .224-.024.404-.07.539-.047.13-.11.196-.189.196-.084 0-.126-.026-.126-.077a5.67 5.67 0 0 0 .049-.728c0-.602-.105-1.057-.315-1.365-.21-.313-.488-.469-.833-.469a1.033 1.033 0 0 0-.868.476.938.938 0 0 0-.14.511c0 .215.011.401.035.56.023.159.06.35.112.574.056.22.095.42.119.602Zm3.228 2.898c-.402 0-.735-.163-1.001-.49-.266-.322-.43-.786-.49-1.393v-.098a.202.202 0 0 1 .028-.133c.018-.033.051-.054.098-.063.023.005.046.035.07.091.018.056.042.152.07.287.06.266.128.497.203.693.074.196.189.371.343.525a.805.805 0 0 0 .595.231c.196 0 .331-.054.406-.161.079-.107.123-.278.133-.511l.007-.294c0-.616-.056-1.25-.168-1.904a35.608 35.608 0 0 0-.462-2.275c.004-.019.009-.047.014-.084.004-.042.018-.07.042-.084a.313.313 0 0 1 .133-.021c.102.06.214.362.336.903.126.537.231 1.157.315 1.862.088.71.133 1.325.133 1.848 0 .378-.075.651-.224.819a.742.742 0 0 1-.581.252Zm.042-6.335a.256.256 0 0 1-.231-.119.568.568 0 0 1-.07-.294c0-.051.002-.089.007-.112-.005-.075.037-.112.126-.112.065 0 .13.016.196.049.07.028.091.049.063.063a.88.88 0 0 1 .07.287.24.24 0 0 1-.042.147.423.423 0 0 1-.119.091Zm4.138 3.374a.24.24 0 0 1-.203-.105 1.19 1.19 0 0 1-.126-.336 30.58 30.58 0 0 1-.175-.798 1.407 1.407 0 0 1-.448.749 1.219 1.219 0 0 1-.805.273 1 1 0 0 1-.735-.301 1.94 1.94 0 0 1-.441-.805 3.86 3.86 0 0 1-.147-1.085c0-.177.016-.329.049-.455a.868.868 0 0 1 .133-.294c.056-.065.11-.096.161-.091.056 0 .084.037.084.112 0 .06-.016.156-.049.287-.033.145-.049.31-.049.497 0 .28.04.553.119.819.084.266.205.485.364.658a.776.776 0 0 0 .574.252.832.832 0 0 0 .497-.161c.149-.107.266-.243.35-.406.089-.163.133-.324.133-.483v-1.113c.051-.098.121-.147.21-.147.079 0 .133.068.161.203.028.135.042.327.042.574 0 .21-.002.371-.007.483.028.154.07.31.126.469.061.159.135.338.224.539.107.247.161.399.161.455 0 .14-.068.21-.203.21Zm1.941 3.451c-.392 0-.721-.112-.987-.336-.261-.22-.417-.59-.469-1.113-.004-.08.007-.14.035-.182a.154.154 0 0 1 .126-.063c.056 0 .105.021.147.063a.237.237 0 0 1 .056.182c0 .308.105.55.315.728.215.182.488.273.819.273a.7.7 0 0 0 .504-.21c.15-.14.264-.336.343-.588.08-.247.119-.532.119-.854 0-.565.007-1.113.021-1.645l.007-.357a2.43 2.43 0 0 1-.497.42.982.982 0 0 1-.525.133c-.359 0-.625-.096-.798-.287-.168-.196-.252-.495-.252-.896 0-.229.061-.467.182-.714.126-.252.297-.462.511-.63.22-.168.467-.252.742-.252.094 0 .18.01.259.028.299.065.5.343.602.833.103.49.154 1.125.154 1.904 0 .215-.004.5-.014.854l-.007.665c0 .266-.042.555-.126.868a1.967 1.967 0 0 1-.441.826c-.21.233-.485.35-.826.35Zm-.091-4.011c.346 0 .607-.082.784-.245.178-.168.266-.413.266-.735 0-.042-.004-.114-.014-.217-.023-.215-.079-.383-.168-.504-.084-.126-.217-.189-.399-.189a.792.792 0 0 0-.525.203 1.401 1.401 0 0 0-.371.504c-.088.196-.133.38-.133.553a.69.69 0 0 0 .154.448.506.506 0 0 0 .406.182Zm3.866.595c-.486 0-.908-.084-1.267-.252-.355-.173-.532-.474-.532-.903a.81.81 0 0 1 .14-.448.991.991 0 0 1 .413-.35c.182-.093.403-.14.665-.14.2 0 .371.01.511.028.14.019.301.07.483.154.182.084.371.217.567.399a2.838 2.838 0 0 0-.336-.847 1.873 1.873 0 0 0-.504-.56c-.182-.135-.362-.203-.539-.203a.584.584 0 0 0-.238.049c-.07.028-.157.07-.259.126-.117.075-.203.112-.259.112a.1.1 0 0 1-.063-.021.103.103 0 0 1-.021-.063c0-.187.081-.331.245-.434.168-.103.371-.15.609-.14.326.019.625.159.896.42.27.257.483.576.637.959.158.383.238.758.238 1.127 0 .06-.005.147-.014.259l-.224-.014c-.178-.36-.406-.614-.686-.763a1.693 1.693 0 0 0-.833-.231c-.36 0-.616.054-.77.161a.536.536 0 0 0-.231.469c0 .215.107.387.322.518.214.13.49.196.826.196.186 0 .336-.01.448-.028a3.95 3.95 0 0 0 .35-.091c.098-.033.184-.056.259-.07.074-.014.17-.021.287-.021.13 0 .212.01.245.028.037.019.056.06.056.126 0 .047-.096.105-.287.175-.192.07-.406.133-.644.189a2.61 2.61 0 0 1-.49.084Zm3.108 0a.626.626 0 0 1-.091.014c-.145 0-.245-.107-.301-.322-.051-.215-.077-.516-.077-.903 0-.159.005-.406.014-.742.009-.205.014-.36.014-.462-.574 0-.861-.065-.861-.196a.28.28 0 0 1 .014-.098c.014-.023.042-.035.084-.035l.763-.049a15.56 15.56 0 0 0-.035-.749 12.52 12.52 0 0 1-.035-.672c0-.051.021-.086.063-.105a.27.27 0 0 1 .133-.035c.056 0 .103.03.14.091a.314.314 0 0 1 .056.175l.049 1.281.581.028a.322.322 0 0 1 .224.049c.065.042.1.112.105.21a1.015 1.015 0 0 1-.322.077c-.117.01-.313.014-.588.014 0 .434.021 1.148.063 2.142v.217a.66.66 0 0 1 .007.07Zm2.877 0a1.94 1.94 0 0 1-.826-.175 1.465 1.465 0 0 1-.602-.497 1.263 1.263 0 0 1-.224-.742c0-.313.058-.604.175-.875a1.53 1.53 0 0 1 .511-.658c.228-.168.494-.252.798-.252.317 0 .557.103.721.308.163.2.24.455.231.763a.71.71 0 0 1-.329.63c-.215.145-.49.217-.826.217-.052 0-.129-.005-.231-.014a1.254 1.254 0 0 1-.357-.077c-.07-.033-.105-.098-.105-.196 0-.033.009-.056.028-.07.018-.019.056-.028.112-.028.06 0 .168.014.322.042.149.028.282.042.399.042.429 0 .644-.187.644-.56 0-.224-.042-.401-.126-.532-.08-.13-.222-.196-.427-.196-.224 0-.425.06-.602.182-.178.117-.315.27-.413.462a1.36 1.36 0 0 0-.14.609c0 .369.102.672.308.91.205.233.522.35.952.35.051 0 .137-.005.259-.014a.956.956 0 0 0 .189-.042l.161-.049c.2-.07.347-.105.441-.105a.22.22 0 0 1 .161.056 1.018 1.018 0 0 1-.525.392c-.229.08-.455.119-.679.119Zm1.52-.826a.313.313 0 0 1 .189-.077c.056 0 .11.016.161.049a.99.99 0 0 1 .168.126c.056.047.101.082.133.105.108.084.255.15.441.196.187.047.385.07.595.07.238 0 .451-.044.637-.133.192-.093.287-.217.287-.371 0-.14-.051-.25-.154-.329a.946.946 0 0 0-.371-.182 5.225 5.225 0 0 0-.574-.105 4.84 4.84 0 0 1-.77-.14.95.95 0 0 1-.448-.273c-.112-.13-.168-.313-.168-.546 0-.252.119-.439.357-.56.238-.126.511-.189.819-.189.28 0 .518.06.714.182a.566.566 0 0 1 .308.504.486.486 0 0 1-.056.301c-.046.07-.102.105-.168.105a.135.135 0 0 1-.098-.042.171.171 0 0 1-.035-.112.5.5 0 0 1 .077-.245c-.023-.112-.1-.196-.231-.252a1.114 1.114 0 0 0-.455-.084c-.261 0-.469.049-.623.147-.154.093-.231.205-.231.336 0 .14.056.247.168.322.112.075.248.128.406.161.164.028.395.056.693.084.248.033.448.072.602.119a.78.78 0 0 1 .399.273c.108.13.161.32.161.567 0 .257-.119.46-.357.609a1.611 1.611 0 0 1-.854.217 2.86 2.86 0 0 1-1.141-.217c-.331-.145-.525-.35-.581-.616Zm6.726.833a1.54 1.54 0 0 1-.749-.182 1.383 1.383 0 0 1-.518-.518 1.58 1.58 0 0 1-.182-.763c0-.467.17-.814.511-1.043.345-.229.768-.343 1.267-.343.229 0 .441.056.637.168.201.112.362.273.483.483.121.21.182.453.182.728 0 .299-.077.56-.231.784-.154.22-.357.39-.609.511a1.83 1.83 0 0 1-.791.175Zm-.077-.399c.434 0 .763-.098.987-.294.224-.196.336-.483.336-.861a.934.934 0 0 0-.266-.665c-.173-.187-.415-.28-.728-.28-.21 0-.422.04-.637.119a1.29 1.29 0 0 0-.532.357.838.838 0 0 0-.21.574c0 .187.047.362.14.525a1.1 1.1 0 0 0 .378.385c.163.093.341.14.532.14Zm3.987-4.536c.21 0 .41.054.602.161.191.103.345.236.462.399a.821.821 0 0 1 .182.49h-.154a.307.307 0 0 1-.189-.063 1.968 1.968 0 0 1-.203-.203 1.965 1.965 0 0 0-.329-.294.624.624 0 0 0-.364-.098c-.257 0-.472.119-.644.357a1.634 1.634 0 0 0-.308.826 4.503 4.503 0 0 0 .028 1.092c.06.01.203.021.427.035l.553.035c.051 0 .151.005.301.014.046 0 .079.012.098.035.023.019.035.054.035.105 0 .126-.143.189-.427.189a4.15 4.15 0 0 1-.931-.133 3.3 3.3 0 0 0 .196.581c.079.173.182.38.308.623.088.173.154.308.196.406a.603.603 0 0 1 .063.238c0 .051-.017.089-.049.112a.288.288 0 0 1-.14.028c-.126 0-.245-.133-.357-.399-.108-.27-.231-.644-.371-1.12l-.126-.413c-.103.01-.231.037-.385.084a5.058 5.058 0 0 1-.147.042.96.96 0 0 1-.217.028c-.075 0-.112-.044-.112-.133 0-.117.06-.194.182-.231.121-.042.235-.065.343-.07.107-.01.175-.016.203-.021a8.466 8.466 0 0 1-.014-.476c0-.602.091-1.122.273-1.561.186-.443.525-.665 1.015-.665ZM156.552 38a1.94 1.94 0 0 1-.826-.175 1.465 1.465 0 0 1-.602-.497 1.263 1.263 0 0 1-.224-.742c0-.313.058-.604.175-.875a1.53 1.53 0 0 1 .511-.658c.228-.168.494-.252.798-.252.317 0 .557.103.721.308.163.2.24.455.231.763a.71.71 0 0 1-.329.63c-.215.145-.49.217-.826.217-.052 0-.129-.005-.231-.014a1.254 1.254 0 0 1-.357-.077c-.07-.033-.105-.098-.105-.196 0-.033.009-.056.028-.07.018-.019.056-.028.112-.028.06 0 .168.014.322.042.149.028.282.042.399.042.429 0 .644-.187.644-.56 0-.224-.042-.401-.126-.532-.08-.13-.222-.196-.427-.196-.224 0-.425.06-.602.182-.178.117-.315.27-.413.462a1.36 1.36 0 0 0-.14.609c0 .369.102.672.308.91.205.233.522.35.952.35.051 0 .137-.005.259-.014a.956.956 0 0 0 .189-.042l.161-.049c.2-.07.347-.105.441-.105a.22.22 0 0 1 .161.056 1.018 1.018 0 0 1-.525.392c-.229.08-.455.119-.679.119Zm3.284 0c-.485 0-.907-.084-1.267-.252-.354-.173-.532-.474-.532-.903a.82.82 0 0 1 .14-.448.998.998 0 0 1 .413-.35 1.45 1.45 0 0 1 .665-.14c.201 0 .371.01.511.028.14.019.301.07.483.154.182.084.371.217.567.399a2.786 2.786 0 0 0-.336-.847 1.847 1.847 0 0 0-.504-.56c-.182-.135-.361-.203-.539-.203a.588.588 0 0 0-.238.049c-.07.028-.156.07-.259.126-.116.075-.203.112-.259.112a.104.104 0 0 1-.063-.021.103.103 0 0 1-.021-.063c0-.187.082-.331.245-.434.168-.103.371-.15.609-.14.327.019.626.159.896.42.271.257.483.576.637.959.159.383.238.758.238 1.127 0 .06-.004.147-.014.259l-.224-.014c-.177-.36-.406-.614-.686-.763a1.69 1.69 0 0 0-.833-.231c-.359 0-.616.054-.77.161a.536.536 0 0 0-.231.469c0 .215.108.387.322.518.215.13.49.196.826.196.187 0 .336-.01.448-.028.112-.023.229-.054.35-.091.098-.033.185-.056.259-.07.075-.014.171-.021.287-.021.131 0 .213.01.245.028.038.019.056.06.056.126 0 .047-.095.105-.287.175-.191.07-.406.133-.644.189a2.598 2.598 0 0 1-.49.084Zm3.704.007c-.546 0-.971-.124-1.274-.371-.299-.252-.448-.64-.448-1.162a1.612 1.612 0 0 1 .735-1.337c.228-.15.473-.224.735-.224.266 0 .492.058.679.175a.54.54 0 0 1 .28.49c0 .15-.028.257-.084.322-.052.06-.11.091-.175.091a.805.805 0 0 0-.182-.546c-.122-.14-.294-.21-.518-.21a.947.947 0 0 0-.581.182 1.13 1.13 0 0 0-.378.469 1.481 1.481 0 0 0-.126.602c0 .443.149.744.448.903.303.159.702.238 1.197.238.168 0 .387-.01.658-.028.009 0 .03.01.063.028.032.019.058.03.077.035v.042c0 .135-.119.22-.357.252a5.506 5.506 0 0 1-.749.049Zm2.158-.021c-.023.005-.049-.084-.077-.266a34.36 34.36 0 0 1-.098-.938 41.714 41.714 0 0 0-.224-2.002 11.869 11.869 0 0 0-.301-1.575c-.009-.037.005-.07.042-.098a.251.251 0 0 1 .154-.042.33.33 0 0 1 .077.007c.117.317.198.597.245.84.051.243.098.541.14.896l.035.273c.28-.168.537-.252.77-.252.425 0 .726.194.903.581.182.383.273.929.273 1.638 0 .27-.016.5-.049.686-.033.182-.072.273-.119.273-.061 0-.128-.044-.203-.133v-.231l.007-.763c0-.145-.005-.324-.014-.539-.014-.364-.089-.64-.224-.826-.131-.187-.357-.28-.679-.28a.913.913 0 0 0-.602.238c0 .177.007.36.021.546.019.187.04.369.063.546a11.208 11.208 0 0 1 .098 1.281.239.239 0 0 1-.098.112.285.285 0 0 1-.14.028Zm-57.023 10.021c-.276 0-.525-.06-.749-.182a1.375 1.375 0 0 1-.518-.518 1.569 1.569 0 0 1-.182-.763c0-.467.17-.814.511-1.043.345-.229.767-.343 1.267-.343.228 0 .441.056.637.168.2.112.361.273.483.483.121.21.182.453.182.728 0 .299-.077.56-.231.784-.154.22-.357.39-.609.511a1.833 1.833 0 0 1-.791.175Zm-.077-.399c.434 0 .763-.098.987-.294.224-.196.336-.483.336-.861a.934.934 0 0 0-.266-.665c-.173-.187-.416-.28-.728-.28-.21 0-.423.04-.637.119a1.29 1.29 0 0 0-.532.357.838.838 0 0 0-.21.574c0 .187.046.362.14.525a1.1 1.1 0 0 0 .378.385c.163.093.34.14.532.14Zm3.392.392a.626.626 0 0 1-.091.014c-.145 0-.245-.107-.301-.322-.052-.215-.077-.516-.077-.903 0-.159.004-.406.014-.742.009-.205.014-.36.014-.462-.574 0-.861-.065-.861-.196 0-.042.004-.075.014-.098.014-.023.042-.035.084-.035l.763-.049a16.97 16.97 0 0 0-.035-.749 11.561 11.561 0 0 1-.035-.672c0-.051.021-.086.063-.105a.27.27 0 0 1 .133-.035c.056 0 .102.03.14.091a.314.314 0 0 1 .056.175l.049 1.281.581.028a.323.323 0 0 1 .224.049c.065.042.1.112.105.21a1.021 1.021 0 0 1-.322.077c-.117.01-.313.014-.588.014 0 .434.021 1.148.063 2.142v.217l.007.07Zm1.994-.014c-.023.005-.049-.084-.077-.266a34.36 34.36 0 0 1-.098-.938 41.714 41.714 0 0 0-.224-2.002 11.869 11.869 0 0 0-.301-1.575c-.009-.037.005-.07.042-.098a.251.251 0 0 1 .154-.042.33.33 0 0 1 .077.007c.117.317.198.597.245.84.051.243.098.541.14.896l.035.273c.28-.168.537-.252.77-.252.425 0 .726.194.903.581.182.383.273.929.273 1.638 0 .27-.016.5-.049.686-.033.182-.072.273-.119.273-.061 0-.128-.044-.203-.133v-.231l.007-.763c0-.145-.005-.324-.014-.539-.014-.364-.089-.64-.224-.826-.131-.187-.357-.28-.679-.28a.913.913 0 0 0-.602.238c0 .177.007.36.021.546.019.187.04.369.063.546a11.208 11.208 0 0 1 .098 1.281.239.239 0 0 1-.098.112.285.285 0 0 1-.14.028Zm4.204.014a1.94 1.94 0 0 1-.826-.175 1.472 1.472 0 0 1-.602-.497 1.27 1.27 0 0 1-.224-.742c0-.313.059-.604.175-.875.117-.275.287-.495.511-.658.229-.168.495-.252.798-.252.318 0 .558.103.721.308.164.2.241.455.231.763a.707.707 0 0 1-.329.63c-.214.145-.49.217-.826.217a2.97 2.97 0 0 1-.231-.014 1.254 1.254 0 0 1-.357-.077c-.07-.033-.105-.098-.105-.196 0-.033.01-.056.028-.07.019-.019.056-.028.112-.028.061 0 .168.014.322.042.15.028.283.042.399.042.43 0 .644-.187.644-.56 0-.224-.042-.401-.126-.532-.079-.13-.221-.196-.427-.196-.224 0-.424.06-.602.182-.177.117-.315.27-.413.462-.093.191-.14.394-.14.609 0 .369.103.672.308.91.206.233.523.35.952.35.052 0 .138-.005.259-.014a.927.927 0 0 0 .189-.042l.161-.049c.201-.07.348-.105.441-.105.07 0 .124.019.161.056a1.01 1.01 0 0 1-.525.392 2.06 2.06 0 0 1-.679.119Zm2.102 0a5.513 5.513 0 0 1-.455-1.316 6.437 6.437 0 0 1-.161-1.309c0-.145.033-.238.098-.28.037-.023.065-.035.084-.035.033 0 .056.026.07.077.019.051.037.145.056.28l.035.252c.051-.252.149-.45.294-.595a.742.742 0 0 1 .546-.224c.238 0 .415.047.532.14.117.089.175.238.175.448a1.492 1.492 0 0 0-.637-.168.76.76 0 0 0-.469.147.766.766 0 0 0-.273.434 1.214 1.214 0 0 0-.014.728c.037.107.093.24.168.399.07.163.124.303.161.42.042.117.065.243.07.378 0 .08-.028.138-.084.175a.38.38 0 0 1-.196.049Zm6.409-.035c-.261 0-.474-.049-.637-.147a.825.825 0 0 1-.336-.476c-.14.243-.301.425-.483.546a1.07 1.07 0 0 1-.588.175c-.364 0-.644-.13-.84-.392-.196-.261-.294-.684-.294-1.267 0-.275.028-.509.084-.7.061-.191.161-.366.301-.525.065.023.105.056.119.098a.385.385 0 0 1 .028.168c0 .075-.009.15-.028.224a1.476 1.476 0 0 1-.028.133c-.033.14-.058.264-.077.371a2.93 2.93 0 0 0-.021.385c0 .336.063.611.189.826.131.21.317.315.56.315.275 0 .49-.089.644-.266a.995.995 0 0 0 .238-.679l-.049-.714c0-.028.019-.056.056-.084a.248.248 0 0 1 .14-.042c.065 0 .11.044.133.133.023.089.044.229.063.42.028.238.058.434.091.588.037.15.107.282.21.399.103.112.252.168.448.168.238 0 .411-.065.518-.196a.821.821 0 0 0 .161-.525 1.79 1.79 0 0 0-.112-.602 1.768 1.768 0 0 0-.259-.525c-.005-.042.016-.077.063-.105a.201.201 0 0 1 .154-.021c.084.019.161.093.231.224.075.13.133.294.175.49.047.196.07.392.07.588 0 .294-.075.537-.224.728-.145.191-.378.287-.7.287Zm1.934.035a.291.291 0 0 1-.224-.112.955.955 0 0 1-.133-.917.508.508 0 0 1 .161-.217.28.28 0 0 1 .168-.07c.163 0 .294.08.392.238a.91.91 0 0 1 .147.497c0 .07-.028.152-.084.245a.827.827 0 0 1-.196.238.371.371 0 0 1-.231.098Zm1.596 0a5.513 5.513 0 0 1-.455-1.316 6.437 6.437 0 0 1-.161-1.309c0-.145.033-.238.098-.28.038-.023.066-.035.084-.035.033 0 .056.026.07.077.019.051.038.145.056.28l.035.252c.052-.252.15-.45.294-.595a.745.745 0 0 1 .546-.224c.238 0 .416.047.532.14.117.089.175.238.175.448a1.488 1.488 0 0 0-.637-.168.76.76 0 0 0-.469.147.777.777 0 0 0-.273.434 1.214 1.214 0 0 0-.014.728c.038.107.094.24.168.399.07.163.124.303.161.42.042.117.066.243.07.378 0 .08-.028.138-.084.175a.38.38 0 0 1-.196.049Zm1.999 0a.293.293 0 0 1-.224-.112c-.06-.08-.109-.17-.147-.273a.947.947 0 0 1 .014-.644.524.524 0 0 1 .161-.217.285.285 0 0 1 .168-.07c.164 0 .294.08.392.238a.91.91 0 0 1 .147.497c0 .07-.028.152-.084.245a.796.796 0 0 1-.196.238.367.367 0 0 1-.231.098Zm2.108 0a.607.607 0 0 1-.091.014c-.144 0-.245-.107-.301-.322-.051-.215-.077-.516-.077-.903 0-.159.005-.406.014-.742.01-.205.014-.36.014-.462-.574 0-.861-.065-.861-.196a.28.28 0 0 1 .014-.098c.014-.023.042-.035.084-.035l.763-.049a14.367 14.367 0 0 0-.035-.749 13.69 13.69 0 0 1-.035-.672c0-.051.021-.086.063-.105a.272.272 0 0 1 .133-.035c.056 0 .103.03.14.091a.306.306 0 0 1 .056.175l.049 1.281.581.028a.32.32 0 0 1 .224.049c.066.042.101.112.105.21a1.015 1.015 0 0 1-.322.077c-.116.01-.312.014-.588.014 0 .434.021 1.148.063 2.142v.217a.66.66 0 0 1 .007.07Zm6.265.007c-.056 0-.096-.014-.119-.042a.211.211 0 0 1-.028-.119c0-.103.023-.261.07-.476.051-.196.077-.357.077-.483 0-.364-.028-.642-.084-.833h-.217c-.192 0-.441-.005-.749-.014l-.658-.007h-.945l.014.273c0 .215.035.483.105.805.023.13.044.264.063.399.023.13.035.25.035.357v.063a.209.209 0 0 1-.147.07c-.122 0-.217-.142-.287-.427a4.491 4.491 0 0 1-.105-1.043c0-.163.007-.324.021-.483-.103-.005-.173-.021-.21-.049-.038-.033-.056-.082-.056-.147 0-.051.014-.086.042-.105a.468.468 0 0 1 .168-.042l-.007-.189.021-.322c.032-.527.081-.957.147-1.288.065-.331.205-.618.42-.861.214-.243.536-.364.966-.364.49 0 .872.264 1.148.791.275.527.462 1.115.56 1.764.098.649.147 1.206.147 1.673 0 .168-.005.315-.014.441-.01.121-.028.273-.056.455-.108.135-.215.203-.322.203Zm-.112-2.226c-.089-.863-.248-1.54-.476-2.03-.229-.495-.572-.742-1.029-.742-.341 0-.593.159-.756.476a2.74 2.74 0 0 0-.287 1.008c-.033.36-.049.763-.049 1.211l2.597.077Zm3.998 2.226c-.891 0-1.582-.049-2.072-.147-.126-2.338-.24-3.752-.343-4.242l-.21.049a5.482 5.482 0 0 0-.322.077 2.24 2.24 0 0 0-.329.105l-.007-.238c0-.08.087-.152.259-.217a2.8 2.8 0 0 1 .623-.161c.248-.042.467-.063.658-.063.21 0 .451.037.721.112.276.075.511.187.707.336.196.145.294.317.294.518a.835.835 0 0 1-.266.609 1.471 1.471 0 0 1-.679.371c.411.07.794.196 1.148.378.355.177.64.399.854.665.215.261.322.544.322.847 0 .35-.135.604-.406.763-.27.159-.588.238-.952.238Zm-.182-.399c.346 0 .612-.037.798-.112.187-.08.28-.247.28-.504a.976.976 0 0 0-.245-.679 1.648 1.648 0 0 0-.567-.434 7.649 7.649 0 0 0-.805-.336 4.645 4.645 0 0 1-.574-.231c-.121-.07-.182-.147-.182-.231 0-.06.031-.107.091-.14.061-.033.168-.08.322-.14.21-.07.374-.145.49-.224a.4.4 0 0 0 .182-.35c0-.22-.133-.387-.399-.504a2.133 2.133 0 0 0-.896-.182c-.093 0-.205.01-.336.028.122.784.206 1.444.252 1.981.047.532.08 1.15.098 1.855.066.065.231.114.497.147.266.033.598.051.994.056Z"/>
  <rect width="96" height="51" x="78.5" y=".5" stroke="#fff" rx="1.5"/>
</svg>
