<svg xmlns="http://www.w3.org/2000/svg" width="164" height="61" fill="none" viewBox="0 0 164 61">
  <path stroke="gold" stroke-linecap="round" d="m3.342 49.032 70.186-46.15"/>
  <path fill="gold" d="M10.304 40.46a.2.2 0 0 0 .155.236l1.763.365a.2.2 0 0 0 .081-.392l-1.567-.324.325-1.567a.2.2 0 0 0-.392-.081l-.365 1.762ZM61.696 7.04a.2.2 0 0 0-.155-.236l-1.763-.365a.2.2 0 0 0-.081.392l1.567.324-.325 1.567a.2.2 0 1 0 .392.081l.365-1.762ZM10.61 40.668l51-33.5-.22-.334-51 33.5.22.334Z"/>
  <path fill="gold" d="M36.285 20.89a.2.2 0 0 0 .155.236l1.762.366a.2.2 0 1 0 .081-.392l-1.566-.325.325-1.567a.2.2 0 1 0-.391-.08l-.366 1.762Zm23.91-15.35a.2.2 0 0 0-.154-.236l-1.763-.366a.2.2 0 1 0-.081.392l1.566.325-.325 1.567a.2.2 0 1 0 .392.08l.366-1.762ZM36.59 21.097l23.52-15.43-.22-.334-23.52 15.43.22.334Z"/>
  <path fill="#fff" d="M17.146 48.341c-.047.03-.087.04-.122.03a.214.214 0 0 1-.089-.084 2.5 2.5 0 0 1-.203-.436 1.993 1.993 0 0 0-.201-.446c-.2-.304-.376-.52-.528-.65l-.181.12c-.16.105-.371.238-.634.4l-.553.355-.79.52.162.22c.118.179.294.384.53.614.091.097.182.197.272.3.09.096.166.189.225.278l.035.053a.208.208 0 0 1-.085.14c-.101.066-.26 0-.474-.2a4.49 4.49 0 0 1-.66-.814 5.46 5.46 0 0 1-.249-.415c-.088.053-.156.078-.202.075-.05-.007-.092-.038-.128-.092-.028-.043-.035-.08-.022-.111a.477.477 0 0 1 .117-.128l-.11-.154-.159-.28a10.136 10.136 0 0 1-.585-1.157 1.8 1.8 0 0 1-.122-.95c.046-.321.248-.6.607-.835.41-.27.874-.26 1.394.03.52.29.999.678 1.437 1.166.438.488.786.927 1.042 1.317a5.298 5.298 0 0 1 .434.787c-.015.172-.068.288-.158.347Zm-1.316-1.798c-.549-.673-1.053-1.151-1.513-1.435-.463-.288-.886-.306-1.268-.055-.284.187-.408.459-.37.813.04.349.144.682.314 1 .17.319.378.665.624 1.039l2.213-1.362Zm28.367-15.989c-.745.49-1.349.828-1.812 1.016-1.39-1.885-2.262-3.003-2.617-3.356l-.149.156a5.41 5.41 0 0 0-.226.241 2.228 2.228 0 0 0-.218.269l-.136-.195c-.044-.067-.011-.174.097-.324.106-.153.25-.312.432-.477.184-.17.355-.309.515-.414.176-.115.397-.216.664-.302.271-.09.53-.125.776-.108.243.013.42.104.53.271a.84.84 0 0 1 .112.655c-.05.24-.17.467-.363.683.381-.167.77-.272 1.166-.315a2.53 2.53 0 0 1 1.08.087c.322.1.567.277.734.53.192.293.219.58.08.861-.14.281-.36.522-.665.722Zm-.371-.233c.288-.19.49-.367.605-.532.113-.17.098-.36-.043-.575a.98.98 0 0 0-.578-.433 1.66 1.66 0 0 0-.712-.051 7.712 7.712 0 0 0-.857.161 4.589 4.589 0 0 1-.607.123c-.14.008-.232-.023-.279-.093-.033-.05-.033-.107 0-.167a3.39 3.39 0 0 1 .192-.294 2.03 2.03 0 0 0 .286-.457.402.402 0 0 0-.04-.392c-.12-.183-.324-.25-.61-.202a2.133 2.133 0 0 0-.85.34 2.581 2.581 0 0 0-.264.208c.532.589.965 1.094 1.298 1.517.332.419.699.918 1.102 1.496.09.019.255-.031.495-.15a9.25 9.25 0 0 0 .862-.5Zm22.916-14.935a9.425 9.425 0 0 1-.758-.783 24.575 24.575 0 0 1-1.09-1.428.214.214 0 0 1-.034-.154.194.194 0 0 1 .082-.13l.053-.034c.104.116.254.313.448.593.021.031.094.134.22.308.123.17.252.323.385.459.424-.34.727-.665.91-.975.185-.312.197-.59.036-.837-.203-.307-.505-.47-.906-.485-.401-.015-.876.158-1.426.52-.23.15-.397.322-.5.513-.02.03-.023.067-.01.114.012.043.036.1.072.171a.974.974 0 0 1 .074.178c.012.042.002.074-.03.094-.035.024-.075.014-.12-.03a4.13 4.13 0 0 1-.254-.36c-.071-.11-.054-.244.053-.404.108-.16.278-.316.512-.47.682-.449 1.26-.675 1.732-.678.473-.004.855.217 1.147.661.157.238.192.5.106.785-.086.286-.24.557-.461.815a3.582 3.582 0 0 1-.711.626c.038.042.075.08.108.113l.083.088c.229.23.39.416.486.56.056.086.09.162.1.228.013.064-.02.11-.1.141l-.207-.199Zm-3.046-4.478c-.03.02-.058.023-.084.008a.316.316 0 0 1-.076-.088c-.099-.15-.15-.354-.156-.61a7.79 7.79 0 0 1 .05-.918c.01-.091.017-.163.019-.216l-.29-.132a6.596 6.596 0 0 1-.539-.263.847.847 0 0 1-.282-.257c-.024-.036-.035-.065-.033-.086.005-.023.024-.046.057-.068.028-.018.102 0 .22.053a10.817 10.817 0 0 1 .706.344.904.904 0 0 0 .184.07c.052-.205.1-.368.144-.49.044-.12.117-.294.22-.52a3.5 3.5 0 0 1 .125-.238.467.467 0 0 1 .146-.168c.062-.04.117-.035.167.016-.11.24-.212.506-.306.8a3.631 3.631 0 0 0-.172.776c.073.056.174.11.303.16.13.051.29.109.484.173.191.066.331.117.42.155.086.035.141.07.165.106.02.03.01.06-.032.087a.429.429 0 0 1-.092.043 1.66 1.66 0 0 1-.367-.076 8.28 8.28 0 0 1-.462-.175c-.266-.1-.435-.16-.508-.18a7.6 7.6 0 0 0-.047.838l-.004.194c0 .06.011.162.034.307.017.104.027.184.03.237.004.054-.004.093-.024.118ZM11.892 44.971c-.031.02-.06.023-.085.008a.317.317 0 0 1-.076-.088c-.099-.15-.15-.353-.155-.61-.004-.26.012-.566.048-.917a2.24 2.24 0 0 0 .02-.216l-.29-.133a6.595 6.595 0 0 1-.538-.262.846.846 0 0 1-.283-.257c-.024-.037-.035-.065-.033-.086.005-.023.024-.046.058-.068.027-.018.1 0 .22.053a10.788 10.788 0 0 1 .705.344.897.897 0 0 0 .184.07c.052-.205.1-.369.144-.49.045-.12.118-.294.22-.521.042-.088.084-.167.125-.238a.468.468 0 0 1 .147-.168c.06-.04.116-.035.166.016-.11.24-.212.506-.306.8a3.638 3.638 0 0 0-.171.777c.072.056.173.11.302.16.13.05.29.108.485.172.19.066.33.118.419.155.086.035.142.07.165.107.02.03.01.06-.032.087a.425.425 0 0 1-.092.042 1.656 1.656 0 0 1-.367-.075 8.216 8.216 0 0 1-.462-.175 7.7 7.7 0 0 0-.508-.181 7.598 7.598 0 0 0-.046.839l-.005.194c0 .06.011.162.035.306.017.105.027.184.03.238.003.053-.005.093-.024.117Zm27.573-18.13c-.03.02-.059.023-.085.008a.316.316 0 0 1-.076-.088c-.098-.15-.15-.354-.155-.61-.004-.26.012-.566.049-.918.011-.091.018-.163.02-.216l-.291-.132a6.606 6.606 0 0 1-.538-.263.846.846 0 0 1-.283-.257c-.023-.036-.034-.065-.032-.086.004-.023.023-.045.057-.067.028-.019.101-.001.22.052a10.89 10.89 0 0 1 .705.345.897.897 0 0 0 .184.07c.052-.206.1-.37.145-.49a8.53 8.53 0 0 1 .22-.521 3.44 3.44 0 0 1 .124-.238.469.469 0 0 1 .147-.168c.061-.04.117-.035.166.016-.11.24-.212.506-.306.8a3.636 3.636 0 0 0-.171.777c.073.055.173.109.303.16.129.05.29.108.484.172.19.066.33.117.419.155.087.035.142.07.166.106.02.031.01.06-.033.087a.425.425 0 0 1-.092.043 1.658 1.658 0 0 1-.366-.076 8.276 8.276 0 0 1-.463-.175c-.265-.1-.434-.16-.507-.18a7.625 7.625 0 0 0-.047.838l-.004.194c0 .06.01.163.034.307.017.105.027.184.03.237.004.054-.005.093-.024.118Zm57.031-13.066a9.39 9.39 0 0 1-.203-1.07c-.047-.365-.089-.962-.126-1.793 0-.056.018-.105.056-.147a.194.194 0 0 1 .14-.063h.063c.023.154.04.402.049.742 0 .037.004.163.014.378.009.21.032.409.07.595.541-.051.973-.156 1.295-.315.326-.159.49-.385.49-.679 0-.368-.164-.67-.49-.903-.327-.233-.82-.35-1.477-.35-.276 0-.509.052-.7.154-.033.014-.056.044-.07.091a.962.962 0 0 0-.035.182.99.99 0 0 1-.035.19c-.014.041-.04.062-.077.062-.042 0-.07-.03-.084-.09a4.115 4.115 0 0 1-.014-.442c0-.13.088-.233.266-.308.177-.074.406-.112.686-.112.816 0 1.423.128 1.82.385.396.257.595.651.595 1.183a.895.895 0 0 1-.343.714 2.239 2.239 0 0 1-.833.427c-.327.089-.64.133-.938.133.009.056.018.107.028.154.009.047.016.086.02.12.066.316.099.562.099.734a.593.593 0 0 1-.042.245c-.024.06-.077.082-.161.063l-.063-.28Zm5.583.273a.822.822 0 0 1-.574-.224 1.435 1.435 0 0 1-.364-.58 2.313 2.313 0 0 1-.119-.743c0-.448.093-.826.28-1.134.191-.308.48-.462.868-.462.233 0 .436.042.609.126.177.08.408.215.693.406l.182.126a7.769 7.769 0 0 0-.105-.532 82.388 82.388 0 0 1-.266-1.225 2.74 2.74 0 0 1-.049-.483c0-.247.07-.37.21-.37.051.111.112.352.182.72.07.364.158.864.266 1.498.112.672.21 1.22.294 1.645.084.425.154.69.21.798 0 .107-.08.161-.238.161-.122 0-.206-.07-.252-.21-.042-.14-.068-.385-.077-.735h-.056a2.672 2.672 0 0 1-.763.875c-.313.229-.623.343-.931.343Zm.091-.343c.191 0 .396-.08.616-.238.224-.163.413-.36.567-.588.154-.233.231-.443.231-.63v-.21c-.481-.504-.924-.756-1.33-.756-.285 0-.504.105-.658.315-.154.205-.231.476-.231.812l.007.147c.028.355.107.635.238.84.13.205.317.308.56.308Zm3.111.357c-.107 0-.193-.156-.259-.469a7.114 7.114 0 0 1-.126-.819c-.018-.228-.044-.59-.077-1.085a6.176 6.176 0 0 1-.007-.308c0-.159.012-.268.035-.329.028-.06.073-.09.133-.09a.18.18 0 0 1 .119.034.218.218 0 0 1 .084.098l-.007.28c0 .299.014.581.042.847.033.266.082.623.147 1.071.038.196.063.357.077.483a.32.32 0 0 1-.035.196c-.032.06-.074.091-.126.091Zm-.175-3.85a.258.258 0 0 1-.231-.119.578.578 0 0 1-.07-.294c0-.051.003-.088.007-.112-.004-.074.038-.112.126-.112.066 0 .131.017.196.05.07.027.091.048.063.062.047.122.07.217.07.287a.24.24 0 0 1-.042.147.411.411 0 0 1-.119.091Zm2.168 3.85c-.135 0-.313-.2-.532-.602-.215-.406-.464-.92-.749-1.54l-.203-.434c0-.046.028-.09.084-.133.056-.046.14-.067.252-.063.028.052.117.24.266.567.177.383.327.698.448.945.126.243.278.504.455.784.079-.29.168-.56.266-.812.103-.256.254-.618.455-1.085l.105-.245c.028-.056.082-.084.161-.084.056 0 .105.014.147.042a.135.135 0 0 1 .063.12c0 .046-.023.095-.07.146-.033.033-.079.129-.14.287a11.33 11.33 0 0 0-.189.518c-.177.504-.331.898-.462 1.183-.131.28-.25.415-.357.406Zm1.965 0c-.107 0-.193-.156-.259-.469a7.114 7.114 0 0 1-.126-.819c-.018-.228-.044-.59-.077-1.085a6.176 6.176 0 0 1-.007-.308c0-.159.012-.268.035-.329.028-.06.073-.09.133-.09a.18.18 0 0 1 .119.034.218.218 0 0 1 .084.098l-.007.28c0 .299.014.581.042.847.033.266.082.623.147 1.071.038.196.063.357.077.483a.32.32 0 0 1-.035.196c-.032.06-.074.091-.126.091Zm-.175-3.85a.258.258 0 0 1-.231-.119.578.578 0 0 1-.07-.294c0-.051.003-.088.007-.112-.004-.074.038-.112.126-.112.066 0 .131.017.196.05.07.027.091.048.063.062.047.122.07.217.07.287a.24.24 0 0 1-.042.147.411.411 0 0 1-.119.091Zm2.161 3.836a.824.824 0 0 1-.574-.224 1.435 1.435 0 0 1-.364-.58 2.34 2.34 0 0 1-.119-.743c0-.448.093-.826.28-1.134.191-.308.481-.462.868-.462.233 0 .436.042.609.126.177.08.408.215.693.406l.182.126a6.72 6.72 0 0 0-.105-.532 10.6 10.6 0 0 1-.091-.413c-.079-.364-.138-.634-.175-.812a2.74 2.74 0 0 1-.049-.483c0-.247.07-.37.21-.37.051.111.112.352.182.72.07.364.159.864.266 1.498.112.672.21 1.22.294 1.645.084.425.154.69.21.798 0 .107-.079.161-.238.161-.121 0-.205-.07-.252-.21-.042-.14-.068-.385-.077-.735h-.056a2.66 2.66 0 0 1-.763.875c-.313.229-.623.343-.931.343Zm.091-.343c.191 0 .397-.08.616-.238.224-.163.413-.36.567-.588.154-.233.231-.443.231-.63v-.21c-.481-.504-.924-.756-1.33-.756-.285 0-.504.105-.658.315-.154.205-.231.476-.231.812l.007.147c.028.355.107.635.238.84a.626.626 0 0 0 .56.308Zm4.295.35c-.299 0-.574-.058-.826-.175a1.466 1.466 0 0 1-.602-.497 1.263 1.263 0 0 1-.224-.742c0-.313.058-.604.175-.875a1.53 1.53 0 0 1 .511-.658c.228-.168.494-.252.798-.252.317 0 .557.103.721.308.163.2.24.455.231.763 0 .276-.11.486-.329.63-.215.145-.49.217-.826.217-.052 0-.129-.004-.231-.014a1.258 1.258 0 0 1-.357-.077c-.07-.033-.105-.098-.105-.196 0-.033.009-.056.028-.07.018-.018.056-.028.112-.028.06 0 .168.014.322.042.149.028.282.042.399.042.429 0 .644-.187.644-.56 0-.224-.042-.401-.126-.532-.08-.13-.222-.196-.427-.196-.224 0-.425.06-.602.182a1.19 1.19 0 0 0-.413.462c-.094.191-.14.394-.14.61 0 .368.102.671.308.91.205.232.522.35.952.35.051 0 .137-.005.259-.015a.956.956 0 0 0 .189-.042l.161-.049c.2-.07.347-.105.441-.105a.22.22 0 0 1 .161.056 1.018 1.018 0 0 1-.525.392c-.229.08-.455.12-.679.12Zm1.52-.826a.312.312 0 0 1 .189-.077c.056 0 .11.017.161.05a.979.979 0 0 1 .168.125c.056.047.101.082.133.105.108.084.255.15.441.196.187.047.385.07.595.07.238 0 .451-.044.637-.133.192-.093.287-.217.287-.37 0-.14-.051-.25-.154-.33a.946.946 0 0 0-.371-.182 5.177 5.177 0 0 0-.574-.105 4.851 4.851 0 0 1-.77-.14.95.95 0 0 1-.448-.273c-.112-.13-.168-.313-.168-.546 0-.252.119-.438.357-.56.238-.126.511-.189.819-.189.28 0 .518.06.714.182a.566.566 0 0 1 .308.504.486.486 0 0 1-.056.301c-.046.07-.102.105-.168.105a.135.135 0 0 1-.098-.042.171.171 0 0 1-.035-.112.5.5 0 0 1 .077-.245c-.023-.112-.1-.196-.231-.252a1.114 1.114 0 0 0-.455-.084c-.261 0-.469.05-.623.147-.154.093-.231.205-.231.336 0 .14.056.247.168.322.112.075.248.129.406.161.164.028.395.056.693.084.248.033.448.073.602.12a.778.778 0 0 1 .399.272c.108.13.161.32.161.567 0 .257-.119.46-.357.61a1.612 1.612 0 0 1-.854.216c-.424 0-.805-.072-1.141-.217-.331-.145-.525-.35-.581-.616Zm8.567.833c-.056 0-.096-.014-.119-.042a.211.211 0 0 1-.028-.119c0-.102.023-.261.07-.476.051-.196.077-.357.077-.483 0-.364-.028-.642-.084-.833h-.217c-.191 0-.441-.005-.749-.014l-.658-.007h-.945l.014.273c0 .215.035.483.105.805.023.13.044.264.063.4.023.13.035.249.035.356v.063a.207.207 0 0 1-.147.07c-.121 0-.217-.142-.287-.427a4.492 4.492 0 0 1-.105-1.043c0-.163.007-.324.021-.483-.103-.005-.173-.02-.21-.049-.037-.033-.056-.082-.056-.147 0-.051.014-.086.042-.105a.48.48 0 0 1 .168-.042l-.007-.189.021-.322c.033-.527.082-.957.147-1.288.065-.331.205-.618.42-.86.215-.243.537-.365.966-.365.49 0 .873.264 1.148.791.275.527.462 1.116.56 1.764.098.649.147 1.207.147 1.673 0 .168-.005.315-.014.441a6.06 6.06 0 0 1-.056.455c-.107.136-.215.203-.322.203Zm-.112-2.226c-.089-.863-.247-1.54-.476-2.03-.229-.494-.572-.742-1.029-.742-.341 0-.593.159-.756.476a2.758 2.758 0 0 0-.287 1.008c-.033.36-.049.763-.049 1.211l2.597.077Zm3.998 2.226c-.891 0-1.582-.049-2.072-.147-.126-2.338-.24-3.752-.343-4.242l-.21.05a5.506 5.506 0 0 0-.322.076 2.248 2.248 0 0 0-.329.105l-.007-.238c0-.08.087-.151.259-.217.173-.07.381-.123.623-.16.248-.043.467-.064.658-.064.21 0 .451.038.721.112.276.075.511.187.707.336.196.145.294.318.294.518a.836.836 0 0 1-.266.61 1.472 1.472 0 0 1-.679.37c.411.07.794.196 1.148.378.355.178.64.4.854.665.215.261.322.544.322.847 0 .35-.135.604-.406.763-.27.159-.588.238-.952.238Zm-.182-.399c.346 0 .612-.037.798-.112.187-.08.28-.247.28-.504a.976.976 0 0 0-.245-.679 1.646 1.646 0 0 0-.567-.434 7.607 7.607 0 0 0-.805-.336 4.645 4.645 0 0 1-.574-.23c-.121-.07-.182-.148-.182-.232 0-.06.031-.107.091-.14.061-.033.168-.08.322-.14.21-.07.374-.145.49-.224a.4.4 0 0 0 .182-.35c0-.22-.133-.387-.399-.504a2.133 2.133 0 0 0-.896-.182c-.093 0-.205.01-.336.028.122.784.206 1.444.252 1.981.047.532.08 1.15.098 1.855.066.065.231.114.497.147.266.033.598.052.994.056Zm5.431.392a1.94 1.94 0 0 1-.826-.175 1.472 1.472 0 0 1-.602-.497 1.27 1.27 0 0 1-.224-.742c0-.313.059-.604.175-.875.117-.275.287-.495.511-.658.229-.168.495-.252.798-.252.318 0 .558.103.721.308.164.2.241.455.231.763a.707.707 0 0 1-.329.63c-.214.145-.49.217-.826.217-.051 0-.128-.004-.231-.014a1.258 1.258 0 0 1-.357-.077c-.07-.033-.105-.098-.105-.196 0-.033.01-.056.028-.07.019-.018.056-.028.112-.028.061 0 .168.014.322.042.15.028.283.042.399.042.43 0 .644-.187.644-.56 0-.224-.042-.401-.126-.532-.079-.13-.221-.196-.427-.196-.224 0-.424.06-.602.182-.177.117-.315.27-.413.462-.093.191-.14.394-.14.61 0 .368.103.671.308.91.206.232.523.35.952.35.052 0 .138-.005.259-.015a.927.927 0 0 0 .189-.042l.161-.049c.201-.07.348-.105.441-.105.07 0 .124.019.161.056a1.01 1.01 0 0 1-.525.392 2.06 2.06 0 0 1-.679.12Zm2.809-1.372c.21.173.429.376.658.61.233.232.427.457.581.671-.005.084-.033.143-.084.175a.21.21 0 0 1-.175.035 5.765 5.765 0 0 1-.42-.378 26.81 26.81 0 0 1-.462-.497l-.336-.357a4.584 4.584 0 0 0-.448.581c-.098.145-.18.26-.245.343-.061.08-.112.126-.154.14a.313.313 0 0 1-.154-.035.135.135 0 0 1-.063-.119c0-.033.007-.065.021-.098a1.5 1.5 0 0 1 .238-.399c.121-.15.306-.354.553-.616l-.539-.539a10.93 10.93 0 0 1-.413-.427 1.3 1.3 0 0 1-.168-.245.242.242 0 0 1 .231-.217c.145.145.324.33.539.553.275.285.478.486.609.602.121-.135.175-.196.161-.182.257-.294.483-.532.679-.714.201-.187.364-.28.49-.28.093 0 .149.054.168.161 0 .028-.065.105-.196.231a20.21 20.21 0 0 1-.42.392c-.345.318-.562.52-.651.61Zm2.942 1.372a.626.626 0 0 1-.091.014c-.145 0-.245-.107-.301-.322-.052-.214-.077-.515-.077-.903 0-.159.004-.406.014-.742.009-.205.014-.36.014-.462-.574 0-.861-.065-.861-.196 0-.042.004-.075.014-.098.014-.023.042-.035.084-.035l.763-.049a16.962 16.962 0 0 0-.035-.749 11.561 11.561 0 0 1-.035-.672c0-.051.021-.086.063-.105a.269.269 0 0 1 .133-.035c.056 0 .102.03.14.091a.314.314 0 0 1 .056.175l.049 1.281.581.028a.323.323 0 0 1 .224.05c.065.041.1.111.105.21a1.024 1.024 0 0 1-.322.076c-.117.01-.313.014-.588.014 0 .434.021 1.148.063 2.142v.217l.007.07Zm2.876 0a1.94 1.94 0 0 1-.826-.175 1.472 1.472 0 0 1-.602-.497 1.27 1.27 0 0 1-.224-.742c0-.313.059-.604.175-.875.117-.275.287-.495.511-.658.229-.168.495-.252.798-.252.318 0 .558.103.721.308.164.2.241.455.231.763a.707.707 0 0 1-.329.63c-.214.145-.49.217-.826.217-.051 0-.128-.004-.231-.014a1.258 1.258 0 0 1-.357-.077c-.07-.033-.105-.098-.105-.196 0-.033.01-.056.028-.07.019-.018.056-.028.112-.028.061 0 .168.014.322.042.15.028.283.042.399.042.43 0 .644-.187.644-.56 0-.224-.042-.401-.126-.532-.079-.13-.221-.196-.427-.196-.224 0-.424.06-.602.182-.177.117-.315.27-.413.462-.093.191-.14.394-.14.61 0 .368.103.671.308.91.206.232.523.35.952.35.052 0 .138-.005.259-.015a.927.927 0 0 0 .189-.042l.161-.049c.201-.07.348-.105.441-.105.07 0 .124.019.161.056a1.01 1.01 0 0 1-.525.392 2.06 2.06 0 0 1-.679.12Zm2.102 0a5.515 5.515 0 0 1-.455-1.316 6.437 6.437 0 0 1-.161-1.309c0-.144.033-.238.098-.28.037-.023.065-.035.084-.035.033 0 .056.026.07.077.019.051.037.145.056.28l.035.252c.051-.252.149-.45.294-.595a.742.742 0 0 1 .546-.224c.238 0 .415.047.532.14.117.089.175.238.175.448a1.492 1.492 0 0 0-.637-.168.76.76 0 0 0-.469.147.766.766 0 0 0-.273.434 1.213 1.213 0 0 0-.014.728c.037.107.093.24.168.4.07.162.124.302.161.42.042.116.065.242.07.377 0 .08-.028.138-.084.175a.382.382 0 0 1-.196.05Zm2.216.028a.851.851 0 0 1-.112.028c-.037 0-.077-.019-.119-.056-.154-.229-.266-.627-.336-1.197-.065-.57-.098-1.06-.098-1.47 0-.065.047-.098.14-.098.14 0 .21.077.21.231a.619.619 0 0 1-.007.105.88.88 0 0 1 .238-.3c.117-.104.252-.19.406-.26.154-.07.31-.105.469-.105.499 0 .863.222 1.092.665.229.439.343.985.343 1.638 0 .224-.023.404-.07.54-.047.13-.11.195-.189.195-.084 0-.126-.026-.126-.077a5.5 5.5 0 0 0 .049-.728c0-.602-.105-1.057-.315-1.365-.21-.313-.488-.469-.833-.469a1.036 1.036 0 0 0-.868.476.947.947 0 0 0-.14.511c0 .215.012.402.035.56.023.159.061.35.112.574.056.22.096.42.119.602Zm4.586-.028c-.485 0-.908-.084-1.267-.252-.355-.173-.532-.474-.532-.903a.82.82 0 0 1 .14-.448.99.99 0 0 1 .413-.35 1.45 1.45 0 0 1 .665-.14c.201 0 .371.01.511.028.14.019.301.07.483.154.182.084.371.217.567.4a2.837 2.837 0 0 0-.336-.848 1.846 1.846 0 0 0-.504-.56c-.182-.135-.362-.203-.539-.203a.588.588 0 0 0-.238.05c-.07.027-.156.07-.259.125-.117.075-.203.112-.259.112a.104.104 0 0 1-.063-.02.103.103 0 0 1-.021-.064c0-.186.082-.331.245-.434.168-.102.371-.15.609-.14.327.019.625.159.896.42.271.257.483.577.637.96.159.382.238.758.238 1.126 0 .06-.005.147-.014.26l-.224-.015c-.177-.36-.406-.614-.686-.763a1.69 1.69 0 0 0-.833-.23c-.359 0-.616.053-.77.16a.536.536 0 0 0-.231.47c0 .214.107.386.322.517.215.13.49.196.826.196.187 0 .336-.01.448-.028.112-.023.229-.053.35-.09a1.507 1.507 0 0 1 .546-.092c.131 0 .212.01.245.028.037.019.056.06.056.126 0 .047-.096.105-.287.175-.191.07-.406.133-.644.19a2.598 2.598 0 0 1-.49.083Zm2.366-.049a15.732 15.732 0 0 1-.238-1.806 27.97 27.97 0 0 1-.077-2.03c0-.326.007-.616.021-.868 0-.06.047-.09.14-.09.075 0 .122.018.14.055a.333.333 0 0 1 .035.175c0 .756.014 1.402.042 1.94.028.531.066 1.105.112 1.721l.056.805c.005.075-.035.112-.119.112a.608.608 0 0 1-.112-.014Zm1.176 0a15.732 15.732 0 0 1-.238-1.806 27.97 27.97 0 0 1-.077-2.03c0-.326.007-.616.021-.868 0-.06.047-.09.14-.09.075 0 .122.018.14.055a.333.333 0 0 1 .035.175c0 .756.014 1.402.042 1.94.028.531.066 1.105.112 1.721l.056.805c.005.075-.035.112-.119.112a.608.608 0 0 1-.112-.014Zm2.709 3.36a1.77 1.77 0 0 1-.854-.203 2.057 2.057 0 0 1-.595-.469c-.149-.177-.233-.322-.252-.434-.019-.103.005-.182.07-.238a.347.347 0 0 1 .259-.07c.145.345.317.612.518.798.201.187.488.285.861.294.261.005.469-.163.623-.504.159-.336.271-.749.336-1.239.065-.485.098-.963.098-1.435a6.82 6.82 0 0 0-.021-.595c-.355.434-.807.651-1.358.651-.476 0-.842-.226-1.099-.679a4.266 4.266 0 0 1-.49-1.533 1.585 1.585 0 0 1-.014-.238c0-.294.096-.44.287-.44.019 0 .044.116.077.35.051.368.114.7.189.993.075.294.198.563.371.805a.832.832 0 0 0 .7.357c.229 0 .462-.075.7-.224.243-.154.418-.324.525-.51 0-.356-.047-.673-.14-.953a30.034 30.034 0 0 1-.14-.455 3.232 3.232 0 0 1-.014-.196.38.38 0 0 1 .042-.203.167.167 0 0 1 .14-.063c.065 0 .14.133.224.4.084.265.159.613.224 1.042a13.373 13.373 0 0 1 .147 1.883c0 .896-.112 1.638-.336 2.226-.219.588-.579.882-1.078.882Zm-48.009 6.696c-.107 0-.193-.156-.259-.469a7.114 7.114 0 0 1-.126-.819 98.53 98.53 0 0 1-.077-1.085 6.176 6.176 0 0 1-.007-.308c0-.159.012-.268.035-.329.028-.06.073-.09.133-.09a.18.18 0 0 1 .119.034.218.218 0 0 1 .084.098l-.007.28c0 .299.014.581.042.847.033.266.082.623.147 1.071.038.196.063.357.077.483a.32.32 0 0 1-.035.196c-.032.06-.074.091-.126.091Zm-.175-3.85a.258.258 0 0 1-.231-.119.578.578 0 0 1-.07-.294c0-.051.003-.088.007-.112-.004-.075.038-.112.126-.112.066 0 .131.017.196.05.07.027.091.048.063.062.047.121.07.217.07.287a.24.24 0 0 1-.042.147.411.411 0 0 1-.119.091Zm1.629 3.871a.812.812 0 0 1-.112.028c-.037 0-.077-.018-.119-.056-.154-.229-.266-.628-.336-1.197-.065-.57-.098-1.06-.098-1.47 0-.065.047-.098.14-.098.14 0 .21.077.21.231a.619.619 0 0 1-.007.105.891.891 0 0 1 .238-.3c.117-.104.252-.19.406-.26.154-.07.311-.105.469-.105.5 0 .864.222 1.092.665.229.439.343.985.343 1.638 0 .224-.023.404-.07.54-.046.13-.109.195-.189.195-.084 0-.126-.025-.126-.077a5.5 5.5 0 0 0 .049-.728c0-.602-.105-1.057-.315-1.365-.21-.313-.487-.469-.833-.469a1.036 1.036 0 0 0-.868.476.947.947 0 0 0-.14.511c0 .215.012.401.035.56.024.159.061.35.112.574.056.22.096.42.119.602Zm5.153-.028a5.515 5.515 0 0 1-.455-1.316 6.437 6.437 0 0 1-.161-1.309c0-.145.033-.238.098-.28.038-.023.066-.035.084-.035.033 0 .056.026.07.077.019.052.038.145.056.28l.035.252c.052-.252.15-.45.294-.595a.745.745 0 0 1 .546-.224c.238 0 .416.047.532.14.117.089.175.238.175.448a1.488 1.488 0 0 0-.637-.168.76.76 0 0 0-.469.147.777.777 0 0 0-.273.434 1.213 1.213 0 0 0-.014.728c.038.107.094.24.168.4.07.163.124.303.161.42.042.116.066.242.07.377 0 .08-.028.138-.084.175a.382.382 0 0 1-.196.05Zm3.35 0c-.485 0-.907-.084-1.267-.252-.354-.172-.532-.474-.532-.903a.82.82 0 0 1 .14-.448.997.997 0 0 1 .413-.35 1.45 1.45 0 0 1 .665-.14c.201 0 .371.01.511.028.14.019.301.07.483.154.182.084.371.217.567.4a2.785 2.785 0 0 0-.336-.848 1.846 1.846 0 0 0-.504-.56c-.182-.135-.361-.203-.539-.203a.588.588 0 0 0-.238.05c-.07.027-.156.07-.259.125-.116.075-.203.112-.259.112a.104.104 0 0 1-.063-.02.103.103 0 0 1-.021-.064c0-.186.082-.331.245-.434.168-.103.371-.15.609-.14.327.019.626.159.896.42.271.257.483.576.637.96.159.382.238.758.238 1.126 0 .06-.004.147-.014.26l-.224-.015c-.177-.36-.406-.613-.686-.763a1.69 1.69 0 0 0-.833-.23c-.359 0-.616.053-.77.16a.536.536 0 0 0-.231.47c0 .214.108.387.322.517.215.13.49.196.826.196.187 0 .336-.01.448-.028.112-.023.229-.054.35-.09a1.514 1.514 0 0 1 .546-.092c.131 0 .213.01.245.028.038.019.056.06.056.126 0 .047-.095.105-.287.175-.191.07-.406.133-.644.19a2.598 2.598 0 0 1-.49.083Zm3.109 0a.626.626 0 0 1-.091.014c-.145 0-.245-.107-.301-.322-.052-.215-.077-.515-.077-.903 0-.159.004-.406.014-.742.009-.205.014-.36.014-.462-.574 0-.861-.065-.861-.196 0-.042.004-.075.014-.098.014-.023.042-.035.084-.035l.763-.049a16.962 16.962 0 0 0-.035-.749 11.561 11.561 0 0 1-.035-.672c0-.051.021-.086.063-.105a.268.268 0 0 1 .133-.035c.056 0 .102.03.14.091a.314.314 0 0 1 .056.175l.049 1.281.581.028a.323.323 0 0 1 .224.05c.065.041.1.111.105.21a1.024 1.024 0 0 1-.322.076c-.117.01-.313.014-.588.014 0 .434.021 1.148.063 2.142v.217l.007.07Zm1.693.007c-.107 0-.193-.156-.259-.469a7.114 7.114 0 0 1-.126-.819 98.53 98.53 0 0 1-.077-1.085 6.176 6.176 0 0 1-.007-.308c0-.159.012-.268.035-.329.028-.06.073-.09.133-.09a.18.18 0 0 1 .119.034.218.218 0 0 1 .084.098l-.007.28c0 .299.014.581.042.847.033.266.082.623.147 1.071.038.196.063.357.077.483a.32.32 0 0 1-.035.196c-.032.06-.074.091-.126.091Zm-.175-3.85a.258.258 0 0 1-.231-.119.578.578 0 0 1-.07-.294c0-.051.003-.088.007-.112-.004-.075.038-.112.126-.112.066 0 .131.017.196.05.07.027.091.048.063.062.047.121.07.217.07.287a.24.24 0 0 1-.042.147.411.411 0 0 1-.119.091Zm2.413 3.85a1.54 1.54 0 0 1-.749-.182 1.383 1.383 0 0 1-.518-.518 1.58 1.58 0 0 1-.182-.763c0-.466.17-.814.511-1.043.345-.229.768-.343 1.267-.343.229 0 .441.056.637.168.201.112.362.273.483.483.121.21.182.453.182.728 0 .299-.077.56-.231.784-.154.22-.357.39-.609.511a1.831 1.831 0 0 1-.791.175Zm-.077-.399c.434 0 .763-.098.987-.294.224-.196.336-.483.336-.86a.934.934 0 0 0-.266-.666c-.173-.186-.415-.28-.728-.28-.21 0-.422.04-.637.12a1.29 1.29 0 0 0-.532.356.838.838 0 0 0-.21.574c0 .187.047.362.14.525a1.1 1.1 0 0 0 .378.385c.163.093.341.14.532.14Zm8.558.4c-.07 0-.112-.02-.126-.057a.637.637 0 0 1-.021-.189.916.916 0 0 0 .007-.112.55.55 0 0 1 .007-.105c.028-.224.042-.436.042-.637 0-.443-.075-.789-.224-1.036-.15-.252-.385-.378-.707-.378-.178 0-.355.044-.532.133a1.384 1.384 0 0 0-.427.33c-.108.13-.161.249-.161.356.023.136.065.301.126.497.004.024.023.096.056.217.037.121.056.231.056.33l.007.132c0 .075-.038.112-.112.112-.094 0-.171-.06-.231-.182a3.934 3.934 0 0 1-.189-.567 6.24 6.24 0 0 0-.203-.623 1.3 1.3 0 0 0-.266-.42.567.567 0 0 0-.427-.175.688.688 0 0 0-.56.245.931.931 0 0 0-.196.602c0 .159.014.369.042.63.023.196.035.364.035.504a.5.5 0 0 1-.028.19c-.019.041-.063.062-.133.062-.094 0-.159-.03-.196-.09a.6.6 0 0 1-.056-.295c0-.256-.014-.567-.042-.93a16.628 16.628 0 0 1-.028-.358 4.808 4.808 0 0 1-.007-.588l.007-.23a.133.133 0 0 1 .098-.043c.051 0 .093.033.126.098a.55.55 0 0 1 .056.28c.07-.121.172-.23.308-.329a.715.715 0 0 1 .427-.147c.256 0 .469.054.637.161.172.103.329.27.469.504.13-.238.326-.44.588-.609.266-.168.539-.252.819-.252.289 0 .529.11.721.33a2 2 0 0 1 .427.79c.093.308.14.593.14.854 0 .233-.021.457-.063.672-.038.215-.126.322-.266.322Zm2.711-1.842a.32.32 0 0 1-.203-.077c-.051-.051-.077-.105-.077-.16 0-.057.019-.108.056-.155a.173.173 0 0 1 .14-.07.24.24 0 0 1 .175.077.24.24 0 0 1 .077.175c0 .014-.004.04-.014.077a.29.29 0 0 1-.063.112c-.023.019-.053.026-.091.021Zm-.042 1.38a.252.252 0 0 1-.175-.064.227.227 0 0 1-.063-.168c0-.07.021-.126.063-.168a.252.252 0 0 1 .175-.063c.08 0 .14.021.182.063a.227.227 0 0 1 .063.168c0 .154-.081.231-.245.231Zm2.982.482a.851.851 0 0 1-.112.028c-.037 0-.077-.018-.119-.056-.154-.229-.266-.628-.336-1.197-.065-.57-.098-1.06-.098-1.47 0-.065.047-.098.14-.098.14 0 .21.077.21.231a.619.619 0 0 1-.007.105.88.88 0 0 1 .238-.3c.117-.104.252-.19.406-.26.154-.07.31-.105.469-.105.499 0 .863.222 1.092.665.229.439.343.985.343 1.638 0 .224-.023.404-.07.54-.047.13-.11.195-.189.195-.084 0-.126-.025-.126-.077a5.5 5.5 0 0 0 .049-.728c0-.602-.105-1.057-.315-1.365-.21-.313-.488-.469-.833-.469a1.036 1.036 0 0 0-.868.476.947.947 0 0 0-.14.511c0 .215.012.401.035.56.023.159.061.35.112.574.056.22.096.42.119.602Zm3.235-.028a.293.293 0 0 1-.224-.112 1.06 1.06 0 0 1-.147-.273.946.946 0 0 1 .014-.644.524.524 0 0 1 .161-.217.285.285 0 0 1 .168-.07c.164 0 .294.08.392.238a.91.91 0 0 1 .147.497c0 .07-.028.152-.084.245a.797.797 0 0 1-.196.238.367.367 0 0 1-.231.098ZM98.206 48.007c-.387 0-.67-.072-.847-.217-.172-.145-.259-.406-.259-.784l.098-1.568v-1.505c0-.117.024-.191.07-.224.047-.037.15-.056.308-.056l.476.014c.598.033 1.181.049 1.75.049.122 0 .217.035.287.105.075.07.112.166.112.287a.076.076 0 0 1-.021.056c-.014.014-.03.019-.049.014l-.329-.126-2.19.056c-.029 0-.045-.002-.05-.007.02.037.028.07.028.098v1.239c.215.014.423.021.623.021.346 0 .726-.016 1.141-.049.042-.005.105-.01.19-.014.088-.01.137-.01.146 0a.418.418 0 0 1 .063.077.245.245 0 0 1 .028.098c.014.103-.142.17-.469.203-.322.033-.753.058-1.295.077-.182 0-.333.005-.455.014-.056.14-.084.364-.084.672l.007.413v.455c.075.06.157.1.245.119.09.019.234.028.434.028.21 0 .416-.012.616-.035l.364-.042c.392-.047.684-.07.875-.07a.53.53 0 0 1 .231.035c.047.019.07.054.07.105 0 .308-.625.462-1.876.462h-.238Zm4.043-1.379c.21.173.429.376.658.609.233.233.427.457.581.672-.005.084-.033.142-.084.175a.21.21 0 0 1-.175.035 5.765 5.765 0 0 1-.42-.378 21.298 21.298 0 0 1-.462-.497l-.336-.357a4.592 4.592 0 0 0-.448.581c-.098.145-.18.259-.245.343-.061.08-.112.126-.154.14a.313.313 0 0 1-.154-.035.135.135 0 0 1-.063-.119c0-.033.007-.065.021-.098a1.5 1.5 0 0 1 .238-.399c.121-.15.305-.355.553-.616l-.539-.539c-.21-.21-.348-.352-.413-.427a1.21 1.21 0 0 1-.168-.245.243.243 0 0 1 .231-.217c.144.145.324.329.539.553.275.285.478.485.609.602.121-.135.175-.196.161-.182.256-.294.483-.532.679-.714.2-.187.364-.28.49-.28.093 0 .149.054.168.161 0 .028-.066.105-.196.231a20.21 20.21 0 0 1-.42.392c-.346.317-.563.52-.651.609ZM105.19 48a.607.607 0 0 1-.091.014c-.144 0-.245-.107-.301-.322-.051-.215-.077-.516-.077-.903 0-.159.005-.406.014-.742.01-.205.014-.36.014-.462-.574 0-.861-.065-.861-.196a.28.28 0 0 1 .014-.098c.014-.023.042-.035.084-.035l.763-.049a14.367 14.367 0 0 0-.035-.749 13.69 13.69 0 0 1-.035-.672c0-.051.021-.086.063-.105a.272.272 0 0 1 .133-.035c.056 0 .103.03.14.091a.306.306 0 0 1 .056.175l.049 1.281.581.028a.32.32 0 0 1 .224.049c.066.042.101.112.105.21a1.015 1.015 0 0 1-.322.077c-.116.01-.312.014-.588.014 0 .434.021 1.148.063 2.142v.217a.66.66 0 0 1 .007.07Zm2.877 0a1.94 1.94 0 0 1-.826-.175 1.465 1.465 0 0 1-.602-.497 1.263 1.263 0 0 1-.224-.742c0-.313.058-.604.175-.875a1.53 1.53 0 0 1 .511-.658c.228-.168.494-.252.798-.252.317 0 .557.103.721.308.163.2.24.455.231.763a.71.71 0 0 1-.329.63c-.215.145-.49.217-.826.217-.052 0-.129-.005-.231-.014a1.254 1.254 0 0 1-.357-.077c-.07-.033-.105-.098-.105-.196 0-.033.009-.056.028-.07.018-.019.056-.028.112-.028.06 0 .168.014.322.042.149.028.282.042.399.042.429 0 .644-.187.644-.56 0-.224-.042-.401-.126-.532-.08-.13-.222-.196-.427-.196-.224 0-.425.06-.602.182-.178.117-.315.27-.413.462a1.36 1.36 0 0 0-.14.609c0 .369.102.672.308.91.205.233.522.35.952.35.051 0 .137-.005.259-.014a.956.956 0 0 0 .189-.042l.161-.049c.2-.07.347-.105.441-.105a.22.22 0 0 1 .161.056 1.018 1.018 0 0 1-.525.392c-.229.08-.455.119-.679.119Zm2.101 0a5.513 5.513 0 0 1-.455-1.316 6.437 6.437 0 0 1-.161-1.309c0-.145.033-.238.098-.28.038-.023.066-.035.084-.035.033 0 .056.026.07.077.019.051.038.145.056.28l.035.252c.052-.252.15-.45.294-.595a.745.745 0 0 1 .546-.224c.238 0 .416.047.532.14.117.089.175.238.175.448a1.488 1.488 0 0 0-.637-.168.76.76 0 0 0-.469.147.777.777 0 0 0-.273.434 1.214 1.214 0 0 0-.014.728c.038.107.094.24.168.399.07.163.124.303.161.42.042.117.066.243.07.378 0 .08-.028.138-.084.175a.38.38 0 0 1-.196.049Zm2.216.028a.795.795 0 0 1-.112.028c-.037 0-.077-.019-.119-.056-.154-.229-.266-.628-.336-1.197-.065-.57-.098-1.06-.098-1.47 0-.065.047-.098.14-.098.14 0 .21.077.21.231a.619.619 0 0 1-.007.105.892.892 0 0 1 .238-.301c.117-.103.252-.189.406-.259.154-.07.311-.105.469-.105.5 0 .864.222 1.092.665.229.439.343.985.343 1.638 0 .224-.023.404-.07.539-.046.13-.109.196-.189.196-.084 0-.126-.026-.126-.077a5.5 5.5 0 0 0 .049-.728c0-.602-.105-1.057-.315-1.365-.21-.313-.487-.469-.833-.469a1.036 1.036 0 0 0-.868.476.947.947 0 0 0-.14.511c0 .215.012.401.035.56.024.159.061.35.112.574.056.22.096.42.119.602Zm4.587-.028c-.486 0-.908-.084-1.267-.252-.355-.173-.532-.474-.532-.903a.81.81 0 0 1 .14-.448.991.991 0 0 1 .413-.35c.182-.093.403-.14.665-.14.2 0 .371.01.511.028.14.019.301.07.483.154.182.084.371.217.567.399a2.838 2.838 0 0 0-.336-.847 1.873 1.873 0 0 0-.504-.56c-.182-.135-.362-.203-.539-.203a.584.584 0 0 0-.238.049c-.07.028-.157.07-.259.126-.117.075-.203.112-.259.112a.1.1 0 0 1-.063-.021.103.103 0 0 1-.021-.063c0-.187.081-.331.245-.434.168-.103.371-.15.609-.14.326.019.625.159.896.42.27.257.483.576.637.959.158.383.238.758.238 1.127 0 .06-.005.147-.014.259l-.224-.014c-.178-.36-.406-.614-.686-.763a1.693 1.693 0 0 0-.833-.231c-.36 0-.616.054-.77.161a.536.536 0 0 0-.231.469c0 .215.107.387.322.518.214.13.49.196.826.196.186 0 .336-.01.448-.028a3.95 3.95 0 0 0 .35-.091c.098-.033.184-.056.259-.07.074-.014.17-.021.287-.021.13 0 .212.01.245.028.037.019.056.06.056.126 0 .047-.096.105-.287.175-.192.07-.406.133-.644.189a2.61 2.61 0 0 1-.49.084Zm2.366-.049a15.513 15.513 0 0 1-.238-1.806 27.97 27.97 0 0 1-.077-2.03c0-.327.007-.616.021-.868 0-.06.047-.091.14-.091.075 0 .121.019.14.056a.343.343 0 0 1 .035.175c0 .756.014 1.402.042 1.939.028.532.065 1.106.112 1.722l.056.805c.005.075-.035.112-.119.112a.608.608 0 0 1-.112-.014Zm1.176 0a15.513 15.513 0 0 1-.238-1.806c-.052-.7-.077-1.377-.077-2.03 0-.327.007-.616.021-.868 0-.06.046-.091.14-.091.074 0 .121.019.14.056a.343.343 0 0 1 .035.175c0 .756.014 1.402.042 1.939.028.532.065 1.106.112 1.722l.056.805c.004.075-.035.112-.119.112a.599.599 0 0 1-.112-.014Zm2.708 3.36a1.78 1.78 0 0 1-.854-.203 2.069 2.069 0 0 1-.595-.469c-.149-.177-.233-.322-.252-.434-.018-.103.005-.182.07-.238a.349.349 0 0 1 .259-.07c.145.345.318.611.518.798.201.187.488.285.861.294.262.005.469-.163.623-.504.159-.336.271-.749.336-1.239.066-.485.098-.964.098-1.435a6.82 6.82 0 0 0-.021-.595 1.676 1.676 0 0 1-1.358.651c-.476 0-.842-.226-1.099-.679a4.266 4.266 0 0 1-.49-1.533 1.584 1.584 0 0 1-.014-.238c0-.294.096-.441.287-.441.019 0 .045.117.077.35.052.369.115.7.189.994.075.294.199.562.371.805a.833.833 0 0 0 .7.357c.229 0 .462-.075.7-.224.243-.154.418-.324.525-.511 0-.355-.046-.672-.14-.952l-.14-.455a3.232 3.232 0 0 1-.014-.196c0-.093.014-.161.042-.203a.168.168 0 0 1 .14-.063c.066 0 .14.133.224.399a7.1 7.1 0 0 1 .224 1.043 13.087 13.087 0 0 1 .147 1.883c0 .896-.112 1.638-.336 2.226-.219.588-.578.882-1.078.882Zm8.265-3.304c-.07 0-.112-.019-.126-.056a.637.637 0 0 1-.021-.189.752.752 0 0 0 .007-.112.55.55 0 0 1 .007-.105c.028-.224.042-.436.042-.637 0-.443-.075-.789-.224-1.036-.149-.252-.385-.378-.707-.378a1.18 1.18 0 0 0-.532.133 1.386 1.386 0 0 0-.427.329c-.107.13-.161.25-.161.357.023.135.065.301.126.497.005.023.023.096.056.217.037.121.056.231.056.329l.007.133c0 .075-.037.112-.112.112-.093 0-.17-.06-.231-.182a3.925 3.925 0 0 1-.189-.567 6.24 6.24 0 0 0-.203-.623 1.286 1.286 0 0 0-.266-.42.566.566 0 0 0-.427-.175.688.688 0 0 0-.56.245.931.931 0 0 0-.196.602c0 .159.014.369.042.63.023.196.035.364.035.504a.481.481 0 0 1-.028.189c-.019.042-.063.063-.133.063-.093 0-.159-.03-.196-.091a.611.611 0 0 1-.056-.294c0-.257-.014-.567-.042-.931a16.628 16.628 0 0 1-.028-.357 5.016 5.016 0 0 1-.007-.588l.007-.231a.135.135 0 0 1 .098-.042c.051 0 .093.033.126.098a.55.55 0 0 1 .056.28c.07-.121.173-.231.308-.329a.717.717 0 0 1 .427-.147c.257 0 .469.054.637.161.173.103.329.27.469.504.131-.238.327-.441.588-.609.266-.168.539-.252.819-.252.289 0 .53.11.721.329a2 2 0 0 1 .427.791c.093.308.14.593.14.854 0 .233-.021.457-.063.672-.037.215-.126.322-.266.322ZM134.03 48a1.94 1.94 0 0 1-.826-.175 1.465 1.465 0 0 1-.602-.497 1.263 1.263 0 0 1-.224-.742c0-.313.058-.604.175-.875a1.53 1.53 0 0 1 .511-.658c.228-.168.494-.252.798-.252.317 0 .557.103.721.308.163.2.24.455.231.763a.71.71 0 0 1-.329.63c-.215.145-.49.217-.826.217-.052 0-.129-.005-.231-.014a1.254 1.254 0 0 1-.357-.077c-.07-.033-.105-.098-.105-.196 0-.033.009-.056.028-.07.018-.019.056-.028.112-.028.06 0 .168.014.322.042.149.028.282.042.399.042.429 0 .644-.187.644-.56 0-.224-.042-.401-.126-.532-.08-.13-.222-.196-.427-.196-.224 0-.425.06-.602.182-.178.117-.315.27-.413.462a1.36 1.36 0 0 0-.14.609c0 .369.102.672.308.91.205.233.522.35.952.35.051 0 .137-.005.259-.014a.956.956 0 0 0 .189-.042l.161-.049c.2-.07.347-.105.441-.105a.22.22 0 0 1 .161.056 1.018 1.018 0 0 1-.525.392c-.229.08-.455.119-.679.119Zm3.284 0c-.485 0-.907-.084-1.267-.252-.354-.173-.532-.474-.532-.903a.82.82 0 0 1 .14-.448.998.998 0 0 1 .413-.35 1.45 1.45 0 0 1 .665-.14c.201 0 .371.01.511.028.14.019.301.07.483.154.182.084.371.217.567.399a2.786 2.786 0 0 0-.336-.847 1.847 1.847 0 0 0-.504-.56c-.182-.135-.361-.203-.539-.203a.588.588 0 0 0-.238.049c-.07.028-.156.07-.259.126-.116.075-.203.112-.259.112a.104.104 0 0 1-.063-.021.103.103 0 0 1-.021-.063c0-.187.082-.331.245-.434.168-.103.371-.15.609-.14.327.019.626.159.896.42.271.257.483.576.637.959.159.383.238.758.238 1.127 0 .06-.004.147-.014.259l-.224-.014c-.177-.36-.406-.614-.686-.763a1.69 1.69 0 0 0-.833-.231c-.359 0-.616.054-.77.161a.536.536 0 0 0-.231.469c0 .215.108.387.322.518.215.13.49.196.826.196.187 0 .336-.01.448-.028.112-.023.229-.054.35-.091.098-.033.185-.056.259-.07.075-.014.171-.021.287-.021.131 0 .213.01.245.028.038.019.056.06.056.126 0 .047-.095.105-.287.175-.191.07-.406.133-.644.189a2.598 2.598 0 0 1-.49.084Zm2.647.028a.875.875 0 0 1-.112.028c-.038 0-.077-.019-.119-.056-.154-.229-.266-.628-.336-1.197-.066-.57-.098-1.06-.098-1.47 0-.065.046-.098.14-.098.14 0 .21.077.21.231a.744.744 0 0 1-.007.105.88.88 0 0 1 .238-.301 1.61 1.61 0 0 1 .406-.259c.154-.07.31-.105.469-.105.499 0 .863.222 1.092.665.228.439.343.985.343 1.638 0 .224-.024.404-.07.539-.047.13-.11.196-.189.196-.084 0-.126-.026-.126-.077a5.67 5.67 0 0 0 .049-.728c0-.602-.105-1.057-.315-1.365-.21-.313-.488-.469-.833-.469a1.033 1.033 0 0 0-.868.476.938.938 0 0 0-.14.511c0 .215.011.401.035.56.023.159.06.35.112.574.056.22.095.42.119.602Zm2.822-.854a.308.308 0 0 1 .189-.077c.056 0 .109.016.161.049a.99.99 0 0 1 .168.126c.056.047.1.082.133.105.107.084.254.15.441.196.186.047.385.07.595.07.238 0 .45-.044.637-.133.191-.093.287-.217.287-.371 0-.14-.052-.25-.154-.329a.96.96 0 0 0-.371-.182 5.27 5.27 0 0 0-.574-.105 4.818 4.818 0 0 1-.77-.14.946.946 0 0 1-.448-.273c-.112-.13-.168-.313-.168-.546 0-.252.119-.439.357-.56.238-.126.511-.189.819-.189.28 0 .518.06.714.182a.57.57 0 0 1 .308.504.5.5 0 0 1-.056.301c-.047.07-.103.105-.168.105a.133.133 0 0 1-.098-.042.166.166 0 0 1-.035-.112.49.49 0 0 1 .077-.245c-.024-.112-.101-.196-.231-.252a1.117 1.117 0 0 0-.455-.084c-.262 0-.469.049-.623.147-.154.093-.231.205-.231.336 0 .14.056.247.168.322.112.075.247.128.406.161.163.028.394.056.693.084.247.033.448.072.602.119a.788.788 0 0 1 .399.273c.107.13.161.32.161.567 0 .257-.119.46-.357.609a1.614 1.614 0 0 1-.854.217c-.425 0-.805-.072-1.141-.217-.332-.145-.525-.35-.581-.616Zm6.27.546a9.635 9.635 0 0 1-.203-1.071 25.434 25.434 0 0 1-.126-1.792c0-.056.019-.105.056-.147a.195.195 0 0 1 .14-.063h.063c.024.154.04.401.049.742 0 .037.005.163.014.378.01.21.033.408.07.595.542-.051.973-.156 1.295-.315.327-.159.49-.385.49-.679 0-.369-.163-.67-.49-.903-.326-.233-.819-.35-1.477-.35-.275 0-.508.051-.7.154-.032.014-.056.044-.07.091a1.024 1.024 0 0 0-.035.182.958.958 0 0 1-.035.189c-.014.042-.039.063-.077.063-.042 0-.07-.03-.084-.091a4.228 4.228 0 0 1-.014-.441c0-.13.089-.233.266-.308.178-.075.406-.112.686-.112.817 0 1.424.128 1.82.385.397.257.595.651.595 1.183a.893.893 0 0 1-.343.714 2.229 2.229 0 0 1-.833.427 3.573 3.573 0 0 1-.938.133l.028.154c.01.047.017.086.021.119.066.317.098.562.098.735a.593.593 0 0 1-.042.245c-.023.06-.077.082-.161.063l-.063-.28Zm5.051.308a.795.795 0 0 1-.112.028c-.037 0-.077-.019-.119-.056-.154-.229-.266-.628-.336-1.197-.065-.57-.098-1.06-.098-1.47 0-.065.047-.098.14-.098.14 0 .21.077.21.231a.619.619 0 0 1-.007.105.892.892 0 0 1 .238-.301c.117-.103.252-.189.406-.259.154-.07.311-.105.469-.105.5 0 .864.222 1.092.665.229.439.343.985.343 1.638 0 .224-.023.404-.07.539-.046.13-.109.196-.189.196-.084 0-.126-.026-.126-.077a5.5 5.5 0 0 0 .049-.728c0-.602-.105-1.057-.315-1.365-.21-.313-.487-.469-.833-.469a1.036 1.036 0 0 0-.868.476.947.947 0 0 0-.14.511c0 .215.012.401.035.56.024.159.061.35.112.574.056.22.096.42.119.602Zm4.236-.021a1.54 1.54 0 0 1-.749-.182 1.383 1.383 0 0 1-.518-.518 1.58 1.58 0 0 1-.182-.763c0-.467.171-.814.511-1.043.346-.229.768-.343 1.267-.343.229 0 .441.056.637.168.201.112.362.273.483.483.122.21.182.453.182.728 0 .299-.077.56-.231.784-.154.22-.357.39-.609.511a1.83 1.83 0 0 1-.791.175Zm-.077-.399c.434 0 .763-.098.987-.294.224-.196.336-.483.336-.861a.93.93 0 0 0-.266-.665c-.172-.187-.415-.28-.728-.28-.21 0-.422.04-.637.119a1.3 1.3 0 0 0-.532.357.838.838 0 0 0-.21.574c0 .187.047.362.14.525.094.159.22.287.378.385.164.093.341.14.532.14Zm3.392.392a.626.626 0 0 1-.091.014c-.145 0-.245-.107-.301-.322-.051-.215-.077-.516-.077-.903 0-.159.005-.406.014-.742.009-.205.014-.36.014-.462-.574 0-.861-.065-.861-.196a.28.28 0 0 1 .014-.098c.014-.023.042-.035.084-.035l.763-.049a15.56 15.56 0 0 0-.035-.749 12.52 12.52 0 0 1-.035-.672c0-.051.021-.086.063-.105a.27.27 0 0 1 .133-.035c.056 0 .103.03.14.091a.314.314 0 0 1 .056.175l.049 1.281.581.028a.322.322 0 0 1 .224.049c.065.042.1.112.105.21a1.015 1.015 0 0 1-.322.077c-.117.01-.313.014-.588.014 0 .434.021 1.148.063 2.142v.217a.66.66 0 0 1 .007.07Zm-50.022 9.951a15.513 15.513 0 0 1-.238-1.806c-.052-.7-.077-1.377-.077-2.03 0-.327.007-.616.021-.868 0-.06.046-.091.14-.091.074 0 .121.019.14.056a.343.343 0 0 1 .035.175c0 .756.014 1.402.042 1.939.028.532.065 1.106.112 1.722l.056.805c.004.075-.035.112-.119.112a.599.599 0 0 1-.112-.014Zm1.26.056c-.108 0-.194-.156-.259-.469a6.695 6.695 0 0 1-.126-.819c-.019-.229-.045-.59-.077-1.085a5.155 5.155 0 0 1-.007-.308c0-.159.011-.268.035-.329.028-.06.072-.091.133-.091.051 0 .091.012.119.035.032.019.06.051.084.098l-.007.28c0 .299.014.581.042.847.032.266.081.623.147 1.071.037.196.063.357.077.483a.335.335 0 0 1-.035.196c-.033.06-.075.091-.126.091Zm-.175-3.85a.256.256 0 0 1-.231-.119.568.568 0 0 1-.07-.294c0-.051.002-.089.007-.112-.005-.075.037-.112.126-.112.065 0 .13.016.196.049.07.028.091.049.063.063a.88.88 0 0 1 .07.287.24.24 0 0 1-.042.147.423.423 0 0 1-.119.091ZM115.333 58a1.94 1.94 0 0 1-.826-.175 1.472 1.472 0 0 1-.602-.497 1.27 1.27 0 0 1-.224-.742c0-.313.059-.604.175-.875.117-.275.287-.495.511-.658.229-.168.495-.252.798-.252.318 0 .558.103.721.308.164.2.241.455.231.763a.707.707 0 0 1-.329.63c-.214.145-.49.217-.826.217a2.97 2.97 0 0 1-.231-.014 1.254 1.254 0 0 1-.357-.077c-.07-.033-.105-.098-.105-.196 0-.033.01-.056.028-.07.019-.019.056-.028.112-.028.061 0 .168.014.322.042.15.028.283.042.399.042.43 0 .644-.187.644-.56 0-.224-.042-.401-.126-.532-.079-.13-.221-.196-.427-.196-.224 0-.424.06-.602.182-.177.117-.315.27-.413.462-.093.191-.14.394-.14.609 0 .369.103.672.308.91.206.233.523.35.952.35.052 0 .138-.005.259-.014a.927.927 0 0 0 .189-.042l.161-.049c.201-.07.348-.105.441-.105.07 0 .124.019.161.056a1.01 1.01 0 0 1-.525.392 2.06 2.06 0 0 1-.679.119Zm1.521-.826a.308.308 0 0 1 .189-.077c.056 0 .11.016.161.049a.99.99 0 0 1 .168.126c.056.047.1.082.133.105.107.084.254.15.441.196.187.047.385.07.595.07.238 0 .45-.044.637-.133.191-.093.287-.217.287-.371 0-.14-.051-.25-.154-.329a.952.952 0 0 0-.371-.182 5.27 5.27 0 0 0-.574-.105 4.818 4.818 0 0 1-.77-.14.946.946 0 0 1-.448-.273c-.112-.13-.168-.313-.168-.546 0-.252.119-.439.357-.56.238-.126.511-.189.819-.189.28 0 .518.06.714.182a.568.568 0 0 1 .308.504.493.493 0 0 1-.056.301c-.047.07-.103.105-.168.105a.135.135 0 0 1-.098-.042.171.171 0 0 1-.035-.112.5.5 0 0 1 .077-.245c-.023-.112-.1-.196-.231-.252a1.117 1.117 0 0 0-.455-.084c-.261 0-.469.049-.623.147-.154.093-.231.205-.231.336 0 .14.056.247.168.322.112.075.247.128.406.161.163.028.394.056.693.084.247.033.448.072.602.119a.78.78 0 0 1 .399.273c.107.13.161.32.161.567 0 .257-.119.46-.357.609a1.614 1.614 0 0 1-.854.217c-.425 0-.805-.072-1.141-.217-.331-.145-.525-.35-.581-.616Zm7.16.833c-.374 0-.668-.072-.882-.217-.215-.15-.374-.373-.476-.672-.103-.303-.171-.71-.203-1.218l-.203-1.183a6.074 6.074 0 0 0-.077-.504 2.023 2.023 0 0 1-.049-.35c0-.098.028-.17.084-.217.056-.051.156-.086.301-.105a49.153 49.153 0 0 0 .182 1.568c.037.238.084.488.14.749a2.557 2.557 0 0 1 1.036-.238c.298 0 .564.063.798.189.233.121.415.294.546.518.13.22.196.467.196.742 0 .322-.143.56-.427.714-.28.15-.602.224-.966.224Zm1.001-.924c.004-.033.007-.08.007-.14 0-.331-.115-.579-.343-.742-.224-.163-.544-.245-.959-.245-.257 0-.458.051-.602.154a.469.469 0 0 0-.21.406c0 .397.107.686.322.868.219.182.553.273 1.001.273a.942.942 0 0 0 .539-.147.558.558 0 0 0 .245-.427Zm.8.917a.172.172 0 0 1-.14-.07.265.265 0 0 1-.056-.161c0-.103.042-.257.126-.462.088-.21.175-.397.259-.56l1.127-3.08a1.05 1.05 0 0 1 .028-.161c.032-.21.067-.38.105-.511.042-.13.105-.212.189-.245.065.014.105.044.119.091.014.042.018.086.014.133v.091c0 .182-.131.688-.392 1.519-.257.83-.528 1.608-.812 2.331-.285.723-.474 1.085-.567 1.085Zm5.289-.035c-.262 0-.474-.049-.637-.147a.825.825 0 0 1-.336-.476c-.14.243-.301.425-.483.546a1.07 1.07 0 0 1-.588.175c-.364 0-.644-.13-.84-.392-.196-.261-.294-.684-.294-1.267 0-.275.028-.509.084-.7.06-.191.161-.366.301-.525.065.023.105.056.119.098a.4.4 0 0 1 .028.168c0 .075-.01.15-.028.224a2.005 2.005 0 0 1-.028.133c-.033.14-.059.264-.077.371a2.93 2.93 0 0 0-.021.385c0 .336.063.611.189.826.13.21.317.315.56.315.275 0 .49-.089.644-.266a1 1 0 0 0 .238-.679l-.049-.714c0-.028.018-.056.056-.084a.245.245 0 0 1 .14-.042c.065 0 .109.044.133.133.023.089.044.229.063.42.028.238.058.434.091.588.037.15.107.282.21.399.102.112.252.168.448.168.238 0 .41-.065.518-.196a.821.821 0 0 0 .161-.525c0-.191-.038-.392-.112-.602a1.792 1.792 0 0 0-.259-.525c-.005-.042.016-.077.063-.105a.2.2 0 0 1 .154-.021c.084.019.161.093.231.224.074.13.133.294.175.49.046.196.07.392.07.588 0 .294-.075.537-.224.728-.145.191-.378.287-.7.287Zm6.526.042c-.056 0-.096-.014-.119-.042a.211.211 0 0 1-.028-.119c0-.103.023-.261.07-.476.051-.196.077-.357.077-.483 0-.364-.028-.642-.084-.833h-.217c-.192 0-.441-.005-.749-.014l-.658-.007h-.945l.014.273c0 .215.035.483.105.805.023.13.044.264.063.399.023.13.035.25.035.357v.063a.209.209 0 0 1-.147.07c-.122 0-.217-.142-.287-.427a4.491 4.491 0 0 1-.105-1.043c0-.163.007-.324.021-.483-.103-.005-.173-.021-.21-.049-.038-.033-.056-.082-.056-.147 0-.051.014-.086.042-.105a.468.468 0 0 1 .168-.042l-.007-.189.021-.322c.032-.527.081-.957.147-1.288.065-.331.205-.618.42-.861.214-.243.536-.364.966-.364.49 0 .872.264 1.148.791.275.527.462 1.115.56 1.764.098.649.147 1.206.147 1.673 0 .168-.005.315-.014.441-.01.121-.028.273-.056.455-.108.135-.215.203-.322.203Zm-.112-2.226c-.089-.863-.248-1.54-.476-2.03-.229-.495-.572-.742-1.029-.742-.341 0-.593.159-.756.476a2.74 2.74 0 0 0-.287 1.008c-.033.36-.049.763-.049 1.211l2.597.077Zm5.671-.413c0 .06-.049.103-.147.126a2.299 2.299 0 0 1-.455.042 4.97 4.97 0 0 1-.168.651 3.58 3.58 0 0 1-.273.609l.672 1.029c-.028.047-.084.07-.168.07l-.112-.007a15.87 15.87 0 0 1-.581-.763c-.196.317-.371.546-.525.686a.82.82 0 0 1-.56.203.698.698 0 0 1-.483-.182.635.635 0 0 1-.196-.49c0-.21.044-.413.133-.609a7.1 7.1 0 0 1 .392-.735c.117-.2.203-.357.259-.469.061-.117.107-.231.14-.343.005-.336.016-.677.035-1.022.014-.28.021-.511.021-.693 0-.22.093-.329.28-.329a.43.43 0 0 1 .378.217c.093.14.14.317.14.532 0 .21-.044.439-.133.686a5.525 5.525 0 0 1-.399.854c.028.135.084.29.168.462.089.168.205.371.35.609.252-.509.366-.929.343-1.26 0-.051.079-.077.238-.077l.343.007c.121 0 .203.012.245.035.042.019.063.072.063.161Zm-2.268 2.296c.154 0 .296-.06.427-.182.135-.126.278-.331.427-.616a20.144 20.144 0 0 1-.602-.959 10.44 10.44 0 0 0-.469.868 1.37 1.37 0 0 0-.126.567c0 .107.03.189.091.245a.38.38 0 0 0 .252.077Zm7.294.343c-.891 0-1.582-.049-2.072-.147-.126-2.338-.24-3.752-.343-4.242l-.21.049a5.482 5.482 0 0 0-.322.077 2.24 2.24 0 0 0-.329.105l-.007-.238c0-.08.087-.152.259-.217a2.8 2.8 0 0 1 .623-.161c.248-.042.467-.063.658-.063.21 0 .451.037.721.112.276.075.511.187.707.336.196.145.294.317.294.518a.835.835 0 0 1-.266.609 1.471 1.471 0 0 1-.679.371c.411.07.794.196 1.148.378.355.177.64.399.854.665.215.261.322.544.322.847 0 .35-.135.604-.406.763-.27.159-.588.238-.952.238Zm-.182-.399c.346 0 .612-.037.798-.112.187-.08.28-.247.28-.504a.976.976 0 0 0-.245-.679 1.648 1.648 0 0 0-.567-.434 7.649 7.649 0 0 0-.805-.336 4.645 4.645 0 0 1-.574-.231c-.121-.07-.182-.147-.182-.231 0-.06.031-.107.091-.14.061-.033.168-.08.322-.14.21-.07.374-.145.49-.224a.4.4 0 0 0 .182-.35c0-.22-.133-.387-.399-.504a2.133 2.133 0 0 0-.896-.182c-.093 0-.205.01-.336.028.122.784.206 1.444.252 1.981.047.532.08 1.15.098 1.855.066.065.231.114.497.147.266.033.598.051.994.056Z"/>
  <rect width="68" height="19" x="95.5" y="41.5" stroke="#fff" rx="1.5"/>
  <rect width="68" height="19" x="93.5" y="7.5" stroke="#fff" rx="1.5"/>
  <path fill="#fff" d="M62.67 32.72a9.411 9.411 0 0 1-.203-1.071 24.09 24.09 0 0 1-.127-1.792.22.22 0 0 1 .056-.147.194.194 0 0 1 .14-.063h.063c.024.154.04.401.05.742 0 .037.004.163.014.378.009.21.032.408.07.595.54-.051.973-.156 1.295-.315.326-.159.49-.385.49-.679 0-.369-.164-.67-.49-.903-.327-.233-.82-.35-1.478-.35-.275 0-.508.051-.7.154-.032.014-.056.044-.07.091a.964.964 0 0 0-.035.182.981.981 0 0 1-.034.189c-.014.042-.04.063-.078.063-.041 0-.07-.03-.084-.091a4.14 4.14 0 0 1-.014-.441c0-.13.09-.233.267-.308.177-.075.406-.112.685-.112.817 0 1.424.128 1.82.385.397.257.596.651.596 1.183a.894.894 0 0 1-.344.714 2.236 2.236 0 0 1-.832.427c-.327.089-.64.133-.938.133a4.9 4.9 0 0 0 .027.154c.01.047.017.086.021.119.066.317.098.562.098.735a.593.593 0 0 1-.041.245c-.024.06-.078.082-.161.063l-.063-.28Zm5.925.287c-.056 0-.095-.014-.119-.042a.213.213 0 0 1-.028-.119 2.5 2.5 0 0 1 .07-.476c.052-.196.077-.357.077-.483 0-.364-.028-.642-.084-.833h-.217c-.19 0-.44-.005-.749-.014l-.658-.007h-.945l.014.273c0 .215.035.483.105.805.024.13.045.264.063.399.024.13.035.25.035.357v.063a.207.207 0 0 1-.147.07c-.12 0-.217-.142-.287-.427a4.491 4.491 0 0 1-.105-1.043c0-.163.007-.324.021-.483-.102-.005-.172-.021-.21-.049-.037-.033-.056-.082-.056-.147 0-.051.014-.086.042-.105a.477.477 0 0 1 .168-.042l-.007-.189.021-.322c.033-.527.082-.957.147-1.288a1.8 1.8 0 0 1 .42-.861c.215-.243.537-.364.966-.364.49 0 .873.264 1.148.791.276.527.462 1.115.56 1.764.098.649.147 1.206.147 1.673 0 .168-.004.315-.014.441a6.079 6.079 0 0 1-.056.455c-.107.135-.214.203-.322.203Zm-.112-2.226c-.088-.863-.247-1.54-.476-2.03-.228-.495-.571-.742-1.029-.742-.34 0-.592.159-.756.476a2.759 2.759 0 0 0-.287 1.008c-.032.36-.049.763-.049 1.211l2.597.077Zm2.956.385a.318.318 0 0 1-.203-.077.224.224 0 0 1-.077-.161.24.24 0 0 1 .056-.154.172.172 0 0 1 .14-.07c.065 0 .123.026.175.077.051.051.077.11.077.175a.309.309 0 0 1-.077.189.117.117 0 0 1-.091.021Zm-.042 1.379a.252.252 0 0 1-.175-.063.227.227 0 0 1-.063-.168c0-.07.02-.126.063-.168a.252.252 0 0 1 .175-.063c.08 0 .14.021.182.063a.227.227 0 0 1 .063.168c0 .154-.082.231-.245.231Zm3.31.175a9.411 9.411 0 0 1-.202-1.071c-.047-.364-.09-.961-.126-1.792 0-.056.018-.105.056-.147a.194.194 0 0 1 .14-.063h.063c.023.154.04.401.049.742 0 .037.004.163.014.378.009.21.032.408.07.595.54-.051.973-.156 1.295-.315.326-.159.49-.385.49-.679 0-.369-.164-.67-.49-.903-.327-.233-.82-.35-1.477-.35-.276 0-.51.051-.7.154-.033.014-.056.044-.07.091a.964.964 0 0 0-.035.182.981.981 0 0 1-.035.189c-.014.042-.04.063-.077.063-.042 0-.07-.03-.084-.091a4.14 4.14 0 0 1-.014-.441c0-.13.088-.233.266-.308.177-.075.406-.112.686-.112.816 0 1.423.128 1.82.385.396.257.595.651.595 1.183a.894.894 0 0 1-.343.714 2.236 2.236 0 0 1-.833.427c-.327.089-.64.133-.938.133a4.9 4.9 0 0 0 .028.154c.009.047.016.086.02.119.066.317.099.562.099.735a.593.593 0 0 1-.042.245c-.024.06-.077.082-.161.063l-.063-.28Zm5.5.287c-.892 0-1.582-.049-2.072-.147-.127-2.338-.24-3.752-.344-4.242l-.21.049a5.252 5.252 0 0 0-.322.077 2.2 2.2 0 0 0-.329.105l-.007-.238c0-.08.087-.152.26-.217.172-.07.38-.124.622-.161a3.98 3.98 0 0 1 .658-.063c.21 0 .45.037.722.112.275.075.51.187.706.336.197.145.294.317.294.518a.838.838 0 0 1-.266.609 1.475 1.475 0 0 1-.678.371c.41.07.793.196 1.147.378.355.177.64.399.855.665.214.261.322.544.322.847 0 .35-.136.604-.406.763a1.85 1.85 0 0 1-.953.238Zm-.182-.399c.345 0 .61-.037.797-.112.187-.08.28-.247.28-.504a.98.98 0 0 0-.245-.679 1.66 1.66 0 0 0-.567-.434 7.713 7.713 0 0 0-.805-.336 4.6 4.6 0 0 1-.573-.231c-.122-.07-.183-.147-.183-.231 0-.06.03-.107.091-.14.061-.033.169-.08.323-.14.21-.07.373-.145.49-.224a.402.402 0 0 0 .181-.35c0-.22-.132-.387-.398-.504a2.136 2.136 0 0 0-.897-.182c-.093 0-.205.01-.336.028.122.784.206 1.444.252 1.981.047.532.08 1.15.099 1.855.065.065.23.114.496.147.266.033.598.051.995.056Zm5.773-1.932a66.4 66.4 0 0 0-1.043.021c-.238.014-.464.021-.679.021-.13 0-.196-.06-.196-.182 0-.047.007-.093.021-.14.047-.075.427-.112 1.141-.112.397 0 .684.002.861.007.444.01.651.103.623.28-.009.06-.023.1-.042.119-.018.019-.053.028-.105.028-.05 0-.107-.002-.168-.007a.987.987 0 0 0-.133-.014 1.794 1.794 0 0 0-.28-.021Zm-1.512 1.057a.785.785 0 0 1-.294-.042c-.06-.033-.09-.105-.09-.217 0-.014.006-.03.02-.049.02-.019.033-.028.042-.028l.504-.042a2.42 2.42 0 0 1 .266-.014c.098-.005.238-.007.42-.007l.42-.007c.07-.005.168-.007.294-.007a1 1 0 0 1 .385.056c.09.037.145.112.168.224-.009.06-.035.103-.077.126a.433.433 0 0 1-.182.028l-1.876-.021Zm9.16 1.274c-.07 0-.112-.019-.126-.056a.637.637 0 0 1-.021-.189.794.794 0 0 0 .007-.112c0-.047.002-.082.007-.105.028-.224.042-.436.042-.637 0-.443-.075-.789-.224-1.036-.15-.252-.385-.378-.707-.378a1.18 1.18 0 0 0-.532.133 1.39 1.39 0 0 0-.427.329c-.107.13-.161.25-.161.357.023.135.065.301.126.497.005.023.023.096.056.217.037.121.056.231.056.329l.007.133c0 .075-.037.112-.112.112-.093 0-.17-.06-.231-.182a3.925 3.925 0 0 1-.189-.567 6.138 6.138 0 0 0-.203-.623 1.291 1.291 0 0 0-.266-.42.566.566 0 0 0-.427-.175.688.688 0 0 0-.56.245.933.933 0 0 0-.196.602c0 .159.014.369.042.63.023.196.035.364.035.504a.5.5 0 0 1-.028.189c-.019.042-.063.063-.133.063-.093 0-.159-.03-.196-.091a.608.608 0 0 1-.056-.294c0-.257-.014-.567-.042-.931a20.054 20.054 0 0 1-.028-.357 4.952 4.952 0 0 1-.007-.588l.007-.231a.134.134 0 0 1 .098-.042c.051 0 .093.033.126.098a.55.55 0 0 1 .056.28c.07-.121.173-.231.308-.329a.717.717 0 0 1 .427-.147c.257 0 .469.054.637.161.173.103.329.27.469.504a1.7 1.7 0 0 1 .588-.609c.266-.168.539-.252.819-.252.29 0 .53.11.721.329.196.22.338.483.427.791.093.308.14.593.14.854 0 .233-.021.457-.063.672-.037.215-.126.322-.266.322Zm2.712-1.841a.318.318 0 0 1-.203-.077.224.224 0 0 1-.077-.161c0-.056.018-.107.056-.154a.172.172 0 0 1 .14-.07c.065 0 .123.026.175.077a.24.24 0 0 1 .077.175.306.306 0 0 1-.077.189.116.116 0 0 1-.091.021Zm-.042 1.379a.252.252 0 0 1-.175-.063.227.227 0 0 1-.063-.168c0-.07.02-.126.063-.168a.252.252 0 0 1 .175-.063c.079 0 .14.021.182.063a.227.227 0 0 1 .063.168c0 .154-.082.231-.245.231Zm2.981.483a.83.83 0 0 1-.112.028c-.037 0-.077-.019-.119-.056-.154-.229-.266-.628-.336-1.197a13.17 13.17 0 0 1-.098-1.47c0-.065.047-.098.14-.098.14 0 .21.077.21.231a.652.652 0 0 1-.007.105.885.885 0 0 1 .238-.301c.117-.103.252-.189.406-.259.154-.07.31-.105.47-.105.499 0 .863.222 1.091.665.229.439.343.985.343 1.638 0 .224-.023.404-.07.539-.046.13-.109.196-.189.196-.084 0-.126-.026-.126-.077a5.5 5.5 0 0 0 .049-.728c0-.602-.105-1.057-.315-1.365-.21-.313-.487-.469-.833-.469a1.035 1.035 0 0 0-.868.476.944.944 0 0 0-.14.511c0 .215.012.401.035.56.024.159.061.35.112.574.056.22.096.42.12.602ZM74.561 43.266c-.411 0-.729-.184-.953-.553-.219-.369-.329-.835-.329-1.4 0-.658.099-1.19.294-1.596.201-.406.444-.693.729-.861.284-.168.569-.252.853-.252.164 0 .302.033.413.098.112.065.169.14.169.224a.227.227 0 0 1-.042.14.113.113 0 0 1-.098.049.362.362 0 0 1-.175-.056.679.679 0 0 0-.133-.063.452.452 0 0 0-.154-.021c-.934 0-1.4.821-1.4 2.464 0 .527.088.912.266 1.155.177.238.433.357.77.357a2 2 0 0 0 .28-.021c.046.019.07.063.07.133 0 .06-.052.11-.154.147a1.215 1.215 0 0 1-.406.056Zm6.368-.259c-.07 0-.112-.019-.126-.056a.637.637 0 0 1-.02-.189.794.794 0 0 0 .006-.112c0-.047.003-.082.007-.105.028-.224.042-.436.042-.637 0-.443-.074-.789-.224-1.036-.149-.252-.385-.378-.707-.378a1.18 1.18 0 0 0-.532.133 1.39 1.39 0 0 0-.427.329c-.107.13-.16.25-.16.357.023.135.065.301.125.497l.056.217c.038.121.056.231.056.329l.007.133c0 .075-.037.112-.112.112-.093 0-.17-.06-.23-.182a3.925 3.925 0 0 1-.19-.567 6.138 6.138 0 0 0-.203-.623 1.291 1.291 0 0 0-.266-.42.566.566 0 0 0-.427-.175.688.688 0 0 0-.56.245.933.933 0 0 0-.196.602c0 .159.014.369.042.63.024.196.035.364.035.504a.481.481 0 0 1-.028.189c-.018.042-.063.063-.133.063-.093 0-.158-.03-.196-.091a.608.608 0 0 1-.056-.294c0-.257-.014-.567-.042-.931a20.054 20.054 0 0 1-.028-.357 4.952 4.952 0 0 1-.007-.588l.007-.231a.134.134 0 0 1 .098-.042c.052 0 .094.033.126.098.038.06.056.154.056.28.07-.121.173-.231.308-.329a.717.717 0 0 1 .427-.147c.257 0 .47.054.637.161.173.103.33.27.47.504a1.7 1.7 0 0 1 .587-.609c.266-.168.54-.252.82-.252.289 0 .53.11.72.329.196.22.339.483.427.791.094.308.14.593.14.854 0 .233-.02.457-.063.672-.037.215-.126.322-.266.322Zm.899-.42c-.07 0-.117-.021-.14-.063a.44.44 0 0 1-.028-.175c.019-.056.089-.121.21-.196a6.88 6.88 0 0 1 .553-.294c.345-.168.635-.324.868-.469.238-.145.41-.296.518-.455a10.538 10.538 0 0 1-1.365-.56c-.383-.196-.595-.385-.637-.567a.211.211 0 0 1-.007-.063.17.17 0 0 1 .035-.112c.023-.028.058-.042.105-.042.08 0 .145.016.196.049a.931.931 0 0 1 .182.147c.107.098.198.163.273.196.089.037.222.103.399.196.252.13.469.233.651.308.182.075.36.124.532.147.065.023.105.056.119.098a.28.28 0 0 1 .021.147c-.01.177-.182.401-.518.672a6.812 6.812 0 0 1-1.113.721c-.406.21-.69.315-.854.315Zm3.481.441a.837.837 0 0 1-.112.028c-.037 0-.077-.019-.119-.056-.154-.229-.266-.628-.336-1.197-.065-.57-.098-1.06-.098-1.47 0-.065.047-.098.14-.098.14 0 .21.077.21.231a.663.663 0 0 1-.007.105.884.884 0 0 1 .238-.301 1.63 1.63 0 0 1 .406-.259c.154-.07.31-.105.47-.105.499 0 .863.222 1.091.665.229.439.343.985.343 1.638 0 .224-.023.404-.07.539-.046.13-.11.196-.189.196-.084 0-.126-.026-.126-.077a5.5 5.5 0 0 0 .05-.728c0-.602-.106-1.057-.316-1.365-.21-.313-.487-.469-.833-.469a1.035 1.035 0 0 0-.868.476.943.943 0 0 0-.14.511c0 .215.012.401.035.56.024.159.06.35.112.574.056.22.096.42.12.602Zm2.738.378c-.042 0-.084-.021-.126-.063a.187.187 0 0 1-.063-.133c0-.023.007-.047.021-.07a.276.276 0 0 1 .084-.077l.14-.091c.215-.13.406-.27.574-.42.168-.15.32-.366.455-.651.136-.29.203-.646.203-1.071 0-.378-.049-.677-.147-.896-.093-.22-.203-.373-.329-.462a1.743 1.743 0 0 0-.434-.238 1.18 1.18 0 0 1-.182-.084c-.037-.028-.056-.06-.056-.098 0-.13.077-.196.231-.196.224 0 .437.091.637.273.201.177.362.418.483.721.126.303.19.63.19.98 0 .471-.09.905-.267 1.302-.177.392-.399.702-.665.931-.26.229-.51.343-.749.343Z"/>
  <path fill="gold" d="M82.396 27.76a.25.25 0 0 1-.353.002l-1.6-1.582a.25.25 0 0 1 .35-.355l1.423 1.405 1.406-1.422a.25.25 0 1 1 .356.35l-1.582 1.601Zm11.207-9.895c-2.832-.468-4.926-.086-6.478.73-1.555.815-2.591 2.076-3.283 3.408-.694 1.333-1.038 2.729-1.208 3.796a13.94 13.94 0 0 0-.164 1.659 5.746 5.746 0 0 0-.001.094v.03l-.25.002h-.25v-.037c0-.023 0-.058.002-.103.002-.089.007-.219.017-.382.021-.328.064-.792.152-1.342.175-1.1.532-2.552 1.258-3.948.727-1.398 1.828-2.746 3.494-3.62 1.668-.876 3.876-1.263 6.793-.78l-.082.493Z" style="mix-blend-mode:lighten"/>
  <path fill="#fff" d="M10.752 57.616a5.944 5.944 0 0 1-.46-.832 6.622 6.622 0 0 1-.287-.738 3.027 3.027 0 0 1-.126-.679c-.017-.237-.03-.422-.037-.556a1.921 1.921 0 0 1 .048-.481 6.1 6.1 0 0 0 .064-.337c.004-.037.027-.113.067-.226l.08-.052.023-.016c.057-.037.097-.037.12 0 .009.011.002.076-.019.194a3.29 3.29 0 0 0-.037.483c-.004.205.011.443.046.715.034.271.133.605.295 1 .162.396.383.808.664 1.235.28.427.57.791.866 1.093.296.301.563.527.8.677.238.15.45.258.638.325s.343.118.465.153c.121.036.184.056.186.06.024.036.006.074-.055.114l-.018.012-.079.051-.264-.033a3.57 3.57 0 0 1-1.67-.737 5.914 5.914 0 0 1-1.31-1.425ZM12.694 56c-.084-.187-.103-.454-.06-.8.044-.346.203-.613.479-.8a.86.86 0 0 1 .458-.145.845.845 0 0 1 .439.1c.002-.364.122-.625.36-.781a.71.71 0 0 1 .474-.122.543.543 0 0 1 .404.245c.077.117.111.23.102.34a.431.431 0 0 1-.075.24.574.574 0 0 1-.123.116.318.318 0 0 1-.232.057.271.271 0 0 1-.187-.128c-.122-.185-.105-.378.051-.58-.078-.023-.176.004-.293.081a.476.476 0 0 0-.107.088c-.11.165-.136.372-.076.621.344 1.05.565 1.65.663 1.798.074.113.16.172.255.178a.412.412 0 0 0 .26-.066c.149-.098.252-.261.31-.49a1.206 1.206 0 0 0-.026-.684c-.014-.048-.017-.078-.007-.09a.685.685 0 0 1 .088-.076l.024-.016c.06-.04.102-.044.123-.011a.902.902 0 0 1 .032.074c.086.272.095.558.026.857-.068.3-.226.53-.472.691-.282.186-.579.2-.89.04-.002.36-.109.609-.322.75l-.037.023c-.197.13-.373.17-.526.121a.661.661 0 0 1-.352-.245.524.524 0 0 1-.092-.39.434.434 0 0 1 .193-.3c.173-.113.316-.086.427.084.053.08.075.166.066.259a.488.488 0 0 1-.118.294l-.014.018c.003.004.02.004.052 0s.074-.01.125-.021c.05-.01.093-.03.126-.057.146-.096.21-.269.196-.519-.006-.088-.05-.256-.131-.502a44.203 44.203 0 0 0-.426-1.227 1.766 1.766 0 0 0-.125-.255c-.074-.113-.157-.174-.25-.183a.383.383 0 0 0-.252.063.793.793 0 0 0-.326.492c-.057.221-.047.451.03.69.015.041.018.068.009.08a.685.685 0 0 1-.089.076l-.085.056c-.04-.009-.066-.023-.08-.043Zm4.174-2.48-.042.057c-.03.04-.078.092-.143.155a2.36 2.36 0 0 1-.228.193l-.081.053-.13-.196.082-.053a1.662 1.662 0 0 0 .501-.57c.025-.06.045-.118.058-.172 0-.012.015-.028.043-.046a.142.142 0 0 1 .09-.022l.84 1.277.847 1.28a.202.202 0 0 0 .077.004.608.608 0 0 0 .114-.05c.057-.03.148-.085.27-.166l.111-.073.13.197-.047.03c-.066.031-.295.176-.688.435-.388.255-.609.406-.663.454l-.051.033-.13-.196.112-.073.162-.107c.046-.03.08-.055.104-.075a.5.5 0 0 0 .06-.057.29.29 0 0 1 .029-.031.149.149 0 0 0 .011-.039c.005-.023.01-.035.015-.034l-1.453-2.209Zm2.89.035-.1-.15a.453.453 0 0 1-.074-.324.395.395 0 0 1 .189-.28.473.473 0 0 1 .401-.048c.155.043.318.19.489.44.093.142.165.29.216.448.051.156.084.299.1.428.015.128.017.245.005.35a2.818 2.818 0 0 1-.037.26c-.014.066-.028.101-.043.105-.016.011-.054.01-.114-.002-.06-.013-.096-.027-.107-.043-.01-.016-.01-.063.003-.14a3.62 3.62 0 0 0 .032-.281 1.39 1.39 0 0 0-.041-.406 2.082 2.082 0 0 0-.194-.505l-.048-.072-.002.01a.287.287 0 0 1-.022.032.182.182 0 0 0-.024.042.119.119 0 0 1-.047.048.526.526 0 0 0-.068.053.43.43 0 0 1-.334.072l-.18-.037Zm1.341-3.064c-.037-.056-.07-.173-.1-.35a2.01 2.01 0 0 1 .008-.62c.035-.236.136-.407.304-.511a.677.677 0 0 1 .49-.124.62.62 0 0 1 .412.284.966.966 0 0 1 .065.139c.008.012.037.126.086.341.05.216.112.455.186.718.075.262.157.457.246.583.114.173.221.276.323.307.101.031.21.012.325-.058a.634.634 0 0 0 .216-.238.87.87 0 0 0 .096-.262 3.43 3.43 0 0 0 .032-.306 13.278 13.278 0 0 0-.2-.553 8.61 8.61 0 0 1-.178-.523c-.245-.706-.368-1.078-.37-1.116a.321.321 0 0 1 .152-.334.222.222 0 0 1 .155-.042c.05.007.089.017.114.03a.08.08 0 0 1 .048.046c.035.052.214.54.539 1.464.324.923.498 1.433.52 1.528.107.409.086.803-.062 1.183s-.36.664-.635.851c-.182.12-.37.18-.565.181a.53.53 0 0 1-.468-.264.631.631 0 0 1-.105-.251.347.347 0 0 1 .027-.209.991.991 0 0 1 .082-.14.346.346 0 0 1 .09-.085c.178-.117.322-.09.433.079.053.08.076.167.067.26a.487.487 0 0 1-.118.293l-.014.018c.02.015.075.014.162-.003a.642.642 0 0 0 .233-.093l.049-.031a.92.92 0 0 0 .149-.116.968.968 0 0 0 .218-.472 1.6 1.6 0 0 0 .013-.546 4.951 4.951 0 0 0-.083-.43.894.894 0 0 0-.071-.213l-.02.048a1.871 1.871 0 0 1-.181.318 1.24 1.24 0 0 1-.216.186 1.078 1.078 0 0 1-.577.189c-.2.004-.386-.078-.56-.247a2.075 2.075 0 0 1-.13-.183c-.15-.23-.278-.576-.38-1.04-.103-.463-.188-.746-.254-.846l-.008-.012-.048-.073c-.008-.012-.025-.02-.052-.026a.107.107 0 0 0-.082.02l-.024.015a.422.422 0 0 0-.178.282 1.14 1.14 0 0 0-.019.367c.014.118.035.225.064.321a.704.704 0 0 1 .04.165c-.003.014-.033.039-.09.076l-.084.056c-.04-.009-.064-.019-.072-.031Zm3.858-2.291-.041.058a1.48 1.48 0 0 1-.143.155 2.383 2.383 0 0 1-.229.193l-.08.053-.13-.197.081-.053a1.662 1.662 0 0 0 .502-.568c.025-.062.044-.12.058-.173 0-.012.014-.028.042-.047a.142.142 0 0 1 .09-.022l.84 1.278.848 1.28a.202.202 0 0 0 .076.004.6.6 0 0 0 .114-.05 3.25 3.25 0 0 0 .27-.166l.112-.073.129.196-.047.031a10.8 10.8 0 0 0-.688.434c-.387.255-.608.407-.662.454l-.052.034-.129-.197.111-.072.163-.107c.045-.03.08-.055.104-.075a.49.49 0 0 0 .06-.058.315.315 0 0 1 .028-.03.112.112 0 0 0 .012-.039c.005-.023.01-.035.014-.034l-1.453-2.21Zm-.057-4.208.02-.022.06-.04.073-.048.264.034a3.57 3.57 0 0 1 1.671.737c.51.398.946.873 1.31 1.425.18.274.333.55.46.831.126.28.222.526.286.738.064.212.106.438.126.68.02.24.032.425.037.555.004.13-.01.287-.045.472l-.063.326a2.245 2.245 0 0 1-.063.206l-.008.04-.073.048-.066.044c-.012.008-.026.008-.043.002a.17.17 0 0 1-.053-.043 3.69 3.69 0 0 0 .014-.122c.198-1.06-.119-2.222-.95-3.487-.833-1.266-1.775-2.017-2.826-2.255a3.5 3.5 0 0 0-.118-.035c-.021-.032-.026-.061-.014-.087Zm13.086-5.432a5.937 5.937 0 0 1-.46-.832 6.626 6.626 0 0 1-.286-.738 3.034 3.034 0 0 1-.126-.678 30.528 30.528 0 0 1-.036-.556 1.921 1.921 0 0 1 .047-.481 7 7 0 0 0 .065-.337c.004-.037.026-.113.067-.226l.079-.052.024-.016c.056-.037.097-.037.12 0 .008.011.002.076-.019.194-.02.117-.033.278-.037.483a5.01 5.01 0 0 0 .045.714c.035.272.133.605.295 1 .162.396.383.807.664 1.234.28.427.569.791.865 1.092.296.302.563.527.8.677.237.15.45.258.638.325.188.066.343.117.464.153.122.035.184.055.187.06.023.035.005.073-.055.113l-.018.012-.08.052-.264-.034a3.568 3.568 0 0 1-1.67-.736 5.908 5.908 0 0 1-1.309-1.424Zm1.943-1.616c-.084-.187-.103-.454-.06-.8.044-.346.204-.613.48-.8a.862.862 0 0 1 .458-.145.834.834 0 0 1 .438.1c.003-.364.123-.625.36-.781a.71.71 0 0 1 .475-.122.542.542 0 0 1 .403.245c.077.117.111.23.103.34a.43.43 0 0 1-.076.24.574.574 0 0 1-.123.116.32.32 0 0 1-.231.056.27.27 0 0 1-.188-.127c-.122-.185-.105-.378.052-.58-.079-.023-.177.004-.294.081a.476.476 0 0 0-.107.088c-.11.165-.136.372-.076.62.344 1.05.564 1.649.662 1.798.075.113.16.172.256.178a.414.414 0 0 0 .26-.067c.148-.098.252-.26.31-.49a1.205 1.205 0 0 0-.026-.683c-.015-.048-.017-.079-.008-.09a.688.688 0 0 1 .09-.076l.023-.016c.06-.04.102-.044.123-.011a.998.998 0 0 1 .031.074c.087.272.096.557.027.857a1.082 1.082 0 0 1-.472.69c-.282.186-.58.2-.891.041-.001.359-.108.608-.322.749l-.036.023c-.198.13-.373.17-.527.122a.662.662 0 0 1-.351-.245.524.524 0 0 1-.092-.39.435.435 0 0 1 .193-.3c.173-.113.315-.086.426.083.053.08.075.167.067.26a.486.486 0 0 1-.118.294l-.014.017c.002.005.02.005.052 0 .032-.003.073-.01.124-.02a.281.281 0 0 0 .127-.058c.145-.095.21-.268.196-.518-.006-.088-.05-.256-.131-.502a45.01 45.01 0 0 0-.425-1.226 1.766 1.766 0 0 0-.125-.256c-.074-.113-.157-.173-.25-.182a.384.384 0 0 0-.253.063.793.793 0 0 0-.326.491c-.056.222-.047.452.03.69.015.042.018.069.009.08a.684.684 0 0 1-.089.076l-.085.056c-.04-.008-.066-.023-.08-.043Zm4.148-1.554a.28.28 0 0 1-.235.044.326.326 0 0 1-.192-.143.851.851 0 0 1-.119-.674.926.926 0 0 1 .418-.593c.26-.17.529-.233.807-.188a.976.976 0 0 1 .672.445c.08.122.13.258.145.406.016.149.012.29-.014.426-.025.135-.07.315-.134.54-.044.156-.1.38-.169.675l-.095.404.328-.209c.447-.294.68-.458.7-.49.016-.02-.033-.169-.148-.448l-.008-.013.17-.112.009.012c.003.01.07.153.2.426s.195.418.194.435l.009.013-1.586 1.042-.053-.081-.034-.051a.13.13 0 0 1-.016-.081c.002-.034.012-.112.03-.234l.056-.38c.007-.045.02-.13.041-.253a20.735 20.735 0 0 0 .073-.476 2.94 2.94 0 0 0 .024-.224 5.34 5.34 0 0 1 .014-.193.872.872 0 0 0 0-.196 2.123 2.123 0 0 1-.017-.166.659.659 0 0 0-.035-.173 4.74 4.74 0 0 0-.054-.148.817.817 0 0 0-.08-.149.91.91 0 0 0-.451-.37.58.58 0 0 0-.544.076.514.514 0 0 0-.2.236.615.615 0 0 0-.057.24.42.42 0 0 0 .01.108c.003.003.01 0 .025-.01a.321.321 0 0 1 .197-.044c.08.005.15.052.21.143a.301.301 0 0 1 .05.225.317.317 0 0 1-.142.203Zm2.915-.892-.1-.152a.452.452 0 0 1-.073-.323.396.396 0 0 1 .188-.28.473.473 0 0 1 .402-.047c.155.042.318.189.488.44.093.14.165.29.216.446.051.157.084.3.1.428.015.129.017.246.005.351a2.742 2.742 0 0 1-.038.259c-.013.067-.027.102-.042.106-.016.01-.054.01-.115-.003-.06-.012-.095-.027-.106-.043-.01-.016-.01-.063.003-.14.013-.078.023-.171.032-.28a1.388 1.388 0 0 0-.041-.406 2.1 2.1 0 0 0-.194-.505l-.047-.072-.002.01a.277.277 0 0 1-.023.032.182.182 0 0 0-.024.042.119.119 0 0 1-.046.048.525.525 0 0 0-.069.053.43.43 0 0 1-.333.073l-.18-.037Zm1.342-3.064c-.037-.056-.07-.173-.1-.35a2.008 2.008 0 0 1 .008-.62c.035-.236.137-.406.304-.51a.677.677 0 0 1 .49-.124c.162.026.3.12.412.283a.966.966 0 0 1 .065.139c.008.012.037.126.086.341.05.216.112.455.186.718.075.262.157.456.245.583.114.173.222.275.323.306.102.032.21.012.326-.058a.636.636 0 0 0 .216-.237.871.871 0 0 0 .096-.262 3.5 3.5 0 0 0 .032-.307 13.501 13.501 0 0 0-.199-.553 8.57 8.57 0 0 1-.18-.522c-.243-.705-.367-1.077-.369-1.116a.321.321 0 0 1 .153-.334.223.223 0 0 1 .154-.04c.051.006.09.016.114.028.026.012.042.027.048.046.035.053.214.54.538 1.464.325.923.498 1.432.52 1.527.107.409.086.803-.062 1.183s-.36.664-.635.85c-.182.12-.37.18-.565.182a.53.53 0 0 1-.468-.264.63.63 0 0 1-.105-.251.346.346 0 0 1 .028-.209c.03-.06.057-.106.08-.14a.35.35 0 0 1 .092-.085c.177-.117.321-.09.432.079.054.08.076.167.067.259a.488.488 0 0 1-.118.294l-.014.018c.02.015.075.014.162-.003a.641.641 0 0 0 .233-.093l.049-.032a.93.93 0 0 0 .149-.115.968.968 0 0 0 .218-.472 1.6 1.6 0 0 0 .013-.546 4.915 4.915 0 0 0-.083-.43.891.891 0 0 0-.07-.212l-.021.047a1.871 1.871 0 0 1-.18.318c-.068.074-.14.135-.217.186a1.079 1.079 0 0 1-.577.189c-.2.004-.386-.078-.56-.246a2.09 2.09 0 0 1-.13-.184c-.15-.23-.277-.576-.38-1.039-.102-.463-.187-.745-.253-.846l-.008-.012-.047-.072c-.008-.012-.026-.021-.052-.027a.108.108 0 0 0-.083.02l-.024.016a.422.422 0 0 0-.178.281 1.14 1.14 0 0 0-.019.367c.014.118.036.225.064.322a.709.709 0 0 1 .04.164c-.003.014-.033.039-.09.076l-.084.056c-.04-.009-.064-.019-.072-.03Zm3.831-1.363a.28.28 0 0 1-.234.044.326.326 0 0 1-.192-.143.851.851 0 0 1-.119-.674.926.926 0 0 1 .418-.593c.26-.17.528-.233.807-.188a.976.976 0 0 1 .672.445c.08.122.13.258.145.407.016.148.011.29-.014.425a6.58 6.58 0 0 1-.134.54c-.045.156-.1.381-.169.675l-.095.405.328-.21c.447-.294.68-.457.7-.49.016-.02-.034-.168-.148-.448l-.009-.013.171-.112.009.013c.003.01.07.152.2.425s.195.418.194.435l.009.013-1.586 1.042-.053-.08-.034-.052a.13.13 0 0 1-.016-.081c.002-.034.012-.112.03-.234l.056-.38c.007-.045.02-.13.041-.253l.042-.254.03-.222a2.94 2.94 0 0 0 .025-.224c.002-.046.007-.11.014-.193a.873.873 0 0 0 0-.195 2.073 2.073 0 0 1-.017-.166.658.658 0 0 0-.035-.174 4.638 4.638 0 0 0-.054-.147.807.807 0 0 0-.08-.15.911.911 0 0 0-.451-.37.58.58 0 0 0-.544.076.515.515 0 0 0-.2.236.617.617 0 0 0-.057.24c.001.064.005.1.01.109.002.002.01 0 .025-.01a.32.32 0 0 1 .197-.044c.08.004.15.051.21.143a.301.301 0 0 1 .05.224.316.316 0 0 1-.142.203Zm-.03-5.135.02-.022.061-.04.072-.047.265.033a3.58 3.58 0 0 1 1.67.736c.51.398.946.873 1.31 1.424.18.274.332.551.459.831.127.28.222.527.286.738.064.212.106.438.126.679.02.24.032.426.036.556.005.13-.01.286-.045.47-.034.185-.055.294-.062.327a2.204 2.204 0 0 1-.064.206l-.008.04-.072.048-.067.044c-.012.008-.026.009-.042.002a.17.17 0 0 1-.054-.043l.015-.122c.198-1.06-.119-2.221-.95-3.485-.832-1.265-1.773-2.016-2.824-2.254a3.758 3.758 0 0 0-.118-.035c-.021-.032-.026-.06-.014-.086ZM23.307 31.39c-.059.038-.104.046-.136.022a.635.635 0 0 1-.122-.146.8.8 0 0 0-.055-.097.586.586 0 0 1-.052-.092 5.113 5.113 0 0 0-.315-.555c-.244-.37-.496-.618-.756-.743-.264-.128-.53-.104-.799.073a1.18 1.18 0 0 0-.371.403 1.391 1.391 0 0 0-.176.51c-.018.168.003.297.061.386.094.1.22.216.379.346.017.017.072.068.166.151.098.08.174.162.227.244l.08.107c.04.063.03.115-.033.156-.078.05-.175.042-.293-.026a3.921 3.921 0 0 1-.47-.37 6.16 6.16 0 0 0-.511-.409 1.292 1.292 0 0 0-.453-.204.566.566 0 0 0-.453.088c-.199.131-.31.302-.333.513a.933.933 0 0 0 .167.61c.087.133.214.3.38.504.128.15.23.285.307.401.046.07.073.128.08.174.008.045-.018.087-.076.125-.078.052-.15.062-.214.032a.608.608 0 0 1-.208-.215 12.491 12.491 0 0 0-.547-.755c-.03-.036-.102-.13-.22-.282a4.948 4.948 0 0 1-.328-.488l-.121-.197a.134.134 0 0 1 .059-.089c.042-.028.096-.024.159.013.064.03.131.098.2.203a1.08 1.08 0 0 1 .077-.444.716.716 0 0 1 .276-.357c.214-.141.421-.213.62-.216.201-.009.424.046.67.164a1.7 1.7 0 0 1 .156-.832c.13-.287.312-.507.546-.661a.916.916 0 0 1 .783-.121c.284.075.548.217.791.426.248.206.443.418.587.637.128.195.233.393.316.596.087.2.072.338-.045.415Zm22.599-17.397a.827.827 0 0 1-.078.085c-.031.02-.074.027-.13.019-.254-.107-.567-.378-.938-.816a13.16 13.16 0 0 1-.89-1.174c-.036-.055-.015-.108.063-.159.117-.077.218-.05.303.078.023.035.04.065.051.091a.884.884 0 0 1 .034-.382c.04-.15.107-.296.197-.44.09-.143.201-.258.334-.345.417-.274.843-.289 1.278-.044.432.24.827.634 1.186 1.18.123.187.203.35.238.489.033.135.016.224-.05.267-.07.046-.12.048-.148.005a5.57 5.57 0 0 0-.359-.635c-.33-.503-.668-.825-1.013-.967-.347-.146-.665-.124-.954.066a1.034 1.034 0 0 0-.464.874.945.945 0 0 0 .164.504c.118.18.23.329.337.449.107.12.243.259.41.418.167.152.31.298.43.437Z"/>
</svg>
