<svg xmlns="http://www.w3.org/2000/svg" width="162" height="60" fill="none" viewBox="0 0 162 60">
  <path stroke="gold" stroke-linecap="round" d="m3.578 47.977 70.186-46.15"/>
  <path fill="#fff" d="M30.202 26.888c-.058.038-.104.046-.136.022a.641.641 0 0 1-.121-.146.8.8 0 0 0-.056-.098.578.578 0 0 1-.052-.091 5.124 5.124 0 0 0-.315-.555c-.243-.37-.495-.618-.756-.743-.263-.129-.53-.104-.798.073a1.18 1.18 0 0 0-.372.403 1.39 1.39 0 0 0-.176.51c-.018.168.003.296.062.386.094.1.22.216.378.346.017.017.072.067.166.15.098.082.174.163.228.245l.079.107c.04.063.03.114-.032.155-.078.052-.176.043-.293-.025a3.922 3.922 0 0 1-.47-.37 6.18 6.18 0 0 0-.512-.409 1.292 1.292 0 0 0-.453-.204.566.566 0 0 0-.453.088c-.198.13-.31.301-.333.512a.933.933 0 0 0 .167.61c.087.134.214.301.381.504.127.151.23.285.306.402a.49.49 0 0 1 .08.173c.008.046-.017.088-.076.126-.078.051-.149.062-.213.032a.608.608 0 0 1-.209-.215 12.378 12.378 0 0 0-.546-.755c-.03-.036-.103-.13-.22-.283a4.947 4.947 0 0 1-.329-.487l-.12-.197a.134.134 0 0 1 .058-.09c.043-.027.096-.023.159.014.065.03.131.098.2.203a1.08 1.08 0 0 1 .077-.444.717.717 0 0 1 .276-.358c.215-.14.422-.213.621-.215.2-.01.424.045.669.163-.022-.27.03-.548.156-.832.13-.286.312-.506.546-.66a.917.917 0 0 1 .784-.121c.284.075.548.217.79.426.248.206.444.418.587.637a3.5 3.5 0 0 1 .317.596c.086.2.071.338-.046.415Zm7.103-6.874a.317.317 0 0 1-.212.047c-.07-.015-.122-.045-.152-.092a.242.242 0 0 1-.038-.16.172.172 0 0 1 .078-.135.242.242 0 0 1 .189-.032.24.24 0 0 1 .16.104.307.307 0 0 1 .04.2.116.116 0 0 1-.065.068Zm.723 1.175a.251.251 0 0 1-.18.044.227.227 0 0 1-.146-.106.227.227 0 0 1-.04-.175.252.252 0 0 1 .112-.149c.066-.043.129-.06.187-.047a.227.227 0 0 1 .145.106c.084.128.058.238-.078.327Zm8.605-5.08a.835.835 0 0 1-.078.085c-.03.02-.074.026-.13.018-.254-.106-.567-.378-.938-.815-.368-.44-.664-.832-.89-1.175-.036-.054-.015-.107.063-.159.117-.076.218-.05.303.078.023.035.04.066.052.092a.883.883 0 0 1 .033-.383 1.63 1.63 0 0 1 .197-.439c.09-.143.202-.258.334-.345.417-.275.843-.29 1.278-.045.432.241.828.635 1.187 1.18.123.188.202.35.237.49.033.134.016.223-.05.267-.07.046-.12.048-.148.005a5.547 5.547 0 0 0-.359-.635c-.33-.503-.668-.826-1.013-.968-.347-.146-.665-.124-.953.066a1.034 1.034 0 0 0-.464.874.945.945 0 0 0 .164.504c.117.18.23.33.336.45.107.119.243.258.41.417.167.153.31.299.43.438ZM17.382 47.286c-.047.03-.088.04-.122.03a.215.215 0 0 1-.09-.084 2.505 2.505 0 0 1-.202-.436 1.991 1.991 0 0 0-.201-.446c-.2-.304-.376-.52-.528-.65l-.181.12c-.16.105-.371.238-.634.4l-.553.355-.79.519.162.22c.117.18.294.385.53.615.09.097.181.196.271.3.092.096.167.188.226.278l.034.053a.207.207 0 0 1-.084.14c-.101.066-.26 0-.474-.2a4.493 4.493 0 0 1-.661-.814 5.532 5.532 0 0 1-.248-.415c-.088.053-.156.077-.202.075-.05-.007-.092-.038-.128-.093-.028-.042-.036-.08-.022-.11a.48.48 0 0 1 .117-.128l-.11-.154-.16-.28a10.124 10.124 0 0 1-.584-1.157 1.798 1.798 0 0 1-.122-.95c.046-.321.248-.6.607-.835.41-.27.874-.26 1.394.03.52.29.999.678 1.437 1.166.438.488.785.927 1.042 1.317.092.14.169.266.23.376.06.107.127.244.204.411-.016.172-.068.288-.158.347Zm-1.316-1.799c-.549-.672-1.053-1.15-1.513-1.434-.463-.288-.886-.306-1.268-.055-.284.187-.408.458-.37.813.04.349.144.682.314 1 .17.318.378.664.624 1.039l2.213-1.363Zm26.681-15.223a9.393 9.393 0 0 1-.758-.783 24.928 24.928 0 0 1-1.09-1.429.214.214 0 0 1-.034-.153.194.194 0 0 1 .083-.13l.052-.034c.104.116.254.313.449.593.02.031.093.134.22.308.122.17.25.323.385.459.424-.34.727-.665.909-.975.185-.312.197-.59.036-.837-.203-.308-.504-.47-.906-.485-.4-.015-.876.158-1.426.52-.23.15-.397.322-.5.512-.02.03-.023.068-.009.115.012.043.035.1.071.171a.984.984 0 0 1 .075.177c.011.043.001.075-.03.095-.035.023-.075.013-.12-.03a4.14 4.14 0 0 1-.254-.36c-.072-.11-.054-.244.053-.404.107-.16.277-.317.511-.47.683-.449 1.26-.675 1.733-.678.472-.004.854.216 1.147.661.156.238.191.5.105.785-.085.286-.24.557-.461.814a3.577 3.577 0 0 1-.71.627c.038.042.074.08.107.113.034.034.061.063.083.088.23.23.391.416.486.56.056.086.09.162.1.228.013.064-.02.11-.1.141l-.207-.199Zm25.916-16.698c-.744.49-1.348.828-1.812 1.015-1.39-1.884-2.262-3.003-2.617-3.356l-.148.157c-.081.08-.157.161-.227.241a2.222 2.222 0 0 0-.217.269l-.137-.196c-.044-.066-.011-.174.097-.323.106-.153.25-.313.432-.477.184-.17.356-.309.516-.414.175-.115.396-.216.663-.303a2.03 2.03 0 0 1 .776-.107c.243.013.42.103.53.27.126.192.163.41.112.656-.049.24-.17.467-.363.683.382-.167.77-.272 1.167-.315a2.53 2.53 0 0 1 1.079.087c.323.1.568.277.734.53.192.293.22.58.08.86a1.84 1.84 0 0 1-.665.723Zm-.37-.234c.288-.19.49-.367.604-.532.113-.168.099-.36-.043-.575a.98.98 0 0 0-.577-.432 1.66 1.66 0 0 0-.713-.051 7.686 7.686 0 0 0-.857.161 4.589 4.589 0 0 1-.606.122c-.14.009-.233-.022-.28-.093-.033-.05-.033-.106 0-.167.033-.06.097-.158.192-.293.137-.174.233-.326.286-.457a.402.402 0 0 0-.04-.392c-.12-.183-.324-.25-.61-.202a2.136 2.136 0 0 0-.849.34c-.078.051-.166.12-.265.208.532.588.965 1.094 1.299 1.517.331.419.698.917 1.1 1.496.091.019.257-.031.497-.15.24-.12.527-.286.861-.5Zm-4.361-3.479c-.03.02-.059.023-.085.008a.318.318 0 0 1-.075-.088c-.1-.15-.15-.354-.156-.61-.004-.26.013-.567.049-.918.012-.091.018-.163.02-.216l-.291-.132a6.598 6.598 0 0 1-.538-.263.846.846 0 0 1-.282-.257c-.024-.036-.035-.065-.033-.086.005-.023.024-.046.057-.068.028-.018.101 0 .22.053a10.797 10.797 0 0 1 .705.344.902.902 0 0 0 .184.07c.053-.205.1-.368.145-.49.044-.12.117-.294.22-.52a3.44 3.44 0 0 1 .124-.238.468.468 0 0 1 .147-.169c.061-.04.117-.034.166.017-.11.24-.211.506-.305.8a3.637 3.637 0 0 0-.172.776c.073.056.174.11.303.16s.29.108.484.172c.191.066.33.118.42.156.086.034.141.07.165.106.02.03.01.06-.032.087a.428.428 0 0 1-.092.043 1.659 1.659 0 0 1-.367-.076 8.347 8.347 0 0 1-.462-.175c-.266-.1-.435-.16-.508-.18a7.624 7.624 0 0 0-.047.838l-.004.194c0 .06.011.162.034.307.017.104.027.183.03.237.004.054-.004.093-.024.118ZM12.127 43.916c-.03.02-.058.023-.084.008a.316.316 0 0 1-.076-.088c-.099-.15-.15-.353-.155-.61-.004-.26.012-.566.048-.917.012-.092.019-.164.02-.216l-.29-.133a6.606 6.606 0 0 1-.538-.263.846.846 0 0 1-.283-.256c-.024-.037-.035-.065-.033-.087.005-.023.024-.045.057-.067.028-.018.102-.001.22.053a10.89 10.89 0 0 1 .706.344.897.897 0 0 0 .184.07c.052-.206.1-.369.144-.49a8.53 8.53 0 0 1 .22-.521c.042-.088.084-.167.125-.238a.469.469 0 0 1 .147-.168c.06-.04.116-.035.166.016-.11.24-.212.506-.306.8a3.636 3.636 0 0 0-.171.777c.072.056.173.109.302.16.13.05.29.108.484.172.191.066.331.118.42.155.086.035.142.07.165.107.02.03.01.06-.032.087a.42.42 0 0 1-.092.042 1.652 1.652 0 0 1-.367-.076 8.276 8.276 0 0 1-.462-.175c-.266-.1-.435-.16-.508-.18a7.625 7.625 0 0 0-.047.838l-.004.194c0 .06.011.163.034.307.017.105.027.184.03.237.004.054-.004.093-.024.118ZM39.7 25.786c-.03.02-.058.023-.084.008a.316.316 0 0 1-.076-.088c-.099-.15-.15-.354-.155-.61-.004-.26.012-.567.049-.918.011-.091.018-.163.019-.216l-.29-.132a6.611 6.611 0 0 1-.538-.263.848.848 0 0 1-.283-.257c-.024-.036-.035-.065-.033-.086.005-.023.024-.046.058-.068.028-.018.1 0 .22.053a10.812 10.812 0 0 1 .705.344.912.912 0 0 0 .184.07c.052-.205.1-.368.145-.49.044-.12.117-.294.22-.52a3.51 3.51 0 0 1 .124-.238.467.467 0 0 1 .147-.169c.061-.04.116-.034.166.017-.11.24-.212.506-.306.8a3.63 3.63 0 0 0-.171.776c.072.056.173.11.302.16.13.051.29.108.485.173.19.066.33.117.419.155.087.035.142.07.166.106.02.03.009.06-.033.087a.43.43 0 0 1-.092.043 1.657 1.657 0 0 1-.367-.076 8.285 8.285 0 0 1-.462-.175c-.265-.1-.435-.16-.508-.18a7.575 7.575 0 0 0-.046.838l-.004.194c0 .06.01.163.034.307.017.104.027.183.03.237.003.054-.005.093-.024.118ZM97.514 12.72a9.433 9.433 0 0 1-.203-1.071 24.708 24.708 0 0 1-.126-1.792c0-.056.019-.105.056-.147a.194.194 0 0 1 .14-.063h.063c.024.154.04.401.05.742 0 .037.004.163.013.378.01.21.033.408.07.595.542-.051.973-.156 1.295-.315.327-.159.49-.385.49-.679 0-.369-.163-.67-.49-.903-.326-.233-.819-.35-1.477-.35-.275 0-.508.051-.7.154-.032.014-.056.044-.07.091a.971.971 0 0 0-.035.182.981.981 0 0 1-.035.189c-.014.042-.04.063-.077.063-.042 0-.07-.03-.084-.091a4.141 4.141 0 0 1-.014-.441c0-.13.089-.233.266-.308.178-.075.406-.112.686-.112.817 0 1.424.128 1.82.385.397.257.595.651.595 1.183a.894.894 0 0 1-.343.714 2.236 2.236 0 0 1-.833.427c-.326.089-.64.133-.938.133l.028.154c.01.047.017.086.021.119.066.317.098.562.098.735a.593.593 0 0 1-.042.245c-.023.06-.077.082-.16.063l-.064-.28Zm5.583.273a.824.824 0 0 1-.574-.224 1.435 1.435 0 0 1-.364-.581 2.34 2.34 0 0 1-.119-.742c0-.448.093-.826.28-1.134.191-.308.481-.462.868-.462.233 0 .436.042.609.126.177.08.408.215.693.406l.182.126a6.728 6.728 0 0 0-.105-.532 10.6 10.6 0 0 1-.091-.413c-.079-.364-.138-.635-.175-.812a2.74 2.74 0 0 1-.049-.483c0-.247.07-.371.21-.371.051.112.112.352.182.721.07.364.159.863.266 1.498.112.672.21 1.22.294 1.645.084.425.154.69.21.798 0 .107-.079.161-.238.161-.121 0-.205-.07-.252-.21-.042-.14-.068-.385-.077-.735h-.056a2.66 2.66 0 0 1-.763.875c-.313.229-.623.343-.931.343Zm.091-.343c.191 0 .397-.08.616-.238a2.34 2.34 0 0 0 .567-.588c.154-.233.231-.443.231-.63v-.21c-.481-.504-.924-.756-1.33-.756-.285 0-.504.105-.658.315-.154.205-.231.476-.231.812l.007.147c.028.355.107.635.238.84a.626.626 0 0 0 .56.308Zm3.112.357c-.108 0-.194-.156-.259-.469a6.695 6.695 0 0 1-.126-.819c-.019-.229-.045-.59-.077-1.085a5.155 5.155 0 0 1-.007-.308c0-.159.011-.268.035-.329.028-.06.072-.091.133-.091.051 0 .091.012.119.035.032.019.06.051.084.098l-.007.28c0 .299.014.581.042.847.032.266.081.623.147 1.071.037.196.063.357.077.483a.335.335 0 0 1-.035.196c-.033.06-.075.091-.126.091Zm-.175-3.85a.256.256 0 0 1-.231-.119.568.568 0 0 1-.07-.294c0-.051.002-.089.007-.112-.005-.075.037-.112.126-.112.065 0 .13.016.196.049.07.028.091.049.063.063a.88.88 0 0 1 .07.287.24.24 0 0 1-.042.147.424.424 0 0 1-.119.091Zm2.168 3.85c-.136 0-.313-.2-.532-.602a30.4 30.4 0 0 1-.749-1.54l-.203-.434c0-.047.028-.091.084-.133.056-.047.14-.068.252-.063.028.051.116.24.266.567.177.383.326.698.448.945.126.243.277.504.455.784.079-.29.168-.56.266-.812.102-.257.254-.618.455-1.085l.105-.245c.028-.056.081-.084.161-.084.056 0 .105.014.147.042a.135.135 0 0 1 .063.119c0 .047-.024.096-.07.147-.033.033-.08.128-.14.287a11.33 11.33 0 0 0-.189.518c-.178.504-.332.898-.462 1.183-.131.28-.25.415-.357.406Zm1.965 0c-.108 0-.194-.156-.259-.469a6.695 6.695 0 0 1-.126-.819c-.019-.229-.045-.59-.077-1.085a5.155 5.155 0 0 1-.007-.308c0-.159.011-.268.035-.329.028-.06.072-.091.133-.091.051 0 .091.012.119.035.032.019.06.051.084.098l-.007.28c0 .299.014.581.042.847.032.266.081.623.147 1.071.037.196.063.357.077.483a.335.335 0 0 1-.035.196c-.033.06-.075.091-.126.091Zm-.175-3.85a.256.256 0 0 1-.231-.119.568.568 0 0 1-.07-.294c0-.051.002-.089.007-.112-.005-.075.037-.112.126-.112.065 0 .13.016.196.049.07.028.091.049.063.063a.88.88 0 0 1 .07.287.24.24 0 0 1-.042.147.424.424 0 0 1-.119.091Zm2.161 3.836a.822.822 0 0 1-.574-.224 1.435 1.435 0 0 1-.364-.581 2.312 2.312 0 0 1-.119-.742c0-.448.093-.826.28-1.134.191-.308.48-.462.868-.462.233 0 .436.042.609.126.177.08.408.215.693.406l.182.126a7.78 7.78 0 0 0-.105-.532 82.413 82.413 0 0 1-.266-1.225 2.74 2.74 0 0 1-.049-.483c0-.247.07-.371.21-.371.051.112.112.352.182.721.07.364.158.863.266 1.498.112.672.21 1.22.294 1.645.084.425.154.69.21.798 0 .107-.08.161-.238.161-.122 0-.206-.07-.252-.21-.042-.14-.068-.385-.077-.735h-.056a2.67 2.67 0 0 1-.763.875c-.313.229-.623.343-.931.343Zm.091-.343c.191 0 .396-.08.616-.238a2.34 2.34 0 0 0 .567-.588c.154-.233.231-.443.231-.63v-.21c-.481-.504-.924-.756-1.33-.756-.285 0-.504.105-.658.315-.154.205-.231.476-.231.812l.007.147c.028.355.107.635.238.84.13.205.317.308.56.308Zm4.294.35a1.94 1.94 0 0 1-.826-.175 1.472 1.472 0 0 1-.602-.497 1.27 1.27 0 0 1-.224-.742c0-.313.059-.604.175-.875.117-.275.287-.495.511-.658.229-.168.495-.252.798-.252.318 0 .558.103.721.308.164.2.241.455.231.763a.707.707 0 0 1-.329.63c-.214.145-.49.217-.826.217a2.97 2.97 0 0 1-.231-.014 1.254 1.254 0 0 1-.357-.077c-.07-.033-.105-.098-.105-.196 0-.033.01-.056.028-.07.019-.019.056-.028.112-.028.061 0 .168.014.322.042.15.028.283.042.399.042.43 0 .644-.187.644-.56 0-.224-.042-.401-.126-.532-.079-.13-.221-.196-.427-.196-.224 0-.424.06-.602.182-.177.117-.315.27-.413.462-.093.191-.14.394-.14.609 0 .369.103.672.308.91.206.233.523.35.952.35.052 0 .138-.005.259-.014a.927.927 0 0 0 .189-.042l.161-.049c.201-.07.348-.105.441-.105.07 0 .124.019.161.056a1.01 1.01 0 0 1-.525.392 2.06 2.06 0 0 1-.679.119Zm1.521-.826a.308.308 0 0 1 .189-.077c.056 0 .11.016.161.049a.99.99 0 0 1 .168.126c.056.047.1.082.133.105.107.084.254.15.441.196.187.047.385.07.595.07.238 0 .45-.044.637-.133.191-.093.287-.217.287-.371 0-.14-.051-.25-.154-.329a.952.952 0 0 0-.371-.182 5.27 5.27 0 0 0-.574-.105 4.818 4.818 0 0 1-.77-.14.946.946 0 0 1-.448-.273c-.112-.13-.168-.313-.168-.546 0-.252.119-.439.357-.56.238-.126.511-.189.819-.189.28 0 .518.06.714.182a.568.568 0 0 1 .308.504.493.493 0 0 1-.056.301c-.047.07-.103.105-.168.105a.135.135 0 0 1-.098-.042.171.171 0 0 1-.035-.112.5.5 0 0 1 .077-.245c-.023-.112-.1-.196-.231-.252a1.117 1.117 0 0 0-.455-.084c-.261 0-.469.049-.623.147-.154.093-.231.205-.231.336 0 .14.056.247.168.322.112.075.247.128.406.161.163.028.394.056.693.084.247.033.448.072.602.119a.78.78 0 0 1 .399.273c.107.13.161.32.161.567 0 .257-.119.46-.357.609a1.614 1.614 0 0 1-.854.217c-.425 0-.805-.072-1.141-.217-.331-.145-.525-.35-.581-.616Zm8.566.833c-.056 0-.095-.014-.119-.042a.22.22 0 0 1-.028-.119c0-.103.024-.261.07-.476.052-.196.077-.357.077-.483 0-.364-.028-.642-.084-.833h-.217c-.191 0-.441-.005-.749-.014l-.658-.007h-.945l.014.273c0 .215.035.483.105.805.024.13.045.264.063.399.024.13.035.25.035.357v.063a.205.205 0 0 1-.147.07c-.121 0-.217-.142-.287-.427a4.491 4.491 0 0 1-.105-1.043c0-.163.007-.324.021-.483-.102-.005-.172-.021-.21-.049-.037-.033-.056-.082-.056-.147 0-.051.014-.086.042-.105a.48.48 0 0 1 .168-.042l-.007-.189.021-.322c.033-.527.082-.957.147-1.288.066-.331.206-.618.42-.861.215-.243.537-.364.966-.364.49 0 .873.264 1.148.791.276.527.462 1.115.56 1.764.098.649.147 1.206.147 1.673 0 .168-.004.315-.014.441a6.06 6.06 0 0 1-.056.455c-.107.135-.214.203-.322.203Zm-.112-2.226c-.088-.863-.247-1.54-.476-2.03-.228-.495-.571-.742-1.029-.742-.34 0-.592.159-.756.476a2.778 2.778 0 0 0-.287 1.008c-.032.36-.049.763-.049 1.211l2.597.077Zm3.999 2.226c-.891 0-1.582-.049-2.072-.147-.126-2.338-.24-3.752-.343-4.242l-.21.049a5.506 5.506 0 0 0-.322.077 2.21 2.21 0 0 0-.329.105l-.007-.238c0-.08.086-.152.259-.217.173-.07.38-.124.623-.161.247-.042.467-.063.658-.063.21 0 .45.037.721.112.275.075.511.187.707.336.196.145.294.317.294.518a.84.84 0 0 1-.266.609 1.477 1.477 0 0 1-.679.371c.411.07.793.196 1.148.378.355.177.639.399.854.665.215.261.322.544.322.847 0 .35-.135.604-.406.763a1.849 1.849 0 0 1-.952.238Zm-.182-.399c.345 0 .611-.037.798-.112.187-.08.28-.247.28-.504a.98.98 0 0 0-.245-.679 1.667 1.667 0 0 0-.567-.434 7.74 7.74 0 0 0-.805-.336 4.58 4.58 0 0 1-.574-.231c-.121-.07-.182-.147-.182-.231 0-.06.03-.107.091-.14.061-.033.168-.08.322-.14.21-.07.373-.145.49-.224a.403.403 0 0 0 .182-.35c0-.22-.133-.387-.399-.504a2.136 2.136 0 0 0-.896-.182c-.093 0-.205.01-.336.028.121.784.205 1.444.252 1.981.047.532.079 1.15.098 1.855.065.065.231.114.497.147.266.033.597.051.994.056Zm4.248.399c-.107 0-.194-.156-.259-.469a7.108 7.108 0 0 1-.126-.819 78.33 78.33 0 0 1-.077-1.085 5.155 5.155 0 0 1-.007-.308c0-.159.012-.268.035-.329.028-.06.072-.091.133-.091.051 0 .091.012.119.035a.218.218 0 0 1 .084.098l-.007.28c0 .299.014.581.042.847.033.266.082.623.147 1.071.037.196.063.357.077.483a.327.327 0 0 1-.035.196c-.033.06-.075.091-.126.091Zm-.175-3.85a.256.256 0 0 1-.231-.119.568.568 0 0 1-.07-.294c0-.051.002-.089.007-.112-.005-.075.037-.112.126-.112a.43.43 0 0 1 .196.049c.07.028.091.049.063.063.047.121.07.217.07.287a.24.24 0 0 1-.042.147.424.424 0 0 1-.119.091Zm1.629 3.871a.875.875 0 0 1-.112.028c-.038 0-.077-.019-.119-.056-.154-.229-.266-.628-.336-1.197-.066-.57-.098-1.06-.098-1.47 0-.065.046-.098.14-.098.14 0 .21.077.21.231a.744.744 0 0 1-.007.105.88.88 0 0 1 .238-.301 1.61 1.61 0 0 1 .406-.259c.154-.07.31-.105.469-.105.499 0 .863.222 1.092.665.228.439.343.985.343 1.638 0 .224-.024.404-.07.539-.047.13-.11.196-.189.196-.084 0-.126-.026-.126-.077a5.67 5.67 0 0 0 .049-.728c0-.602-.105-1.057-.315-1.365-.21-.313-.488-.469-.833-.469a1.033 1.033 0 0 0-.868.476.938.938 0 0 0-.14.511c0 .215.011.401.035.56.023.159.06.35.112.574.056.22.095.42.119.602Zm3.914-.028a.626.626 0 0 1-.091.014c-.145 0-.245-.107-.301-.322-.051-.215-.077-.516-.077-.903 0-.159.005-.406.014-.742.009-.205.014-.36.014-.462-.574 0-.861-.065-.861-.196a.28.28 0 0 1 .014-.098c.014-.023.042-.035.084-.035l.763-.049a15.56 15.56 0 0 0-.035-.749c-.019-.243-.03-.467-.035-.672 0-.051.021-.086.063-.105a.269.269 0 0 1 .133-.035c.056 0 .103.03.14.091a.314.314 0 0 1 .056.175l.049 1.281.581.028a.322.322 0 0 1 .224.049c.065.042.1.112.105.21a1.015 1.015 0 0 1-.322.077c-.117.01-.313.014-.588.014 0 .434.021 1.148.063 2.142v.217a.66.66 0 0 1 .007.07Zm2.876 0a1.94 1.94 0 0 1-.826-.175 1.472 1.472 0 0 1-.602-.497 1.27 1.27 0 0 1-.224-.742c0-.313.059-.604.175-.875.117-.275.287-.495.511-.658.229-.168.495-.252.798-.252.318 0 .558.103.721.308.164.2.241.455.231.763a.707.707 0 0 1-.329.63c-.214.145-.49.217-.826.217a2.97 2.97 0 0 1-.231-.014 1.254 1.254 0 0 1-.357-.077c-.07-.033-.105-.098-.105-.196 0-.033.01-.056.028-.07.019-.019.056-.028.112-.028.061 0 .168.014.322.042.15.028.283.042.399.042.43 0 .644-.187.644-.56 0-.224-.042-.401-.126-.532-.079-.13-.221-.196-.427-.196-.224 0-.424.06-.602.182-.177.117-.315.27-.413.462-.093.191-.14.394-.14.609 0 .369.103.672.308.91.206.233.523.35.952.35.052 0 .138-.005.259-.014a.927.927 0 0 0 .189-.042l.161-.049c.201-.07.348-.105.441-.105.07 0 .124.019.161.056a1.01 1.01 0 0 1-.525.392 2.06 2.06 0 0 1-.679.119Zm2.102 0a5.513 5.513 0 0 1-.455-1.316 6.437 6.437 0 0 1-.161-1.309c0-.145.033-.238.098-.28.037-.023.065-.035.084-.035.033 0 .056.026.07.077.019.051.037.145.056.28l.035.252c.051-.252.149-.45.294-.595a.742.742 0 0 1 .546-.224c.238 0 .415.047.532.14.117.089.175.238.175.448a1.492 1.492 0 0 0-.637-.168.76.76 0 0 0-.469.147.766.766 0 0 0-.273.434 1.214 1.214 0 0 0-.014.728c.037.107.093.24.168.399.07.163.124.303.161.42.042.117.065.243.07.378 0 .08-.028.138-.084.175a.38.38 0 0 1-.196.049Zm2.216.028a.833.833 0 0 1-.112.028c-.037 0-.077-.019-.119-.056-.154-.229-.266-.628-.336-1.197-.065-.57-.098-1.06-.098-1.47 0-.065.047-.098.14-.098.14 0 .21.077.21.231a.619.619 0 0 1-.007.105.88.88 0 0 1 .238-.301c.117-.103.252-.189.406-.259.154-.07.31-.105.469-.105.499 0 .863.222 1.092.665.229.439.343.985.343 1.638 0 .224-.023.404-.07.539-.047.13-.11.196-.189.196-.084 0-.126-.026-.126-.077a5.5 5.5 0 0 0 .049-.728c0-.602-.105-1.057-.315-1.365-.21-.313-.488-.469-.833-.469a1.036 1.036 0 0 0-.868.476.947.947 0 0 0-.14.511c0 .215.012.401.035.56.023.159.061.35.112.574.056.22.096.42.119.602Zm4.586-.028c-.485 0-.907-.084-1.267-.252-.354-.173-.532-.474-.532-.903a.82.82 0 0 1 .14-.448.998.998 0 0 1 .413-.35 1.45 1.45 0 0 1 .665-.14c.201 0 .371.01.511.028.14.019.301.07.483.154.182.084.371.217.567.399a2.786 2.786 0 0 0-.336-.847 1.847 1.847 0 0 0-.504-.56c-.182-.135-.361-.203-.539-.203a.588.588 0 0 0-.238.049c-.07.028-.156.07-.259.126-.116.075-.203.112-.259.112a.104.104 0 0 1-.063-.021.103.103 0 0 1-.021-.063c0-.187.082-.331.245-.434.168-.103.371-.15.609-.14.327.019.626.159.896.42.271.257.483.576.637.959.159.383.238.758.238 1.127 0 .06-.004.147-.014.259l-.224-.014c-.177-.36-.406-.614-.686-.763a1.69 1.69 0 0 0-.833-.231c-.359 0-.616.054-.77.161a.536.536 0 0 0-.231.469c0 .215.108.387.322.518.215.13.49.196.826.196.187 0 .336-.01.448-.028.112-.023.229-.054.35-.091.098-.033.185-.056.259-.07.075-.014.171-.021.287-.021.131 0 .213.01.245.028.038.019.056.06.056.126 0 .047-.095.105-.287.175-.191.07-.406.133-.644.189a2.598 2.598 0 0 1-.49.084Zm2.367-.049a15.513 15.513 0 0 1-.238-1.806c-.052-.7-.077-1.377-.077-2.03 0-.327.007-.616.021-.868 0-.06.046-.091.14-.091.074 0 .121.019.14.056a.343.343 0 0 1 .035.175c0 .756.014 1.402.042 1.939.028.532.065 1.106.112 1.722l.056.805c.004.075-.035.112-.119.112a.599.599 0 0 1-.112-.014Zm1.175 0a15.732 15.732 0 0 1-.238-1.806 27.97 27.97 0 0 1-.077-2.03c0-.327.007-.616.021-.868 0-.06.047-.091.14-.091.075 0 .122.019.14.056a.333.333 0 0 1 .035.175c0 .756.014 1.402.042 1.939.028.532.066 1.106.112 1.722l.056.805c.005.075-.035.112-.119.112a.608.608 0 0 1-.112-.014Zm2.709 3.36a1.78 1.78 0 0 1-.854-.203 2.055 2.055 0 0 1-.595-.469c-.149-.177-.233-.322-.252-.434-.019-.103.005-.182.07-.238a.348.348 0 0 1 .259-.07c.145.345.317.611.518.798.201.187.488.285.861.294.261.005.469-.163.623-.504.159-.336.271-.749.336-1.239.065-.485.098-.964.098-1.435a6.82 6.82 0 0 0-.021-.595c-.355.434-.807.651-1.358.651-.476 0-.842-.226-1.099-.679a4.266 4.266 0 0 1-.49-1.533 1.584 1.584 0 0 1-.014-.238c0-.294.096-.441.287-.441.019 0 .044.117.077.35.051.369.114.7.189.994.075.294.198.562.371.805a.832.832 0 0 0 .7.357c.229 0 .462-.075.7-.224.243-.154.418-.324.525-.511 0-.355-.047-.672-.14-.952a29.61 29.61 0 0 1-.14-.455 3.232 3.232 0 0 1-.014-.196c0-.093.014-.161.042-.203a.167.167 0 0 1 .14-.063c.065 0 .14.133.224.399a7.1 7.1 0 0 1 .224 1.043 13.373 13.373 0 0 1 .147 1.883c0 .896-.112 1.638-.336 2.226-.219.588-.579.882-1.078.882Zm-47.226 6.696c-.107 0-.193-.156-.259-.469a7.108 7.108 0 0 1-.126-.819 98.53 98.53 0 0 1-.077-1.085 6.173 6.173 0 0 1-.007-.308c0-.159.012-.268.035-.329.028-.06.073-.091.133-.091a.18.18 0 0 1 .119.035.218.218 0 0 1 .084.098l-.007.28c0 .299.014.581.042.847.033.266.082.623.147 1.071.038.196.063.357.077.483a.32.32 0 0 1-.035.196c-.032.06-.074.091-.126.091Zm-.175-3.85a.258.258 0 0 1-.231-.119.578.578 0 0 1-.07-.294c0-.051.003-.089.007-.112-.004-.075.038-.112.126-.112.066 0 .131.016.196.049.07.028.091.049.063.063.047.121.07.217.07.287a.24.24 0 0 1-.042.147.41.41 0 0 1-.119.091Zm1.629 3.871a.833.833 0 0 1-.112.028c-.037 0-.077-.019-.119-.056-.154-.229-.266-.628-.336-1.197-.065-.57-.098-1.06-.098-1.47 0-.065.047-.098.14-.098.14 0 .21.077.21.231a.619.619 0 0 1-.007.105.88.88 0 0 1 .238-.301c.117-.103.252-.189.406-.259.154-.07.31-.105.469-.105.499 0 .863.222 1.092.665.229.439.343.985.343 1.638 0 .224-.023.404-.07.539-.047.13-.11.196-.189.196-.084 0-.126-.026-.126-.077a5.5 5.5 0 0 0 .049-.728c0-.602-.105-1.057-.315-1.365-.21-.313-.488-.469-.833-.469a1.036 1.036 0 0 0-.868.476.947.947 0 0 0-.14.511c0 .215.012.401.035.56.023.159.061.35.112.574.056.22.096.42.119.602Zm5.153-.028a5.513 5.513 0 0 1-.455-1.316 6.437 6.437 0 0 1-.161-1.309c0-.145.033-.238.098-.28.038-.023.066-.035.084-.035.033 0 .056.026.07.077.019.051.038.145.056.28l.035.252c.052-.252.15-.45.294-.595a.745.745 0 0 1 .546-.224c.238 0 .416.047.532.14.117.089.175.238.175.448a1.488 1.488 0 0 0-.637-.168.76.76 0 0 0-.469.147.777.777 0 0 0-.273.434 1.214 1.214 0 0 0-.014.728c.038.107.094.24.168.399.07.163.124.303.161.42.042.117.066.243.07.378 0 .08-.028.138-.084.175a.38.38 0 0 1-.196.049Zm3.35 0c-.485 0-.907-.084-1.267-.252-.354-.173-.532-.474-.532-.903a.82.82 0 0 1 .14-.448.998.998 0 0 1 .413-.35 1.45 1.45 0 0 1 .665-.14c.201 0 .371.01.511.028.14.019.301.07.483.154.182.084.371.217.567.399a2.786 2.786 0 0 0-.336-.847 1.847 1.847 0 0 0-.504-.56c-.182-.135-.361-.203-.539-.203a.588.588 0 0 0-.238.049c-.07.028-.156.07-.259.126-.116.075-.203.112-.259.112a.104.104 0 0 1-.063-.021.103.103 0 0 1-.021-.063c0-.187.082-.331.245-.434.168-.103.371-.15.609-.14.327.019.626.159.896.42.271.257.483.576.637.959.159.383.238.758.238 1.127 0 .06-.004.147-.014.259l-.224-.014c-.177-.36-.406-.614-.686-.763a1.69 1.69 0 0 0-.833-.231c-.359 0-.616.054-.77.161a.536.536 0 0 0-.231.469c0 .215.108.387.322.518.215.13.49.196.826.196.187 0 .336-.01.448-.028.112-.023.229-.054.35-.091.098-.033.185-.056.259-.07.075-.014.171-.021.287-.021.131 0 .213.01.245.028.038.019.056.06.056.126 0 .047-.095.105-.287.175-.191.07-.406.133-.644.189a2.598 2.598 0 0 1-.49.084Zm3.108 0a.607.607 0 0 1-.091.014c-.144 0-.245-.107-.301-.322-.051-.215-.077-.516-.077-.903 0-.159.005-.406.014-.742.01-.205.014-.36.014-.462-.574 0-.861-.065-.861-.196a.28.28 0 0 1 .014-.098c.014-.023.042-.035.084-.035l.763-.049a14.367 14.367 0 0 0-.035-.749 13.69 13.69 0 0 1-.035-.672c0-.051.021-.086.063-.105a.272.272 0 0 1 .133-.035c.056 0 .103.03.14.091a.306.306 0 0 1 .056.175l.049 1.281.581.028a.32.32 0 0 1 .224.049c.066.042.101.112.105.21a1.015 1.015 0 0 1-.322.077c-.116.01-.312.014-.588.014 0 .434.021 1.148.063 2.142v.217a.66.66 0 0 1 .007.07Zm1.694.007c-.107 0-.194-.156-.259-.469a7.108 7.108 0 0 1-.126-.819 78.33 78.33 0 0 1-.077-1.085 5.155 5.155 0 0 1-.007-.308c0-.159.012-.268.035-.329.028-.06.072-.091.133-.091.051 0 .091.012.119.035a.218.218 0 0 1 .084.098l-.007.28c0 .299.014.581.042.847.033.266.082.623.147 1.071.037.196.063.357.077.483a.327.327 0 0 1-.035.196c-.033.06-.075.091-.126.091Zm-.175-3.85a.256.256 0 0 1-.231-.119.568.568 0 0 1-.07-.294c0-.051.002-.089.007-.112-.005-.075.037-.112.126-.112a.43.43 0 0 1 .196.049c.07.028.091.049.063.063.047.121.07.217.07.287a.24.24 0 0 1-.042.147.423.423 0 0 1-.119.091Zm2.413 3.85a1.54 1.54 0 0 1-.749-.182 1.383 1.383 0 0 1-.518-.518 1.58 1.58 0 0 1-.182-.763c0-.467.17-.814.511-1.043.345-.229.768-.343 1.267-.343.229 0 .441.056.637.168.201.112.362.273.483.483.121.21.182.453.182.728 0 .299-.077.56-.231.784-.154.22-.357.39-.609.511a1.83 1.83 0 0 1-.791.175Zm-.077-.399c.434 0 .763-.098.987-.294.224-.196.336-.483.336-.861a.934.934 0 0 0-.266-.665c-.173-.187-.415-.28-.728-.28-.21 0-.422.04-.637.119a1.29 1.29 0 0 0-.532.357.838.838 0 0 0-.21.574c0 .187.047.362.14.525a1.1 1.1 0 0 0 .378.385c.163.093.341.14.532.14Zm8.558.399c-.07 0-.112-.019-.126-.056a.637.637 0 0 1-.021-.189.916.916 0 0 0 .007-.112.55.55 0 0 1 .007-.105c.028-.224.042-.436.042-.637 0-.443-.075-.789-.224-1.036-.15-.252-.385-.378-.707-.378-.178 0-.355.044-.532.133a1.386 1.386 0 0 0-.427.329c-.108.13-.161.25-.161.357.023.135.065.301.126.497.004.023.023.096.056.217.037.121.056.231.056.329l.007.133c0 .075-.038.112-.112.112-.094 0-.171-.06-.231-.182a3.925 3.925 0 0 1-.189-.567 6.24 6.24 0 0 0-.203-.623 1.303 1.303 0 0 0-.266-.42.567.567 0 0 0-.427-.175.688.688 0 0 0-.56.245.931.931 0 0 0-.196.602c0 .159.014.369.042.63.023.196.035.364.035.504a.5.5 0 0 1-.028.189c-.019.042-.063.063-.133.063-.094 0-.159-.03-.196-.091a.6.6 0 0 1-.056-.294c0-.257-.014-.567-.042-.931a16.628 16.628 0 0 1-.028-.357 4.808 4.808 0 0 1-.007-.588l.007-.231a.133.133 0 0 1 .098-.042c.051 0 .093.033.126.098a.55.55 0 0 1 .056.28 1.07 1.07 0 0 1 .308-.329.715.715 0 0 1 .427-.147c.256 0 .469.054.637.161.172.103.329.27.469.504.13-.238.326-.441.588-.609.266-.168.539-.252.819-.252.289 0 .529.11.721.329a2 2 0 0 1 .427.791c.093.308.14.593.14.854 0 .233-.021.457-.063.672-.038.215-.126.322-.266.322Zm2.711-1.841a.317.317 0 0 1-.203-.077.228.228 0 0 1-.077-.161c0-.056.019-.107.056-.154a.172.172 0 0 1 .14-.07c.065 0 .124.026.175.077.051.051.077.11.077.175a.318.318 0 0 1-.077.189.116.116 0 0 1-.091.021Zm-.042 1.379a.252.252 0 0 1-.175-.063.227.227 0 0 1-.063-.168c0-.07.021-.126.063-.168a.252.252 0 0 1 .175-.063c.079 0 .14.021.182.063a.227.227 0 0 1 .063.168c0 .154-.082.231-.245.231Zm2.982.483a.833.833 0 0 1-.112.028c-.037 0-.077-.019-.119-.056-.154-.229-.266-.628-.336-1.197-.065-.57-.098-1.06-.098-1.47 0-.065.047-.098.14-.098.14 0 .21.077.21.231a.619.619 0 0 1-.007.105.88.88 0 0 1 .238-.301c.117-.103.252-.189.406-.259.154-.07.31-.105.469-.105.499 0 .863.222 1.092.665.229.439.343.985.343 1.638 0 .224-.023.404-.07.539-.047.13-.11.196-.189.196-.084 0-.126-.026-.126-.077a5.5 5.5 0 0 0 .049-.728c0-.602-.105-1.057-.315-1.365-.21-.313-.488-.469-.833-.469a1.036 1.036 0 0 0-.868.476.947.947 0 0 0-.14.511c0 .215.012.401.035.56.023.159.061.35.112.574.056.22.096.42.119.602Zm3.235-.028a.291.291 0 0 1-.224-.112.955.955 0 0 1-.133-.917.516.516 0 0 1 .161-.217.285.285 0 0 1 .168-.07c.163 0 .294.08.392.238a.91.91 0 0 1 .147.497c0 .07-.028.152-.084.245a.811.811 0 0 1-.196.238.367.367 0 0 1-.231.098ZM96.483 40c-.06.023-.12.01-.175-.042a.317.317 0 0 1-.084-.217c-.019-.135-.04-.301-.063-.497l-.042-.434c-.01-.093-.03-.273-.063-.539a11.39 11.39 0 0 0-.091-.7 2.794 2.794 0 0 0-.091-.35c-.135-.48-.203-.828-.203-1.043.032-.047.065-.07.098-.07.121 0 .247.243.378.728.13.485.24 1.034.329 1.645.093.607.14 1.022.14 1.246v.091a.2.2 0 0 1-.035.119c-.019.033-.052.054-.098.063Zm1.43.028a.837.837 0 0 1-.112.028c-.037 0-.077-.019-.119-.056-.154-.229-.266-.628-.336-1.197-.065-.57-.098-1.06-.098-1.47 0-.065.047-.098.14-.098.14 0 .21.077.21.231a.663.663 0 0 1-.007.105.884.884 0 0 1 .238-.301 1.63 1.63 0 0 1 .406-.259c.154-.07.31-.105.47-.105.499 0 .863.222 1.091.665.229.439.343.985.343 1.638 0 .224-.023.404-.07.539-.046.13-.11.196-.189.196-.084 0-.126-.026-.126-.077a5.5 5.5 0 0 0 .05-.728c0-.602-.106-1.057-.316-1.365-.21-.313-.487-.469-.833-.469a1.035 1.035 0 0 0-.868.476.943.943 0 0 0-.14.511c0 .215.012.401.035.56.024.159.06.35.112.574.056.22.096.42.12.602Zm3.914-.028a.607.607 0 0 1-.091.014c-.144 0-.245-.107-.301-.322-.051-.215-.077-.516-.077-.903 0-.159.005-.406.014-.742.01-.205.014-.36.014-.462-.574 0-.861-.065-.861-.196a.28.28 0 0 1 .014-.098c.014-.023.042-.035.084-.035l.763-.049a14.367 14.367 0 0 0-.035-.749 13.69 13.69 0 0 1-.035-.672c0-.051.021-.086.063-.105a.272.272 0 0 1 .133-.035c.056 0 .103.03.14.091a.306.306 0 0 1 .056.175l.049 1.281.581.028a.32.32 0 0 1 .224.049c.066.042.101.112.105.21a1.015 1.015 0 0 1-.322.077c-.116.01-.312.014-.588.014 0 .434.021 1.148.063 2.142v.217a.66.66 0 0 1 .007.07Zm2.877 0a1.94 1.94 0 0 1-.826-.175 1.465 1.465 0 0 1-.602-.497 1.27 1.27 0 0 1-.224-.742c0-.313.058-.604.175-.875.117-.275.287-.495.511-.658.229-.168.495-.252.798-.252.317 0 .558.103.721.308.163.2.24.455.231.763a.71.71 0 0 1-.329.63c-.215.145-.49.217-.826.217a2.97 2.97 0 0 1-.231-.014 1.254 1.254 0 0 1-.357-.077c-.07-.033-.105-.098-.105-.196 0-.033.009-.056.028-.07.019-.019.056-.028.112-.028.061 0 .168.014.322.042.149.028.282.042.399.042.429 0 .644-.187.644-.56 0-.224-.042-.401-.126-.532-.079-.13-.222-.196-.427-.196-.224 0-.425.06-.602.182-.177.117-.315.27-.413.462-.093.191-.14.394-.14.609 0 .369.103.672.308.91.205.233.523.35.952.35.051 0 .138-.005.259-.014a.956.956 0 0 0 .189-.042 7.79 7.79 0 0 1 .161-.049c.201-.07.348-.105.441-.105.07 0 .124.019.161.056a1.018 1.018 0 0 1-.525.392c-.229.08-.455.119-.679.119Zm2.102 0a5.47 5.47 0 0 1-.455-1.316 6.367 6.367 0 0 1-.161-1.309c0-.145.032-.238.098-.28.037-.023.065-.035.084-.035.032 0 .056.026.07.077.018.051.037.145.056.28l.035.252c.051-.252.149-.45.294-.595a.742.742 0 0 1 .546-.224c.238 0 .415.047.532.14.116.089.175.238.175.448a1.495 1.495 0 0 0-.637-.168.758.758 0 0 0-.469.147.766.766 0 0 0-.273.434 1.214 1.214 0 0 0-.014.728c.037.107.093.24.168.399.07.163.123.303.161.42.042.117.065.243.07.378 0 .08-.028.138-.084.175a.383.383 0 0 1-.196.049Zm2.216.028a.875.875 0 0 1-.112.028c-.038 0-.077-.019-.119-.056-.154-.229-.266-.628-.336-1.197-.066-.57-.098-1.06-.098-1.47 0-.065.046-.098.14-.098.14 0 .21.077.21.231a.744.744 0 0 1-.007.105.88.88 0 0 1 .238-.301 1.61 1.61 0 0 1 .406-.259c.154-.07.31-.105.469-.105.499 0 .863.222 1.092.665.228.439.343.985.343 1.638 0 .224-.024.404-.07.539-.047.13-.11.196-.189.196-.084 0-.126-.026-.126-.077a5.67 5.67 0 0 0 .049-.728c0-.602-.105-1.057-.315-1.365-.21-.313-.488-.469-.833-.469a1.033 1.033 0 0 0-.868.476.938.938 0 0 0-.14.511c0 .215.011.401.035.56.023.159.06.35.112.574.056.22.095.42.119.602Zm4.586-.028c-.486 0-.908-.084-1.267-.252-.355-.173-.532-.474-.532-.903a.81.81 0 0 1 .14-.448.991.991 0 0 1 .413-.35c.182-.093.403-.14.665-.14.2 0 .371.01.511.028.14.019.301.07.483.154.182.084.371.217.567.399a2.838 2.838 0 0 0-.336-.847 1.873 1.873 0 0 0-.504-.56c-.182-.135-.362-.203-.539-.203a.584.584 0 0 0-.238.049c-.07.028-.157.07-.259.126-.117.075-.203.112-.259.112a.1.1 0 0 1-.063-.021.103.103 0 0 1-.021-.063c0-.187.081-.331.245-.434.168-.103.371-.15.609-.14.326.019.625.159.896.42.27.257.483.576.637.959.158.383.238.758.238 1.127 0 .06-.005.147-.014.259l-.224-.014c-.178-.36-.406-.614-.686-.763a1.693 1.693 0 0 0-.833-.231c-.36 0-.616.054-.77.161a.536.536 0 0 0-.231.469c0 .215.107.387.322.518.214.13.49.196.826.196.186 0 .336-.01.448-.028a3.95 3.95 0 0 0 .35-.091c.098-.033.184-.056.259-.07.074-.014.17-.021.287-.021.13 0 .212.01.245.028.037.019.056.06.056.126 0 .047-.096.105-.287.175-.192.07-.406.133-.644.189a2.61 2.61 0 0 1-.49.084Zm2.366-.049a15.513 15.513 0 0 1-.238-1.806 27.97 27.97 0 0 1-.077-2.03c0-.327.007-.616.021-.868 0-.06.047-.091.14-.091.075 0 .121.019.14.056a.343.343 0 0 1 .035.175c0 .756.014 1.402.042 1.939.028.532.065 1.106.112 1.722l.056.805c.005.075-.035.112-.119.112a.608.608 0 0 1-.112-.014Zm1.176 0a15.513 15.513 0 0 1-.238-1.806 27.97 27.97 0 0 1-.077-2.03c0-.327.007-.616.021-.868 0-.06.047-.091.14-.091.075 0 .121.019.14.056a.343.343 0 0 1 .035.175c0 .756.014 1.402.042 1.939.028.532.065 1.106.112 1.722l.056.805c.005.075-.035.112-.119.112a.608.608 0 0 1-.112-.014Zm2.709 3.36c-.318 0-.602-.068-.854-.203a2.042 2.042 0 0 1-.595-.469c-.15-.177-.234-.322-.252-.434-.019-.103.004-.182.07-.238a.348.348 0 0 1 .259-.07c.144.345.317.611.518.798.2.187.487.285.861.294.261.005.469-.163.623-.504.158-.336.27-.749.336-1.239.065-.485.098-.964.098-1.435a6.82 6.82 0 0 0-.021-.595 1.679 1.679 0 0 1-1.358.651c-.476 0-.843-.226-1.099-.679a4.246 4.246 0 0 1-.49-1.533 1.46 1.46 0 0 1-.014-.238c0-.294.095-.441.287-.441.018 0 .044.117.077.35.051.369.114.7.189.994.074.294.198.562.371.805a.83.83 0 0 0 .7.357c.228 0 .462-.075.7-.224.242-.154.417-.324.525-.511 0-.355-.047-.672-.14-.952a20.211 20.211 0 0 1-.14-.455 2.54 2.54 0 0 1-.014-.196c0-.093.014-.161.042-.203a.166.166 0 0 1 .14-.063c.065 0 .14.133.224.399.084.266.158.614.224 1.043a13.672 13.672 0 0 1 .147 1.883c0 .896-.112 1.638-.336 2.226-.22.588-.579.882-1.078.882Zm8.264-3.304c-.07 0-.112-.019-.126-.056a.637.637 0 0 1-.021-.189.752.752 0 0 0 .007-.112c0-.047.003-.082.007-.105.028-.224.042-.436.042-.637 0-.443-.074-.789-.224-1.036-.149-.252-.385-.378-.707-.378a1.18 1.18 0 0 0-.532.133 1.398 1.398 0 0 0-.427.329c-.107.13-.161.25-.161.357.024.135.066.301.126.497l.056.217c.038.121.056.231.056.329l.007.133c0 .075-.037.112-.112.112-.093 0-.17-.06-.231-.182a3.925 3.925 0 0 1-.189-.567 5.99 5.99 0 0 0-.203-.623 1.286 1.286 0 0 0-.266-.42.566.566 0 0 0-.427-.175.689.689 0 0 0-.56.245.937.937 0 0 0-.196.602c0 .159.014.369.042.63.024.196.035.364.035.504a.481.481 0 0 1-.028.189c-.018.042-.063.063-.133.063-.093 0-.158-.03-.196-.091a.611.611 0 0 1-.056-.294c0-.257-.014-.567-.042-.931a29.023 29.023 0 0 1-.028-.357 5.016 5.016 0 0 1-.007-.588l.007-.231a.135.135 0 0 1 .098-.042c.052 0 .094.033.126.098a.54.54 0 0 1 .056.28c.07-.121.173-.231.308-.329a.719.719 0 0 1 .427-.147c.257 0 .469.054.637.161.173.103.329.27.469.504.131-.238.327-.441.588-.609.266-.168.539-.252.819-.252.29 0 .53.11.721.329.196.22.339.483.427.791.094.308.14.593.14.854 0 .233-.021.457-.063.672-.037.215-.126.322-.266.322Zm2.544-.007a1.94 1.94 0 0 1-.826-.175 1.465 1.465 0 0 1-.602-.497 1.27 1.27 0 0 1-.224-.742c0-.313.058-.604.175-.875.117-.275.287-.495.511-.658.229-.168.495-.252.798-.252.317 0 .558.103.721.308.163.2.24.455.231.763a.71.71 0 0 1-.329.63c-.215.145-.49.217-.826.217a2.97 2.97 0 0 1-.231-.014 1.254 1.254 0 0 1-.357-.077c-.07-.033-.105-.098-.105-.196 0-.033.009-.056.028-.07.019-.019.056-.028.112-.028.061 0 .168.014.322.042.149.028.282.042.399.042.429 0 .644-.187.644-.56 0-.224-.042-.401-.126-.532-.079-.13-.222-.196-.427-.196-.224 0-.425.06-.602.182-.177.117-.315.27-.413.462-.093.191-.14.394-.14.609 0 .369.103.672.308.91.205.233.523.35.952.35.051 0 .138-.005.259-.014a.956.956 0 0 0 .189-.042 7.79 7.79 0 0 1 .161-.049c.201-.07.348-.105.441-.105.07 0 .124.019.161.056a1.018 1.018 0 0 1-.525.392c-.229.08-.455.119-.679.119Zm3.285 0c-.486 0-.908-.084-1.267-.252-.355-.173-.532-.474-.532-.903a.81.81 0 0 1 .14-.448.991.991 0 0 1 .413-.35c.182-.093.403-.14.665-.14.2 0 .371.01.511.028.14.019.301.07.483.154.182.084.371.217.567.399a2.838 2.838 0 0 0-.336-.847 1.873 1.873 0 0 0-.504-.56c-.182-.135-.362-.203-.539-.203a.584.584 0 0 0-.238.049c-.07.028-.157.07-.259.126-.117.075-.203.112-.259.112a.1.1 0 0 1-.063-.021.103.103 0 0 1-.021-.063c0-.187.081-.331.245-.434.168-.103.371-.15.609-.14.326.019.625.159.896.42.27.257.483.576.637.959.158.383.238.758.238 1.127 0 .06-.005.147-.014.259l-.224-.014c-.178-.36-.406-.614-.686-.763a1.693 1.693 0 0 0-.833-.231c-.36 0-.616.054-.77.161a.536.536 0 0 0-.231.469c0 .215.107.387.322.518.214.13.49.196.826.196.186 0 .336-.01.448-.028a3.95 3.95 0 0 0 .35-.091c.098-.033.184-.056.259-.07.074-.014.17-.021.287-.021.13 0 .212.01.245.028.037.019.056.06.056.126 0 .047-.096.105-.287.175-.192.07-.406.133-.644.189a2.61 2.61 0 0 1-.49.084Zm2.646.028a.875.875 0 0 1-.112.028c-.038 0-.077-.019-.119-.056-.154-.229-.266-.628-.336-1.197-.066-.57-.098-1.06-.098-1.47 0-.065.046-.098.14-.098.14 0 .21.077.21.231a.744.744 0 0 1-.007.105.88.88 0 0 1 .238-.301 1.61 1.61 0 0 1 .406-.259c.154-.07.31-.105.469-.105.499 0 .863.222 1.092.665.228.439.343.985.343 1.638 0 .224-.024.404-.07.539-.047.13-.11.196-.189.196-.084 0-.126-.026-.126-.077a5.67 5.67 0 0 0 .049-.728c0-.602-.105-1.057-.315-1.365-.21-.313-.488-.469-.833-.469a1.033 1.033 0 0 0-.868.476.938.938 0 0 0-.14.511c0 .215.011.401.035.56.023.159.06.35.112.574.056.22.095.42.119.602Zm2.822-.854a.308.308 0 0 1 .189-.077c.056 0 .11.016.161.049a.99.99 0 0 1 .168.126c.056.047.1.082.133.105.107.084.254.15.441.196.187.047.385.07.595.07.238 0 .45-.044.637-.133.191-.093.287-.217.287-.371 0-.14-.051-.25-.154-.329a.952.952 0 0 0-.371-.182 5.27 5.27 0 0 0-.574-.105 4.818 4.818 0 0 1-.77-.14.946.946 0 0 1-.448-.273c-.112-.13-.168-.313-.168-.546 0-.252.119-.439.357-.56.238-.126.511-.189.819-.189.28 0 .518.06.714.182a.568.568 0 0 1 .308.504.493.493 0 0 1-.056.301c-.047.07-.103.105-.168.105a.135.135 0 0 1-.098-.042.171.171 0 0 1-.035-.112.5.5 0 0 1 .077-.245c-.023-.112-.1-.196-.231-.252a1.117 1.117 0 0 0-.455-.084c-.261 0-.469.049-.623.147-.154.093-.231.205-.231.336 0 .14.056.247.168.322.112.075.247.128.406.161.163.028.394.056.693.084.247.033.448.072.602.119a.78.78 0 0 1 .399.273c.107.13.161.32.161.567 0 .257-.119.46-.357.609a1.614 1.614 0 0 1-.854.217c-.425 0-.805-.072-1.141-.217-.331-.145-.525-.35-.581-.616Zm6.271.546a9.197 9.197 0 0 1-.203-1.071c-.047-.364-.089-.961-.126-1.792 0-.056.018-.105.056-.147a.193.193 0 0 1 .14-.063h.063c.023.154.039.401.049.742 0 .037.004.163.014.378.009.21.032.408.07.595.541-.051.973-.156 1.295-.315.326-.159.49-.385.49-.679 0-.369-.164-.67-.49-.903-.327-.233-.819-.35-1.477-.35a1.46 1.46 0 0 0-.7.154c-.033.014-.056.044-.07.091a.94.94 0 0 0-.035.182 1.04 1.04 0 0 1-.035.189c-.014.042-.04.063-.077.063-.042 0-.07-.03-.084-.091a3.95 3.95 0 0 1-.014-.441c0-.13.088-.233.266-.308.177-.075.406-.112.686-.112.816 0 1.423.128 1.82.385.396.257.595.651.595 1.183a.896.896 0 0 1-.343.714 2.244 2.244 0 0 1-.833.427c-.327.089-.64.133-.938.133.009.056.018.107.028.154l.021.119c.065.317.098.562.098.735a.593.593 0 0 1-.042.245c-.024.06-.077.082-.161.063l-.063-.28Zm4.77.231a15.732 15.732 0 0 1-.238-1.806 27.97 27.97 0 0 1-.077-2.03c0-.327.007-.616.021-.868 0-.06.047-.091.14-.091.075 0 .122.019.14.056a.333.333 0 0 1 .035.175c0 .756.014 1.402.042 1.939.028.532.066 1.106.112 1.722l.056.805c.005.075-.035.112-.119.112a.608.608 0 0 1-.112-.014Zm1.26.056c-.107 0-.193-.156-.259-.469a7.108 7.108 0 0 1-.126-.819 98.53 98.53 0 0 1-.077-1.085 6.173 6.173 0 0 1-.007-.308c0-.159.012-.268.035-.329.028-.06.073-.091.133-.091a.18.18 0 0 1 .119.035.218.218 0 0 1 .084.098l-.007.28c0 .299.014.581.042.847.033.266.082.623.147 1.071.038.196.063.357.077.483a.32.32 0 0 1-.035.196c-.032.06-.074.091-.126.091Zm-.175-3.85a.258.258 0 0 1-.231-.119.578.578 0 0 1-.07-.294c0-.051.003-.089.007-.112-.004-.075.038-.112.126-.112.066 0 .131.016.196.049.07.028.091.049.063.063.047.121.07.217.07.287a.24.24 0 0 1-.042.147.41.41 0 0 1-.119.091ZM154.162 40a1.94 1.94 0 0 1-.826-.175 1.465 1.465 0 0 1-.602-.497 1.27 1.27 0 0 1-.224-.742c0-.313.058-.604.175-.875.117-.275.287-.495.511-.658.229-.168.495-.252.798-.252.317 0 .558.103.721.308.163.2.24.455.231.763a.71.71 0 0 1-.329.63c-.215.145-.49.217-.826.217a2.97 2.97 0 0 1-.231-.014 1.254 1.254 0 0 1-.357-.077c-.07-.033-.105-.098-.105-.196 0-.033.009-.056.028-.07.019-.019.056-.028.112-.028.061 0 .168.014.322.042.149.028.282.042.399.042.429 0 .644-.187.644-.56 0-.224-.042-.401-.126-.532-.079-.13-.222-.196-.427-.196-.224 0-.425.06-.602.182-.177.117-.315.27-.413.462-.093.191-.14.394-.14.609 0 .369.103.672.308.91.205.233.523.35.952.35.051 0 .138-.005.259-.014a.956.956 0 0 0 .189-.042 7.79 7.79 0 0 1 .161-.049c.201-.07.348-.105.441-.105.07 0 .124.019.161.056a1.018 1.018 0 0 1-.525.392c-.229.08-.455.119-.679.119Zm1.521-.826a.308.308 0 0 1 .189-.077c.056 0 .109.016.161.049a.99.99 0 0 1 .168.126c.056.047.1.082.133.105.107.084.254.15.441.196.186.047.385.07.595.07.238 0 .45-.044.637-.133.191-.093.287-.217.287-.371 0-.14-.052-.25-.154-.329a.96.96 0 0 0-.371-.182 5.27 5.27 0 0 0-.574-.105 4.818 4.818 0 0 1-.77-.14.946.946 0 0 1-.448-.273c-.112-.13-.168-.313-.168-.546 0-.252.119-.439.357-.56.238-.126.511-.189.819-.189.28 0 .518.06.714.182a.57.57 0 0 1 .308.504.5.5 0 0 1-.056.301c-.047.07-.103.105-.168.105a.133.133 0 0 1-.098-.042.166.166 0 0 1-.035-.112.49.49 0 0 1 .077-.245c-.024-.112-.101-.196-.231-.252a1.117 1.117 0 0 0-.455-.084c-.262 0-.469.049-.623.147-.154.093-.231.205-.231.336 0 .14.056.247.168.322.112.075.247.128.406.161.163.028.394.056.693.084.247.033.448.072.602.119a.788.788 0 0 1 .399.273c.107.13.161.32.161.567 0 .257-.119.46-.357.609a1.614 1.614 0 0 1-.854.217c-.425 0-.805-.072-1.141-.217-.332-.145-.525-.35-.581-.616Zm-39.486 10.833c-.373 0-.667-.072-.882-.217-.214-.15-.373-.373-.476-.672-.102-.303-.17-.71-.203-1.218l-.203-1.183a5.335 5.335 0 0 0-.077-.504 2.13 2.13 0 0 1-.049-.35c0-.098.028-.17.084-.217.056-.051.157-.086.301-.105.028.233.047.408.056.525.052.453.094.8.126 1.043.038.238.084.488.14.749a2.56 2.56 0 0 1 1.036-.238c.299 0 .565.063.798.189.234.121.416.294.546.518.131.22.196.467.196.742a.76.76 0 0 1-.427.714c-.28.15-.602.224-.966.224Zm1.001-.924c.005-.033.007-.08.007-.14 0-.331-.114-.579-.343-.742-.224-.163-.543-.245-.959-.245-.256 0-.457.051-.602.154a.469.469 0 0 0-.21.406c0 .397.108.686.322.868.22.182.553.273 1.001.273a.937.937 0 0 0 .539-.147.552.552 0 0 0 .245-.427Zm.8.917a.173.173 0 0 1-.14-.07.272.272 0 0 1-.056-.161c0-.103.042-.257.126-.462.089-.21.175-.397.259-.56l1.127-3.08c.01-.075.019-.128.028-.161.033-.21.068-.38.105-.511.042-.13.105-.212.189-.245.066.014.105.044.119.091a.311.311 0 0 1 .014.133v.091c0 .182-.13.688-.392 1.519a32.37 32.37 0 0 1-.812 2.331c-.284.723-.473 1.085-.567 1.085Zm5.289-.035c-.261 0-.473-.049-.637-.147a.834.834 0 0 1-.336-.476c-.14.243-.301.425-.483.546a1.07 1.07 0 0 1-.588.175c-.364 0-.644-.13-.84-.392-.196-.261-.294-.684-.294-1.267 0-.275.028-.509.084-.7.061-.191.161-.366.301-.525.066.023.105.056.119.098a.385.385 0 0 1 .028.168c0 .075-.009.15-.028.224a1.476 1.476 0 0 1-.028.133 7.83 7.83 0 0 0-.077.371 2.93 2.93 0 0 0-.021.385c0 .336.063.611.189.826.131.21.318.315.56.315.276 0 .49-.089.644-.266a.995.995 0 0 0 .238-.679l-.049-.714c0-.028.019-.056.056-.084a.248.248 0 0 1 .14-.042c.066 0 .11.044.133.133.024.089.045.229.063.42.028.238.059.434.091.588.038.15.108.282.21.399.103.112.252.168.448.168.238 0 .411-.065.518-.196a.815.815 0 0 0 .161-.525 1.79 1.79 0 0 0-.112-.602 1.768 1.768 0 0 0-.259-.525c-.004-.042.017-.077.063-.105a.202.202 0 0 1 .154-.021c.084.019.161.093.231.224.075.13.133.294.175.49.047.196.07.392.07.588 0 .294-.074.537-.224.728-.144.191-.378.287-.7.287Zm6.526.042c-.056 0-.096-.014-.119-.042a.211.211 0 0 1-.028-.119c0-.103.023-.261.07-.476.051-.196.077-.357.077-.483 0-.364-.028-.642-.084-.833h-.217c-.191 0-.441-.005-.749-.014l-.658-.007h-.945l.014.273c0 .215.035.483.105.805.023.13.044.264.063.399.023.13.035.25.035.357v.063a.209.209 0 0 1-.147.07c-.121 0-.217-.142-.287-.427a4.491 4.491 0 0 1-.105-1.043c0-.163.007-.324.021-.483-.103-.005-.173-.021-.21-.049-.037-.033-.056-.082-.056-.147 0-.051.014-.086.042-.105a.48.48 0 0 1 .168-.042l-.007-.189.021-.322c.033-.527.082-.957.147-1.288.065-.331.205-.618.42-.861s.537-.364.966-.364c.49 0 .873.264 1.148.791.275.527.462 1.115.56 1.764.098.649.147 1.206.147 1.673 0 .168-.005.315-.014.441a6.06 6.06 0 0 1-.056.455c-.107.135-.215.203-.322.203Zm-.112-2.226c-.089-.863-.247-1.54-.476-2.03-.229-.495-.572-.742-1.029-.742-.341 0-.593.159-.756.476a2.759 2.759 0 0 0-.287 1.008c-.033.36-.049.763-.049 1.211l2.597.077Zm5.672-.413c0 .06-.049.103-.147.126a2.307 2.307 0 0 1-.455.042 4.97 4.97 0 0 1-.168.651 3.58 3.58 0 0 1-.273.609l.672 1.029c-.028.047-.084.07-.168.07l-.112-.007c-.215-.266-.409-.52-.581-.763-.196.317-.371.546-.525.686a.82.82 0 0 1-.56.203.698.698 0 0 1-.483-.182.635.635 0 0 1-.196-.49c0-.21.044-.413.133-.609.088-.2.219-.446.392-.735.116-.2.203-.357.259-.469.06-.117.107-.231.14-.343.004-.336.016-.677.035-1.022.014-.28.021-.511.021-.693 0-.22.093-.329.28-.329.158 0 .284.072.378.217.093.14.14.317.14.532 0 .21-.045.439-.133.686a5.525 5.525 0 0 1-.399.854c.028.135.084.29.168.462.088.168.205.371.35.609.252-.509.366-.929.343-1.26 0-.051.079-.077.238-.077l.343.007c.121 0 .203.012.245.035.042.019.063.072.063.161Zm-2.268 2.296c.154 0 .296-.06.427-.182.135-.126.277-.331.427-.616a19.371 19.371 0 0 1-.602-.959 10.44 10.44 0 0 0-.469.868 1.37 1.37 0 0 0-.126.567c0 .107.03.189.091.245.06.051.144.077.252.077Zm7.294.343c-.891 0-1.582-.049-2.072-.147-.126-2.338-.24-3.752-.343-4.242l-.21.049a5.482 5.482 0 0 0-.322.077 2.203 2.203 0 0 0-.329.105l-.007-.238c0-.08.086-.152.259-.217.173-.07.38-.124.623-.161.247-.042.467-.063.658-.063.21 0 .45.037.721.112.275.075.511.187.707.336.196.145.294.317.294.518a.84.84 0 0 1-.266.609 1.476 1.476 0 0 1-.679.371c.411.07.793.196 1.148.378.355.177.639.399.854.665.215.261.322.544.322.847 0 .35-.135.604-.406.763a1.849 1.849 0 0 1-.952.238Zm-.182-.399c.345 0 .611-.037.798-.112.187-.08.28-.247.28-.504a.98.98 0 0 0-.245-.679 1.667 1.667 0 0 0-.567-.434 7.74 7.74 0 0 0-.805-.336 4.58 4.58 0 0 1-.574-.231c-.121-.07-.182-.147-.182-.231 0-.06.03-.107.091-.14.061-.033.168-.08.322-.14.21-.07.373-.145.49-.224a.403.403 0 0 0 .182-.35c0-.22-.133-.387-.399-.504a2.137 2.137 0 0 0-.896-.182c-.093 0-.205.01-.336.028.121.784.205 1.444.252 1.981.047.532.079 1.15.098 1.855.065.065.231.114.497.147.266.033.597.051.994.056Z"/>
  <rect width="68" height="19" x="93.5" y="33.5" stroke="#fff" rx="1.5"/>
  <rect width="68" height="19" x="93.5" y="6.5" stroke="#fff" rx="1.5"/>
  <path fill="#fff" d="M50.67 34.72a9.411 9.411 0 0 1-.203-1.071 24.09 24.09 0 0 1-.127-1.792.22.22 0 0 1 .056-.147.194.194 0 0 1 .14-.063h.063c.024.154.04.401.05.742 0 .037.004.163.014.378.009.21.032.408.07.595.54-.051.973-.156 1.295-.315.326-.159.49-.385.49-.679 0-.369-.164-.67-.49-.903-.327-.233-.82-.35-1.477-.35-.276 0-.51.051-.7.154-.033.014-.056.044-.07.091a.964.964 0 0 0-.035.182.981.981 0 0 1-.035.189c-.014.042-.04.063-.078.063-.041 0-.07-.03-.084-.091a4.14 4.14 0 0 1-.014-.441c0-.13.09-.233.267-.308.177-.075.406-.112.685-.112.817 0 1.424.128 1.82.385.397.257.596.651.596 1.183a.894.894 0 0 1-.343.714 2.236 2.236 0 0 1-.834.427 3.56 3.56 0 0 1-.938.133 4.9 4.9 0 0 0 .029.154c.009.047.016.086.02.119.066.317.098.562.098.735a.593.593 0 0 1-.041.245c-.024.06-.078.082-.161.063l-.063-.28Zm5.925.287c-.056 0-.095-.014-.119-.042a.213.213 0 0 1-.028-.119 2.5 2.5 0 0 1 .07-.476c.052-.196.077-.357.077-.483 0-.364-.028-.642-.084-.833h-.217c-.19 0-.44-.005-.749-.014l-.658-.007h-.945l.014.273c0 .215.035.483.105.805.024.13.045.264.063.399.024.13.035.25.035.357v.063a.207.207 0 0 1-.147.07c-.12 0-.217-.142-.287-.427a4.491 4.491 0 0 1-.105-1.043c0-.163.007-.324.021-.483-.102-.005-.172-.021-.21-.049-.037-.033-.056-.082-.056-.147 0-.051.014-.086.042-.105a.477.477 0 0 1 .168-.042l-.007-.189.021-.322c.033-.527.082-.957.147-1.288a1.8 1.8 0 0 1 .42-.861c.215-.243.537-.364.966-.364.49 0 .873.264 1.148.791.276.527.462 1.115.56 1.764.098.649.147 1.206.147 1.673 0 .168-.004.315-.014.441a6.079 6.079 0 0 1-.056.455c-.107.135-.214.203-.322.203Zm-.112-2.226c-.088-.863-.247-1.54-.476-2.03-.228-.495-.571-.742-1.029-.742-.34 0-.592.159-.756.476a2.759 2.759 0 0 0-.287 1.008c-.032.36-.049.763-.049 1.211l2.597.077Zm2.956.385a.318.318 0 0 1-.203-.077.228.228 0 0 1-.077-.161.24.24 0 0 1 .056-.154.172.172 0 0 1 .14-.07c.065 0 .123.026.175.077.051.051.077.11.077.175a.309.309 0 0 1-.077.189.117.117 0 0 1-.091.021Zm-.042 1.379a.252.252 0 0 1-.175-.063.227.227 0 0 1-.063-.168c0-.07.02-.126.063-.168a.252.252 0 0 1 .175-.063c.08 0 .14.021.182.063a.227.227 0 0 1 .063.168c0 .154-.082.231-.245.231Zm3.31.175a9.411 9.411 0 0 1-.202-1.071c-.047-.364-.09-.961-.126-1.792 0-.056.018-.105.056-.147a.194.194 0 0 1 .14-.063h.063c.023.154.04.401.049.742 0 .037.004.163.014.378.009.21.032.408.07.595.54-.051.973-.156 1.295-.315.326-.159.49-.385.49-.679 0-.369-.164-.67-.49-.903-.327-.233-.82-.35-1.477-.35-.276 0-.51.051-.7.154-.033.014-.056.044-.07.091a.964.964 0 0 0-.035.182.981.981 0 0 1-.035.189c-.014.042-.04.063-.077.063-.042 0-.07-.03-.084-.091a4.14 4.14 0 0 1-.014-.441c0-.13.088-.233.266-.308.177-.075.406-.112.686-.112.816 0 1.423.128 1.82.385.396.257.595.651.595 1.183a.894.894 0 0 1-.343.714 2.236 2.236 0 0 1-.833.427c-.327.089-.64.133-.938.133a4.9 4.9 0 0 0 .028.154c.009.047.016.086.02.119.066.317.099.562.099.735a.593.593 0 0 1-.042.245c-.024.06-.077.082-.161.063l-.063-.28Zm5.5.287c-.892 0-1.582-.049-2.072-.147-.127-2.338-.24-3.752-.344-4.242l-.21.049a5.252 5.252 0 0 0-.322.077 2.2 2.2 0 0 0-.329.105l-.007-.238c0-.08.087-.152.26-.217.172-.07.38-.124.622-.161a3.98 3.98 0 0 1 .658-.063c.21 0 .45.037.722.112.275.075.51.187.706.336.197.145.294.317.294.518a.838.838 0 0 1-.266.609 1.475 1.475 0 0 1-.678.371c.41.07.793.196 1.147.378.355.177.64.399.855.665.214.261.322.544.322.847 0 .35-.136.604-.406.763a1.85 1.85 0 0 1-.953.238Zm-.182-.399c.345 0 .61-.037.797-.112.187-.08.28-.247.28-.504a.98.98 0 0 0-.245-.679 1.66 1.66 0 0 0-.567-.434 7.713 7.713 0 0 0-.805-.336 4.6 4.6 0 0 1-.573-.231c-.122-.07-.183-.147-.183-.231 0-.06.03-.107.091-.14.061-.033.169-.08.323-.14.21-.07.373-.145.49-.224a.402.402 0 0 0 .181-.35c0-.22-.132-.387-.398-.504a2.136 2.136 0 0 0-.897-.182c-.093 0-.205.01-.336.028.122.784.206 1.444.252 1.981.047.532.08 1.15.099 1.855.065.065.23.114.496.147.266.033.598.051.995.056Zm5.773-1.932a66.4 66.4 0 0 0-1.043.021c-.238.014-.464.021-.679.021-.13 0-.196-.06-.196-.182 0-.047.007-.093.021-.14.047-.075.427-.112 1.141-.112.397 0 .684.002.861.007.444.01.651.103.623.28-.009.06-.023.1-.042.119-.018.019-.053.028-.105.028-.05 0-.107-.002-.168-.007a.987.987 0 0 0-.133-.014 1.794 1.794 0 0 0-.28-.021Zm-1.512 1.057a.785.785 0 0 1-.294-.042c-.06-.033-.09-.105-.09-.217 0-.014.006-.03.02-.049.02-.019.033-.028.042-.028l.504-.042a2.42 2.42 0 0 1 .266-.014c.098-.005.238-.007.42-.007l.42-.007c.07-.005.168-.007.294-.007a1 1 0 0 1 .385.056c.09.037.145.112.168.224-.009.06-.035.103-.077.126a.433.433 0 0 1-.182.028l-1.876-.021Zm9.16 1.274c-.07 0-.112-.019-.126-.056a.637.637 0 0 1-.021-.189.794.794 0 0 0 .007-.112c0-.047.002-.082.007-.105.028-.224.042-.436.042-.637 0-.443-.075-.789-.224-1.036-.15-.252-.385-.378-.707-.378a1.18 1.18 0 0 0-.532.133 1.39 1.39 0 0 0-.427.329c-.107.13-.161.25-.161.357.023.135.065.301.126.497.005.023.023.096.056.217.037.121.056.231.056.329l.007.133c0 .075-.037.112-.112.112-.093 0-.17-.06-.231-.182a3.925 3.925 0 0 1-.189-.567 6.138 6.138 0 0 0-.203-.623 1.291 1.291 0 0 0-.266-.42.566.566 0 0 0-.427-.175.688.688 0 0 0-.56.245.933.933 0 0 0-.196.602c0 .159.014.369.042.63.023.196.035.364.035.504a.5.5 0 0 1-.028.189c-.019.042-.063.063-.133.063-.093 0-.159-.03-.196-.091a.608.608 0 0 1-.056-.294c0-.257-.014-.567-.042-.931a20.054 20.054 0 0 1-.028-.357 4.952 4.952 0 0 1-.007-.588l.007-.231a.134.134 0 0 1 .098-.042c.051 0 .093.033.126.098a.55.55 0 0 1 .056.28c.07-.121.173-.231.308-.329a.717.717 0 0 1 .427-.147c.257 0 .469.054.637.161.173.103.329.27.469.504a1.7 1.7 0 0 1 .588-.609c.266-.168.539-.252.819-.252.29 0 .53.11.721.329.196.22.338.483.427.791.093.308.14.593.14.854 0 .233-.021.457-.063.672-.037.215-.126.322-.266.322Zm2.712-1.841a.318.318 0 0 1-.203-.077.224.224 0 0 1-.077-.161c0-.056.018-.107.056-.154a.172.172 0 0 1 .14-.07c.065 0 .123.026.175.077a.24.24 0 0 1 .077.175.306.306 0 0 1-.077.189.116.116 0 0 1-.091.021Zm-.042 1.379a.252.252 0 0 1-.175-.063.227.227 0 0 1-.063-.168c0-.07.02-.126.063-.168a.252.252 0 0 1 .175-.063c.079 0 .14.021.182.063a.227.227 0 0 1 .063.168c0 .154-.082.231-.245.231Zm2.981.483a.83.83 0 0 1-.112.028c-.037 0-.077-.019-.119-.056-.154-.229-.266-.628-.336-1.197a13.17 13.17 0 0 1-.098-1.47c0-.065.047-.098.14-.098.14 0 .21.077.21.231a.652.652 0 0 1-.007.105.885.885 0 0 1 .238-.301c.117-.103.252-.189.406-.259.154-.07.31-.105.47-.105.499 0 .863.222 1.091.665.229.439.343.985.343 1.638 0 .224-.023.404-.07.539-.046.13-.11.196-.189.196-.084 0-.126-.026-.126-.077a5.55 5.55 0 0 0 .05-.728c0-.602-.106-1.057-.316-1.365-.21-.313-.487-.469-.833-.469a1.035 1.035 0 0 0-.868.476.944.944 0 0 0-.14.511c0 .215.012.401.035.56.024.159.061.35.112.574.056.22.096.42.12.602Z"/>
  <path fill="gold" d="M82.632 26.704a.25.25 0 0 1-.353.002l-1.601-1.58a.25.25 0 0 1 .351-.357l1.423 1.406 1.406-1.423a.25.25 0 0 1 .355.352l-1.58 1.6ZM93.84 16.81c-2.832-.469-4.926-.086-6.479.729-1.554.816-2.59 2.077-3.283 3.409-.693 1.333-1.037 2.729-1.207 3.795a13.934 13.934 0 0 0-.164 1.66 5.517 5.517 0 0 0-.002.094v.03l-.25.002h-.25v-.037l.002-.103a14.41 14.41 0 0 1 .17-1.725c.175-1.099.532-2.55 1.258-3.947.727-1.398 1.828-2.746 3.494-3.62 1.667-.876 3.876-1.263 6.793-.78l-.082.493Z" style="mix-blend-mode:lighten"/>
  <path fill="#fff" d="M10.988 56.56a5.95 5.95 0 0 1-.46-.83 6.634 6.634 0 0 1-.287-.739 3.025 3.025 0 0 1-.126-.679 30.87 30.87 0 0 1-.037-.556 1.923 1.923 0 0 1 .047-.481 7 7 0 0 0 .065-.337c.004-.037.027-.113.067-.226l.079-.052.024-.016c.056-.037.097-.037.12-.001.008.012.002.077-.019.194-.02.118-.033.28-.037.484a4.91 4.91 0 0 0 .046.714c.034.272.132.606.294 1.001.163.396.384.807.665 1.235.28.427.57.791.866 1.093.296.301.563.527.8.677.237.15.45.258.638.325.188.066.343.118.465.153.121.036.183.056.186.06.024.036.005.074-.055.114l-.018.012-.079.051-.264-.034a3.57 3.57 0 0 1-1.671-.736 5.915 5.915 0 0 1-1.31-1.425Zm1.942-1.614c-.084-.188-.104-.455-.06-.801.044-.346.203-.613.479-.8a.86.86 0 0 1 .458-.145.838.838 0 0 1 .439.1c.002-.364.122-.625.36-.782a.71.71 0 0 1 .474-.121.542.542 0 0 1 .404.245c.077.117.11.23.102.34a.43.43 0 0 1-.075.24.575.575 0 0 1-.124.116.319.319 0 0 1-.23.057.271.271 0 0 1-.189-.128c-.121-.185-.104-.379.052-.58-.079-.023-.176.004-.293.08a.47.47 0 0 0-.107.089c-.11.165-.136.372-.076.621.344 1.05.565 1.649.663 1.798.074.113.159.172.255.178a.414.414 0 0 0 .26-.066c.149-.098.252-.262.31-.49a1.209 1.209 0 0 0-.026-.684c-.015-.049-.017-.079-.008-.09a.681.681 0 0 1 .09-.076l.023-.016c.06-.04.102-.044.123-.012l.031.075c.087.272.096.558.027.857-.069.299-.226.53-.472.691-.282.186-.579.2-.89.04-.002.36-.109.609-.323.75l-.036.023c-.197.13-.373.17-.526.121a.662.662 0 0 1-.352-.245.524.524 0 0 1-.092-.39.435.435 0 0 1 .193-.3c.173-.113.315-.086.427.083a.39.39 0 0 1 .066.26.488.488 0 0 1-.118.294l-.014.018c.003.004.02.004.052 0s.074-.01.124-.021a.276.276 0 0 0 .127-.058c.145-.095.21-.268.196-.518-.006-.088-.05-.256-.131-.502a45.097 45.097 0 0 0-.426-1.227 1.758 1.758 0 0 0-.125-.256c-.074-.112-.157-.173-.25-.182a.384.384 0 0 0-.252.063.793.793 0 0 0-.327.491c-.056.222-.046.452.03.69.016.042.02.07.01.081a.688.688 0 0 1-.09.076l-.084.055c-.04-.008-.066-.022-.08-.042Zm4.174-2.482-.042.058a2.247 2.247 0 0 1-.371.348l-.081.053-.13-.196.082-.054a1.663 1.663 0 0 0 .501-.568c.025-.062.045-.12.058-.173 0-.012.014-.028.043-.047a.143.143 0 0 1 .09-.022l.84 1.278.847 1.28a.202.202 0 0 0 .077.004.61.61 0 0 0 .113-.05 3.4 3.4 0 0 0 .271-.166l.111-.073.13.197-.048.03c-.065.031-.294.176-.688.434a10.34 10.34 0 0 0-.662.455l-.051.033-.13-.196.112-.073.162-.107c.046-.03.08-.055.104-.075a.506.506 0 0 0 .06-.058.301.301 0 0 1 .029-.03.149.149 0 0 0 .011-.039c.005-.023.01-.035.014-.034l-1.453-2.21Zm2.89.036-.1-.151a.452.452 0 0 1-.074-.324.395.395 0 0 1 .188-.28.473.473 0 0 1 .402-.047c.155.042.318.19.489.44.093.142.165.29.216.447.05.157.084.3.1.428.015.129.017.246.005.352a2.788 2.788 0 0 1-.037.258c-.014.067-.029.102-.043.106-.016.01-.055.01-.115-.002-.06-.013-.095-.027-.106-.043-.01-.017-.01-.063.003-.14.013-.078.023-.172.032-.281a1.39 1.39 0 0 0-.042-.406c-.036-.16-.1-.33-.193-.505l-.048-.072-.002.01a.28.28 0 0 1-.022.032.185.185 0 0 0-.024.041.118.118 0 0 1-.047.048.533.533 0 0 0-.069.054.43.43 0 0 1-.333.072l-.18-.037Zm1.341-3.064c-.037-.057-.07-.173-.1-.35a2.008 2.008 0 0 1 .008-.62c.035-.236.136-.407.304-.512a.678.678 0 0 1 .49-.123c.162.026.299.12.412.283a.953.953 0 0 1 .065.14c.008.011.037.125.086.341.05.216.112.455.186.718.075.262.157.457.245.583.114.173.222.276.324.307.101.031.21.012.325-.058a.636.636 0 0 0 .216-.238.875.875 0 0 0 .096-.262c.013-.077.023-.18.032-.307a13.434 13.434 0 0 0-.2-.553 8.54 8.54 0 0 1-.178-.523c-.245-.705-.368-1.077-.37-1.115a.321.321 0 0 1 .152-.335.222.222 0 0 1 .155-.04c.05.006.089.016.114.028.025.012.041.028.048.047.034.052.214.54.538 1.464.325.923.498 1.433.52 1.528.108.409.087.803-.061 1.183s-.36.664-.636.851c-.18.12-.37.18-.564.181a.531.531 0 0 1-.468-.264.632.632 0 0 1-.105-.251.347.347 0 0 1 .027-.209.996.996 0 0 1 .082-.14.346.346 0 0 1 .09-.085c.178-.117.322-.09.433.079.053.08.075.167.067.259a.487.487 0 0 1-.118.294l-.015.018c.022.015.076.014.163-.003a.644.644 0 0 0 .233-.093l.049-.032a.93.93 0 0 0 .149-.115.968.968 0 0 0 .217-.472c.037-.191.041-.373.014-.546a4.91 4.91 0 0 0-.084-.43.891.891 0 0 0-.07-.213l-.02.048a1.84 1.84 0 0 1-.181.318c-.068.073-.14.135-.216.185a1.078 1.078 0 0 1-.577.19c-.2.003-.386-.079-.56-.247a2.084 2.084 0 0 1-.13-.183c-.15-.23-.278-.577-.38-1.04-.103-.464-.188-.746-.254-.846l-.008-.013-.048-.072c-.008-.012-.025-.021-.052-.027a.107.107 0 0 0-.082.02l-.024.016a.422.422 0 0 0-.179.282 1.146 1.146 0 0 0-.018.367c.014.118.035.225.064.321a.7.7 0 0 1 .04.165c-.003.013-.033.039-.09.076l-.084.055c-.04-.008-.064-.018-.072-.03Zm3.858-2.291-.042.057a1.41 1.41 0 0 1-.142.156 2.383 2.383 0 0 1-.229.193l-.08.053-.13-.197.081-.053a1.668 1.668 0 0 0 .502-.569 1.31 1.31 0 0 0 .057-.172c0-.013.015-.028.043-.047a.142.142 0 0 1 .09-.022l.84 1.278.847 1.279a.203.203 0 0 0 .077.005.61.61 0 0 0 .114-.05c.058-.03.148-.086.27-.166l.111-.073.13.196-.047.031c-.066.03-.295.176-.688.434-.388.255-.608.406-.663.454l-.05.034-.13-.197.11-.073c.064-.04.118-.076.163-.106.046-.03.08-.055.104-.075a.507.507 0 0 0 .06-.058.33.33 0 0 1 .029-.03c.003-.003.007-.016.011-.04.005-.023.01-.034.015-.033l-1.453-2.21Zm-.058-4.209.02-.022.061-.04.072-.047.265.034a3.57 3.57 0 0 1 1.671.736c.51.398.946.873 1.31 1.425.18.274.333.552.46.832.126.28.222.526.286.738.064.212.106.438.126.68.02.24.032.425.037.555.004.13-.01.287-.045.471l-.063.327a2.213 2.213 0 0 1-.063.206l-.008.04-.073.048-.066.044c-.013.008-.027.008-.043.002a.17.17 0 0 1-.053-.043 3.69 3.69 0 0 0 .014-.122c.198-1.06-.119-2.222-.951-3.487-.832-1.266-1.774-2.017-2.825-2.256a3.955 3.955 0 0 0-.118-.034c-.021-.033-.026-.061-.014-.087ZM61.986 22.56a5.937 5.937 0 0 1-.46-.832 6.626 6.626 0 0 1-.286-.738 3.034 3.034 0 0 1-.126-.678 30.528 30.528 0 0 1-.036-.556 1.921 1.921 0 0 1 .047-.481 7 7 0 0 0 .065-.337c.004-.037.026-.113.067-.226l.079-.052.024-.016c.056-.037.097-.037.12 0 .008.011.002.076-.019.194-.02.117-.033.278-.037.483a5.01 5.01 0 0 0 .045.714c.035.272.133.605.295 1 .162.396.383.807.664 1.234.28.427.569.791.865 1.092.296.302.563.527.8.677.237.15.45.258.638.325.188.066.343.117.464.153.122.035.184.055.187.06.023.035.005.073-.055.113l-.019.012-.078.052-.265-.034a3.568 3.568 0 0 1-1.67-.736 5.908 5.908 0 0 1-1.309-1.424Zm1.943-1.616c-.084-.187-.103-.454-.06-.8.044-.346.204-.613.48-.8a.862.862 0 0 1 .458-.145.834.834 0 0 1 .438.1c.003-.364.123-.625.36-.781a.71.71 0 0 1 .475-.122.542.542 0 0 1 .403.245c.077.117.111.23.102.34a.43.43 0 0 1-.075.24.574.574 0 0 1-.123.116.32.32 0 0 1-.231.056.27.27 0 0 1-.188-.127c-.122-.185-.105-.378.052-.58-.079-.023-.177.004-.294.081a.476.476 0 0 0-.107.088c-.11.165-.136.372-.076.62.344 1.05.564 1.649.662 1.798.075.113.16.172.256.178a.414.414 0 0 0 .26-.067c.148-.098.252-.26.31-.49a1.214 1.214 0 0 0-.026-.683c-.015-.048-.017-.079-.008-.09a.688.688 0 0 1 .09-.076l.023-.016c.06-.04.102-.044.123-.011a.998.998 0 0 1 .031.074c.087.272.096.557.027.857a1.082 1.082 0 0 1-.472.69c-.282.186-.58.2-.891.041-.001.359-.108.608-.322.749l-.036.024c-.198.13-.373.17-.527.12a.662.662 0 0 1-.351-.244.524.524 0 0 1-.092-.39.435.435 0 0 1 .193-.3c.173-.113.315-.086.426.083.053.08.076.167.067.26a.486.486 0 0 1-.118.294l-.015.018c.003.004.02.004.053 0 .032-.004.073-.011.124-.021a.281.281 0 0 0 .127-.058c.145-.095.21-.268.196-.518-.006-.088-.05-.256-.131-.502a45.01 45.01 0 0 0-.425-1.226 1.766 1.766 0 0 0-.125-.256c-.074-.113-.157-.173-.25-.182a.384.384 0 0 0-.253.063.793.793 0 0 0-.326.491c-.056.222-.047.452.03.69.015.042.018.069.009.08a.684.684 0 0 1-.089.076l-.085.056c-.04-.008-.066-.022-.08-.043Zm4.147-1.554a.28.28 0 0 1-.234.044.326.326 0 0 1-.192-.143.851.851 0 0 1-.119-.674.926.926 0 0 1 .418-.593c.26-.17.529-.233.807-.188a.976.976 0 0 1 .672.445c.08.122.13.258.145.406.016.149.012.29-.014.426-.025.135-.07.315-.134.54-.044.156-.1.38-.169.675l-.095.404.328-.209c.447-.294.68-.458.7-.49.016-.02-.033-.169-.148-.448l-.008-.013.17-.112.009.012c.003.01.07.153.2.426s.195.418.194.435l.009.013-1.586 1.042-.053-.081-.034-.051a.13.13 0 0 1-.016-.081c.002-.034.012-.112.03-.234l.056-.38c.007-.045.02-.13.041-.253a20.735 20.735 0 0 0 .073-.476 2.94 2.94 0 0 0 .024-.224 5.34 5.34 0 0 1 .014-.193.872.872 0 0 0 0-.195 2.123 2.123 0 0 1-.017-.167.659.659 0 0 0-.035-.173 4.74 4.74 0 0 0-.054-.148.817.817 0 0 0-.08-.149.91.91 0 0 0-.451-.37.58.58 0 0 0-.544.076.514.514 0 0 0-.2.236.615.615 0 0 0-.057.24.42.42 0 0 0 .01.108c.003.003.01 0 .025-.01a.321.321 0 0 1 .197-.044c.08.005.15.052.21.143a.301.301 0 0 1 .05.225.317.317 0 0 1-.142.203Zm2.916-.893-.1-.15a.452.452 0 0 1-.073-.324.396.396 0 0 1 .188-.28.473.473 0 0 1 .402-.047c.155.042.317.189.488.44.093.14.165.29.216.446.051.157.084.3.1.428.015.129.017.246.005.351a2.742 2.742 0 0 1-.038.259c-.013.066-.028.102-.042.106-.016.01-.055.01-.115-.003-.06-.012-.095-.027-.106-.043-.01-.016-.01-.063.003-.14.013-.078.023-.171.032-.28a1.388 1.388 0 0 0-.041-.406 2.1 2.1 0 0 0-.194-.505l-.047-.072-.002.01a.277.277 0 0 1-.023.032.182.182 0 0 0-.024.042.119.119 0 0 1-.046.048.525.525 0 0 0-.069.053.43.43 0 0 1-.333.073l-.18-.038Zm1.342-3.063c-.037-.056-.07-.173-.1-.35a2.008 2.008 0 0 1 .008-.62c.035-.236.136-.406.304-.51a.677.677 0 0 1 .49-.124c.162.026.3.12.412.283a.966.966 0 0 1 .065.139c.008.012.037.126.086.341.05.216.112.455.186.717.075.263.157.457.245.584.114.173.222.275.323.306.102.032.21.012.326-.058a.636.636 0 0 0 .216-.237.871.871 0 0 0 .096-.262 3.5 3.5 0 0 0 .032-.307 13.501 13.501 0 0 0-.199-.553 8.57 8.57 0 0 1-.18-.522c-.243-.705-.367-1.077-.369-1.116a.321.321 0 0 1 .153-.334.223.223 0 0 1 .154-.04c.051.006.09.016.115.028.025.012.04.027.047.046.035.053.214.54.538 1.464.325.923.498 1.432.52 1.527.107.408.086.803-.062 1.183s-.36.664-.635.85c-.182.12-.37.18-.565.182a.53.53 0 0 1-.468-.264.63.63 0 0 1-.105-.251.346.346 0 0 1 .028-.209c.03-.06.057-.106.08-.14a.35.35 0 0 1 .092-.085c.177-.117.321-.09.433.079a.39.39 0 0 1 .066.259.488.488 0 0 1-.118.294l-.014.018c.02.015.075.014.162-.003a.641.641 0 0 0 .233-.093l.049-.032a.93.93 0 0 0 .149-.115.968.968 0 0 0 .218-.472 1.6 1.6 0 0 0 .013-.546 4.915 4.915 0 0 0-.083-.43.891.891 0 0 0-.07-.213l-.021.048a1.871 1.871 0 0 1-.18.318c-.068.074-.14.135-.217.186a1.079 1.079 0 0 1-.577.189c-.2.004-.386-.078-.56-.246a2.09 2.09 0 0 1-.13-.184c-.15-.23-.277-.576-.38-1.039-.102-.463-.186-.745-.253-.846l-.008-.012-.047-.072c-.008-.012-.026-.021-.052-.027a.108.108 0 0 0-.083.02l-.024.016a.422.422 0 0 0-.178.281 1.14 1.14 0 0 0-.019.367c.014.118.036.225.064.322a.709.709 0 0 1 .04.164c-.003.014-.033.039-.09.076l-.084.056c-.04-.009-.064-.019-.072-.03Zm3.831-1.363a.28.28 0 0 1-.234.044.326.326 0 0 1-.192-.143.851.851 0 0 1-.119-.674.926.926 0 0 1 .418-.593c.26-.17.528-.233.807-.188a.976.976 0 0 1 .672.445c.08.123.13.258.145.406.016.149.011.29-.014.426a6.58 6.58 0 0 1-.134.54c-.045.156-.1.381-.169.675l-.095.405.328-.21c.447-.294.68-.457.7-.49.015-.02-.034-.168-.148-.448l-.008-.013.17-.112.009.013c.003.01.07.152.2.425s.195.418.194.435l.009.013-1.586 1.042-.053-.08-.034-.052a.13.13 0 0 1-.016-.081c.002-.034.012-.112.03-.234l.056-.38c.007-.045.02-.13.041-.253l.042-.254.03-.222a2.94 2.94 0 0 0 .025-.224c.002-.046.007-.11.014-.193a.873.873 0 0 0 0-.195 2.073 2.073 0 0 1-.017-.166.658.658 0 0 0-.035-.174 4.638 4.638 0 0 0-.054-.147.807.807 0 0 0-.08-.15.911.911 0 0 0-.451-.37.58.58 0 0 0-.544.076.515.515 0 0 0-.2.236.617.617 0 0 0-.057.24c.001.064.005.1.01.109.002.002.01 0 .025-.01a.32.32 0 0 1 .197-.044c.08.004.15.052.21.143a.301.301 0 0 1 .05.224.316.316 0 0 1-.142.203Zm-.03-5.135.02-.022.061-.04.073-.047.264.033a3.58 3.58 0 0 1 1.67.736c.51.398.946.873 1.31 1.424.18.274.332.551.459.831.127.28.222.526.286.738.064.212.106.438.126.679.02.24.032.426.037.556.004.13-.011.286-.046.47-.034.185-.055.294-.062.327a2.204 2.204 0 0 1-.064.206l-.008.04-.072.048-.067.044c-.012.008-.026.008-.042.002a.17.17 0 0 1-.054-.043l.015-.122c.198-1.06-.119-2.221-.95-3.486-.832-1.264-1.773-2.015-2.824-2.253a3.62 3.62 0 0 0-.118-.035c-.021-.032-.026-.06-.014-.086Z"/>
</svg>
